<svg xmlns="http://www.w3.org/2000/svg" viewBox="0 0 1180.77 1186.96"><defs><style>.cls-1{fill:#fff;}.cls-2{fill:#1062ac;}.cls-3{fill:#4ec9f5;}</style></defs><g id="Layer_2" data-name="Layer 2"><g id="Layer_1-2" data-name="Layer 1"><path class="cls-1" d="M565.44,13A572.76,572.76,0,0,1,933.92,126.66a581.45,581.45,0,0,1,233.52,497.47c-.46,6.8-.57,13.64-1.55,20.39-15.59,4.58-27.08,17.09-36.37,29.8-13.72,18.31-23.89,39.12-31.07,60.8-5.73,17.52-10.79,35.29-17.67,52.41C1066,826,1044.9,862.33,1017.23,893a86,86,0,0,1-8.13,8.18c3.75-6.21,8.71-11.6,12.6-17.74a429.94,429.94,0,0,0,31.69-53.31c13.2-26.85,22.67-55.34,31-84,1.39-5.08,3.11-10.15,3.2-15.47-5.29.92-9.83,3.88-14.57,6.18a96.51,96.51,0,0,0-40.42,39.35c-8.48,15.77-15.41,32.32-24.24,47.91-18.65,34-41.66,66.51-72.52,90.51a51.16,51.16,0,0,1-4.72,3.3c27.23-25.67,48.09-57.26,66.27-89.76,6.45-12,12.88-24.15,18.21-36.75,1.63-4,3.89-7.77,4.65-12.07-6.73-.4-12.95,2.93-18.71,6a75.4,75.4,0,0,0-20.46,18.5c-5.39,6.94-9,15-13.43,22.55A343.2,343.2,0,0,1,926.2,883c-10.48,11.2-21.3,22.46-34.3,30.73,4.74-5.9,10.66-10.72,15.5-16.54,21.26-23.94,39.24-50.55,56.48-77.45a31.15,31.15,0,0,0,3.86-7.77c-8.83.71-17,4.54-24.55,9a119,119,0,0,0-24.39,20.58c-5.64,5.77-10.1,12.54-15.27,18.7-22.72,28.19-48.49,54.8-80.15,72.92a204.55,204.55,0,0,1-32.1,15c-2.37.89-4.91,1.45-7,2.94,24.64,2.79,49.29,5.71,74,7.81,25.33,1.64,51.2,1.64,75.9-4.92a145.52,145.52,0,0,0,50.18-23.87c6.07-4.25,11.52-9.3,17.19-14.06-3.16,8-8.65,14.69-14.27,21-13.61,14.67-31.34,24.94-49.89,32.08-31.13,11.85-64.91,15.6-98,13.84-13.37-.54-26.68-2.12-40.07-2.15-26.32-1.09-52.8-.57-78.89,3.31a225.28,225.28,0,0,0-66.69,20.31,247.13,247.13,0,0,0-46.94,31c-5.94,4.5-11,10.06-17.16,14.26a283.62,283.62,0,0,0-45.42-35.44,214.85,214.85,0,0,0-69.58-27.46c-34.88-7.3-70.78-7.12-106.22-5.55-23,1.57-46.09,3.52-69.07.84-34.32-3.53-69.2-13.57-96.43-35.52-9.61-8.38-18.59-18.07-23.87-29.81,3.72,2.45,6.85,5.64,10.36,8.36a147.93,147.93,0,0,0,53.94,28.11c31.55,8.8,64.78,7.32,97,4q22.5-2.38,45-4.9A65.47,65.47,0,0,0,395.69,951c-4.79-2.5-10.07-3.84-15-6.08-29.13-11.91-54.82-31-76.57-53.59-13-13.07-24.61-27.49-36-42-10.48-13.22-23-25.29-38.37-32.65-5.2-2.29-10.64-4.55-16.42-4.53,1.23,3.51,3.38,6.56,5.36,9.68,19.13,29.88,38.87,59.74,63.7,85.26,3.44,3.6,7.31,6.73,11,10.1-11.66-6.92-21.34-16.68-30.88-26.19-21.1-22.57-39-48-54.09-74.92-7.5-11.46-16.08-22.91-28.16-29.87-6.08-3.44-12.62-6.83-19.78-6.87.52,4.12,2.43,7.84,4.06,11.59,14.64,32.49,32.4,63.66,53.73,92.23a265.76,265.76,0,0,0,22.13,26,23.14,23.14,0,0,1,3.35,4.26c-3.78-1.9-6.7-5-9.89-7.72C207.06,882,186.86,851.8,170,820.44c-10.2-18.33-17.28-38.4-29.45-55.6-8.55-11.55-20.22-20.57-33-27-5.06-2.55-10-5.52-15.56-6.87.15,6.12,2.18,12,3.9,17.78,6.81,23,14.41,45.78,24.14,67.71a387.44,387.44,0,0,0,31.39,56.62c5.78,9,12.36,17.48,18.22,26.42-7.32-6.24-13.14-14-19.32-21.35-25.8-31.83-44.3-69.06-57.23-107.8-7.24-20.93-12.5-42.63-22.33-62.57C63,692,53.82,676.68,42,663.53c-7.5-8.22-16.34-15.72-27.2-18.91C4.74,533.92,27.34,420.4,79.57,322.24A583.75,583.75,0,0,1,283.67,101.4,571.53,571.53,0,0,1,565.44,13Zm19.93,42.29c-.08,1.58-.15,3.16-.2,4.74,5.2,1.42,12.4,3.41,12.4,10.07-.86,15.16-2.78,30.26-4.53,45.34-.72,4.34-.78,9.21-3.56,12.83-3.12,2.27-7.25,2-10.9,2.54-.23,1.69-.39,3.39-.48,5.09,6.08.63,12.2.59,18.28,1.2,5.93.47,11.81,1.49,17.76,1.72a23.68,23.68,0,0,0,0-5.05c-3.84-1.06-8-1.72-11.31-4.07-2.08-3-1.59-7.05-1.55-10.54,1-14,1.91-28.1,3.55-42.09,14.26,21.44,27.75,43.4,41.33,65.28,4.66.34,9.34.59,14,1.13,1.32-20.82,3.26-41.62,6-62.31.49-3.05.77-6.22,2.11-9.05,2.22-3.67,7-3.44,10.77-3.73.13-1.85.2-3.7.15-5.55-11.71.1-23.3-1.78-35-2.61,0,1.64-.12,3.29-.2,4.93,3.6,1,7.47,1.5,10.74,3.45,2.93,1.71,2.77,5.55,2.83,8.51-.49,13.09-1.6,26.15-2.85,39.19-3.79-4.47-6.93-9.44-10.26-14.25-9.74-14.65-19.71-29.15-28.77-44.23C605.58,57.44,595.53,55.62,585.37,55.27ZM503,64c.07,1.66.18,3.31.31,5,4.07.22,8.31-.27,12.25,1,3.59,2,4,6.55,4.91,10.12,2.32,11.77,4.64,23.55,6.19,35.44-3.61-2.15-6.68-5-9.84-7.78C503.89,96,490.65,84.55,478,72.51c-1.6-1.42-3.05-4-5.57-3.1-9.25,1.62-18.5,3.19-27.82,4.32.15,1.62.29,3.25.38,4.88,3.9.76,8.21,0,11.76,2.12,2.72,2,3.51,5.63,4.09,8.79,2.36,15.16,4.88,30.3,6.52,45.56.2,3.35.9,7.66-2.09,10.06-2.53,1.76-5.55,2.63-8.4,3.75.12,1.61.19,3.22.24,4.83,4.65,0,9.11-1.51,13.66-2.26,7.38-1.56,15-2,22.32-3.64-.3-1.55-.56-3.12-.76-4.68-3.64-.34-7.34,0-10.94-.69-4.06-1.46-4.59-6.29-5.5-9.91-2.73-14-5-28.11-7.29-42.21C473.09,94,477.28,98,481.5,102c13.83,13.18,27.94,26.07,41.6,39.42.87.77,1.8,1.92,3.14,1.55,4.14-.61,8.21-1.62,12.39-2-3.45-22.91-8.35-45.69-10-68.85-.23-5.47,5.64-7.22,9.63-9.1-.25-1.59-.51-3.17-.77-4.76C526.07,60.56,514.56,62.41,503,64ZM700.45,67q-.83,2.14-1.68,4.26c2.64,1.89,5.86,3,8.19,5.28,1.48,2.7,0,5.82-.56,8.58-4.58,15.45-9,30.94-13.71,46.34-1,2.77-1.71,5.93-4,8-3.23,1.73-7,.42-10.44.34a16.25,16.25,0,0,0-1.06,5c13.56,3.31,26.83,7.65,40.17,11.72.59-1.5,1.16-3,1.73-4.53-3.2-2.54-9.8-3.68-9.07-8.87,1.87-8.44,4.49-16.7,7.09-24.95,10.44,2.37,20.72,5.5,30.89,8.84-1.65,8.65-4.47,17.09-7.35,25.39-2,4.81-7.93,2.45-11.86,2.83-.32,1.37-.67,2.74-1.06,4.09,3.94,1.92,8.35,2.49,12.53,3.75,7.94,2.31,15.92,4.56,23.73,7.3a11,11,0,0,0,4.65.41c.14-1.43.38-2.84.65-4.24-2.93-1.4-6-2.69-8.48-4.84-1.56-3.64.32-7.45,1.11-11,4.31-14.9,8.58-29.82,13.1-44.67,1-2.82,1.63-6.07,4.09-8,3-.77,6.16-.26,9.21,0a13.08,13.08,0,0,0,1.06-4.77c-10.41-2.91-20.91-5.5-31.11-9.1A62.34,62.34,0,0,0,750.41,82c-.42,1.57-.79,3.15-1.1,4.74a37.68,37.68,0,0,1,7.5,4c2,2.27.63,5.42.05,8-2.07,6.44-3.67,13-5.83,19.43-4.57-.56-8.9-2.14-13.3-3.39-6-1.83-12.08-3.3-17.9-5.63,1.87-7.16,3.89-14.3,6.26-21.32.75-1.82,1.32-4.15,3.4-4.89,2.84-.55,5.77,0,8.65,0,.32-1.51.68-3,1.07-4.5C726.19,75,713.27,71.15,700.45,67Zm-322.3,8.81c-2.73,5.78-6.36,11.06-9.44,16.63-1.12,1.84,1.52,4,3.3,3.38,4.71-3.57,8.15-8.52,12.76-12.19,6.5-.15,13,.6,19.53.2q.36-2.44.66-4.89c-7.37-2-14.55-4.6-21.81-6.94C380.62,71.11,379.13,74,378.15,75.84Zm22.78,14.85c-11.86,4.46-23.61,9.22-35.58,13.39-3.22,1.24-6.65,2-9.57,3.94.61,1.36,1.18,2.73,1.71,4.12,2.93-.4,5.83-1.25,8.8-1.1,3.25.53,4.27,4.13,5.46,6.71,6.2,16.14,12.68,32.18,18.45,48.49.7,2.31,1.8,5.38-.2,7.37a59.55,59.55,0,0,1-9.61,5.93,33.29,33.29,0,0,0,1.21,4.69c3.84-.7,7.35-2.44,10.95-3.87,16-6.83,32.47-12.19,48.71-18.3,2.6-1.14,6.46-2.28,6.13-5.85a112.27,112.27,0,0,0-1.5-19.72l-5.76.19c-.69,5.83-1,12-4,17.26-3.29,3.53-8.29,4.64-12.64,6.33-4.11,1.21-8.34,3.53-12.73,2.44-1.91-1.73-2.52-4.37-3.49-6.66-2.11-5.93-4.7-11.69-6.31-17.78,5.35-2.25,10.7-4.72,16.42-5.85,4-.77,5.69,3.74,7.71,6.33,2.13-.05,4.28-.64,5.58-2.47a181.88,181.88,0,0,1-8.89-25,12.18,12.18,0,0,0-6,1.94c.14,3.33,2.47,8.11-1.1,10.31a98.48,98.48,0,0,1-17.1,6.61c-2.31-5-4-10.22-6-15.3-1.37-3.69-3.33-7.33-3.14-11.38,5.07-2.07,10.16-4.11,15.33-6,2.34-.74,5.08-1.94,7.39-.42,3.31,2.16,5,6,7.45,8.89a28.94,28.94,0,0,1,4-.77,5.71,5.71,0,0,0,.08-4.3,157.64,157.64,0,0,1-4.9-17.56C412.26,86,406.71,88.61,400.93,90.69Zm409.75,13.67c-.67,1.3-1.38,2.59-2.1,3.86,2.12,2.2,4.82,3.81,6.68,6.25,1.73,2.65-.49,5.58-1.43,8.1-7.86,15.66-15.93,31.22-24.4,46.56-1.3,1.91-2.62,4.63-5.25,4.71a49.81,49.81,0,0,1-8.81-2.44A23,23,0,0,0,773.1,176c12.63,6.24,25.13,12.74,37.38,19.7a8.4,8.4,0,0,0,3-4.31c-2.56-1.86-5.26-3.66-7.27-6.13-1.67-2.59-.08-5.66,1.11-8.1,6.08-11.84,12.43-23.55,18.59-35.36,2.58-4.73,4.74-9.74,7.88-14.15,2.81-4,7.88-.29,11.58.33q1.26-2.24,2.33-4.57c-6.61-3.22-13.25-6.39-19.7-9.91C822.27,110.39,816.74,106.82,810.68,104.36Zm-485,20c-7.87,4.68-16.06,8.75-24.08,13.14.62,1.5,1.29,3,2,4.45,2.95-.79,5.8-2,8.84-2.42,3,.22,4.6,3.21,6.08,5.44,8.31,14.14,16.21,28.5,24.12,42.86,1.42,2.91,3.5,5.88,3.16,9.27-1.64,2.93-4.67,4.72-7.08,7,.61,1.41,1.21,2.83,1.82,4.26,5.06-2,9.47-5.26,14.19-7.9,7.68-4.68,16-8.33,23.53-13.17-.65-1.43-1.25-2.88-1.82-4.34-3.08.92-6.05,2.28-9.23,2.75-2.5.15-4.23-2-5.43-3.93-6-9.54-11-19.62-16.73-29.28-3.67-7-8-13.58-11.22-20.78-2.29-4.89,3.73-7.62,6.84-10.09-.94-1.36-1.81-2.77-2.64-4.19C333.56,119.11,329.81,122.12,325.66,124.36ZM264.42,162.5a21,21,0,0,0,2,4.6c3.69-1.35,7-3.88,10.95-4.4,2.54.41,3.47,3,4.35,5.09,3.54,9.43,6.31,19.12,9.15,28.78,1.33,5.43,3.37,10.73,3.92,16.33-12.14-6.78-24-14-36-21.15-3.07-2-6.41-3.6-9.11-6.08-1.06-3.4,2.56-5.59,3.54-8.51-.29-1.56-1.82-2.45-2.79-3.57-3.69,2.45-7,5.43-10.4,8.2-7.35,6.23-15.48,11.45-23.05,17.39.93,1.41,1.34,3.65,3.31,3.93,3.71-1.22,7.44-3.87,11.51-2.48,8.42,3,15.78,8.23,23.59,12.47,14.35,8.86,29.18,17,43.21,26.33a114.29,114.29,0,0,0,9.92-7.33c-6.44-19.33-11.22-39.15-16.38-58.84-1.23-5.67-3.33-11.28-3.2-17.14.07-4.07,3.06-7.12,5.36-10.18a16.28,16.28,0,0,0-3.05-3.81C282.38,149,273.85,156.36,264.42,162.5Zm625.14-14.61c-.95,1.29-2.84,2.29-2.89,4,2.3,3.3,7.51,6.84,4.82,11.36-4.59,7-10.11,13.28-15.27,19.81a85,85,0,0,0-7.89-5.75q-2,1.83-3.85,3.8c2.59,2.17,5.25,4.28,7.95,6.34-3.07,4.74-7,8.83-10.44,13.29-2.94,3.37-5.48,7.31-9.33,9.73-4.45,1.29-8.16-2.76-12.07-4.27-.89,1.33-1.79,2.65-2.68,4,7.33,6.13,14.63,12.29,22,18.4,6.66,5.49,13.28,11.19,21.07,15.05,10.55,5.5,23.5,7.34,34.75,2.88,16.36-6.74,28.83-24.06,27-42.12-.94-10.56-7.48-19.62-15.3-26.35-9.44-8-19.81-14.78-29-23A78.66,78.66,0,0,0,889.56,147.89ZM453,186.82A430.45,430.45,0,0,0,313.85,264.6C242.08,324,190.3,407.3,169.39,498.16c-21,89-12.82,184.64,23.33,268.67,5.46,12.51,11.13,25,18.08,36.76,4.35.52,8.68,1.3,13,2.21-2.55-5.36-5.49-10.52-8.27-15.76-38.46-74-53.67-159.64-43.91-242.4,10.12-89.38,50.27-174.9,112.17-240.1,62.7-66.83,147.81-112.3,238.34-126.75,85.82-14.16,176-1.13,254,37.51a422.09,422.09,0,0,1,227,292c18.45,87.85,8.15,181.55-29.64,263-4.84,10.94-10.8,21.33-16.19,32,4.24-.59,8.47-1.32,12.74-1.72,1.14-1.79,2.25-3.61,3.22-5.49a422.72,422.72,0,0,0,25.64-59.31c31.77-90.86,31.77-192.41.18-283.31A433.57,433.57,0,0,0,736.53,189.88C645.93,157.18,544.31,156.15,453,186.82Zm-28.3-12.4c-4.4,1.08-8.87,3.65-10.87,7.86.2,4.89,4,10.63,9.43,10,3.6-1.39,8.56-2.83,9.18-7.31a11.53,11.53,0,0,0-2.78-10.17C428.24,173.79,426.34,174,424.72,174.42Zm157.1,27.41a105.49,105.49,0,0,0-16.19,2.64c-34.13,8.17-63,35.16-73.31,68.74-11.06,33.42-3,72.31,20.31,98.66,20.82,24.47,53.8,37.94,85.81,35.18,33.93-2.29,65.89-23,82.08-52.83,8.76-15.5,12.92-33.35,12.94-51.09a104.54,104.54,0,0,0-16.57-54.58,103.23,103.23,0,0,0-95.07-46.72ZM170.38,251.16c-4,5.85-8.7,11.23-12.76,17.07,1.09,1.24,2.31,3.37,4.29,2.5,2.08-1.59,3.79-3.65,6-5.05,2.46-1,4.87.76,6.82,2.09,5.62,4.23,11.5,8.1,17,12.44-2.28,4.63-5.67,8.56-8.62,12.75-3.53,4.5-6.35,9.64-10.7,13.45-6.52-4.57-13.07-9.12-19.17-14.23-3.88-3-.31-7.77,1.1-11.13a28,28,0,0,0-4-2.9c-7.57,11-15.18,21.92-23.67,32.21,1.17,1.19,2.25,3.82,4.3,3.12,2.37-2.15,4.58-4.51,7.36-6.16,5.51,1.93,9.95,5.85,14.65,9.18,10.81,7.83,21.63,15.66,32.36,23.61,2.14,1.71,4.57,3.41,5.62,6.05.87,3.54-2.27,6.43-2.52,9.83.44,1.41,2.06,2,3,3a23.17,23.17,0,0,0,2.71-3.07c7-10.64,14.76-20.67,22.44-30.77-1.12-1.25-2.15-3.23-4.13-3-3.31,2-6,7.27-10.54,5.3-7.45-4.69-14.55-10-21.55-15.33,5.94-9,12.31-17.7,19-26.18a202.12,202.12,0,0,1,21.34,15.8c3.82,3.53-1.24,8.08-1.35,12.14,1.32.6,2.63,1.21,3.94,1.85,7.83-11.33,16.15-22.32,24.24-33.45a17.68,17.68,0,0,0-3.84-3.12c-3,2.21-5.27,6.54-9.32,6.49-6.25-2.34-11-7.31-16.66-10.81-11.1-8.28-22.65-16-33.47-24.62-3.89-3.33-.38-8.34,1.13-12-1.3-.89-2.62-1.75-4-2.53C177.42,240.65,174.17,246.09,170.38,251.16Zm831.24-15.1c-.44,1.29-.87,2.58-1.3,3.87,5.32,3.21,11.37,5.17,16.51,8.62,2,5.85,3.76,11.81,5.8,17.66a26.13,26.13,0,0,0,5.21-.34c-.54-8.41.07-16.88-1-25.24-4.29-1.45-8.83-1.74-13.25-2.61C1009.6,237.34,1005.67,236.25,1001.62,236.06Zm-30.79,2.7a38.24,38.24,0,0,0-17.33,6.44c-10.53,6.7-18.86,17.51-21.07,30-1.67,9.62,1,19.64,6.26,27.76,5.75,9,13.9,17,24.08,20.79a39.61,39.61,0,0,0,30-.19c12.73-5.44,23.57-16.21,27.35-29.74,2.92-10.52.58-22-5.21-31.13-3.55-6.09-8.9-10.76-13.82-15.69C992,241.62,981.56,237.68,970.83,238.76Zm62.66,7.15c.52,7.75,1,15.58,2.86,23.15l4,0a131.73,131.73,0,0,0,4.81-19.66C1041.51,247.62,1037.72,244.89,1033.49,245.91Zm14.07,70.52c1,5.06,3.87,11.87-1.2,15.68-4.85,2.92-9.89,6.21-15.62,6.92-1,.78-1.64,2-2.83,2.48q-15.26,7.56-31,14a12.65,12.65,0,0,1-6.17.25c-2.89-1.87-4.79-4.87-6.81-7.58a49.45,49.45,0,0,0-4.58,2c5.17,10.6,11.13,20.83,15.48,31.83a24.5,24.5,0,0,0,4.82-1c-.27-4.57-3.08-8.87-1.9-13.51,2.92-4,7.71-5.88,11.91-8.18,11.18-5.52,22.05-11.7,33.55-16.52-10.83,23.3-22.61,46.17-33.84,69.28,2.19,4.08,4.36,8.18,6.34,12.37,13.6-7.44,27.61-14.11,41.58-20.83a199.65,199.65,0,0,1,22.09-9.3c4.82-1.28,7.59,3.48,10.11,6.67,1.5-.53,3-1.07,4.55-1.57a24.87,24.87,0,0,0-2.35-5.6c-5-8.46-8.71-17.6-13.2-26.32-1.49.75-4.65,1-3.92,3.43.69,4.59,4.51,10.55-.14,14.21-7.32,5.05-15.52,8.68-23.35,12.86-5,2.26-9.63,5.42-14.88,7.16,3.53-10.38,8.85-20,13.22-30.08,5.27-11.08,10.14-22.37,16-33.13-4.43-9.1-9-18.16-13.23-27.34C1050.66,315.23,1049.11,315.83,1047.56,316.43ZM114,328.23c-2.58,6.74-5.74,13.25-8.72,19.82-1.8,4.15-4.79,7.84-5.59,12.38,1.47.42,2.91.92,4.35,1.45,2.21-3.11,3.92-6.76,7-9.08s6.76-.17,9.88.83c11.78,4.74,23.28,10.16,34.72,15.65a39.57,39.57,0,0,1-6.89,2.23c-20.25,5-40.42,10.4-60.9,14.34-1.33,1.43-1.88,3.38-2.69,5.12-3.11,7.66-7.3,14.81-10.51,22.42a16.43,16.43,0,0,0,4.62,1.92c2.1-2.63,4-5.51,6.63-7.61,3.18-2,7.06-.73,10.17.76,14.3,6.94,28.78,13.57,42.71,21.25,2.58,1.69,6.16,3.42,6.34,6.93,0,3.19-1.16,6.24-1.68,9.36l4.58,2c4-9.26,7.91-18.6,12.71-27.5.66-1.72,2.14-3.38,1.84-5.28a10.38,10.38,0,0,0-3.95-2.09c-2.61,3.26-4.47,7.38-8.23,9.51-3.87.86-7.54-1.08-11-2.54-12.46-5.64-25.09-10.95-37.23-17.26,4.29-1.73,8.91-2.23,13.38-3.3l2.27,1.37-.94-1.44c16.75-4.34,33.79-7.52,50.66-11.31,3.32-.89,7.08-.8,10-2.63,2-3.94,3.52-8.13,5.49-12.1-19.87-8.79-39.56-18-58.76-28.2-2.43-1.46-5.35-2.8-6.57-5.51-.65-3.26.36-6.55,1-9.74A11.58,11.58,0,0,0,114,328.23ZM487.53,428.35a293.71,293.71,0,0,0-91.06,52.91,284.52,284.52,0,0,0-71.91,93,278.29,278.29,0,0,0,7.18,255.61,87.38,87.38,0,0,0,13.62.89c20.4-.23,40.82.25,61.21-.24,2.31,4.92,2.54,10.45,3.68,15.7a183.77,183.77,0,0,0,67.82,107.25c4.24,2.79,9.42,3.31,14.14,4.88a171.5,171.5,0,0,1,25.45,10.57c4.05,1.84,7.58,4.83,12,5.86.53-23.15,0-46.32.26-69.48,2.07.64,4.15,1.3,6.16,2.14,17.36,7.64,36.45,10.54,55.31,10.89,8.11-.53,16.29-.79,24.25-2.67,11.2-1.6,21.74-5.77,32.33-9.51.46,23.6-.34,47.22.36,70.81,5.59-2.9,10.82-6.45,16.47-9.26a158.33,158.33,0,0,1,30.08-11.25c6.78-2.28,14.08-2.55,20.76-5.13,26.58-12.32,51.9-27.65,74.17-46.76a252.81,252.81,0,0,0,65.52-85.45c10.92-23.08,18-47.86,22.06-73,4.16-28.77,5.49-58.19,1-87-8.86-54.69-35.4-105.68-72.18-146.79-43.32-48.69-102.1-84.36-166.38-96.66C589.14,405.88,536.05,411.15,487.53,428.35Zm578.2,3.2c-9,1.91-17.93,5.77-24.63,12.27-6.91,6.87-10.23,16.7-10.24,26.32-.23,15.46,5.36,30.33,12.79,43.67,1.45,2.28,2.27,5.8,5.61,5.69,1.61-1.9,3-4.34,5.64-5,3.85-1.2,7.79-2.12,11.71-3.12,2-.47,4.33-1.2,6.19.16a32.42,32.42,0,0,1,3.19,5.27,11.47,11.47,0,0,0,5.06-1.46c-4.24-12.93-7.08-26.25-10.85-39.3-1.61.33-3.21.67-4.8,1-.25,4.3,1.68,8.86,0,13-3,3-7.49,3.5-11.36,4.74-3.61.84-7.54,2.36-11.15.77-3.25-3.54-3.58-8.73-3.34-13.29.63-8.62,6.37-16,13.19-20.83,9.26-6.4,20.43-9.75,31.62-10.46,7.68-.36,16.11,1.74,21,8.1a30.32,30.32,0,0,1,4.42,26.46c-2.25,6.43-9.23,8.85-14.82,11.57a17.36,17.36,0,0,0,2.21,5.56,151.93,151.93,0,0,1,23.87-4.19c-1.33-11.12-2.14-22.43-5.92-33.07-3.22-10.51-9.23-20.29-17.83-27.23C1088.4,431.45,1076.57,429.38,1065.73,431.55ZM66.87,440.44c-1.67,12.28-5.11,24.22-7.87,36.28-2.18,9.56-5,18.95-7.18,28.53a15.56,15.56,0,0,0,5.07.77,52.33,52.33,0,0,1,4-8.41,21.36,21.36,0,0,1,8.72.29c12.87,3,25.69,6.17,38.54,9.22,4.94,1.26,10,2.14,14.69,4.31a4.42,4.42,0,0,1,2.76,3.69c.18,3.72-.44,7.42-.54,11.14,1.67.27,3.35.58,5,.9,4.19-20.65,9.58-41,14.91-61.39.48-2.7,2-6.51-1-8.27a94.39,94.39,0,0,0-17.42-10.14q-1.55,2.34-3,4.78c4.63,4.4,10.84,8.36,12.31,15-.41,7.33-3,14.36-5.26,21.31-.67,3.1-4.4,3.26-6.88,2.44-7-1.82-14.25-3.05-21.12-5.46a113.65,113.65,0,0,1,4.25-16.66c1.74-4.2,7-2.82,10.52-3.29a26.74,26.74,0,0,0,.74-5.76c-9-1.37-17.68-4.24-26.48-6.48-.44,1.86-.88,3.72-1.29,5.59a68.76,68.76,0,0,1,7.85,4.63c.06,6.79-2.33,13.29-3.92,19.82-4.8-.15-9.35-1.87-14-2.83-4.49-1.23-9.34-1.64-13.38-4.14,1.18-5.87,2.36-11.75,4.12-17.48.73-2,1.42-4.54,3.73-5.26,3.68-1.22,7.62-.77,11.43-.85.36-1.76.69-3.51,1-5.27C80.43,445,73.49,443.21,66.87,440.44ZM36.6,463.56a17.44,17.44,0,0,0,1.5,4.84c3.11,6.13,6.24,12.26,8.79,18.65a21.87,21.87,0,0,0,4.46-.95c-.13-6.31-2.66-12.36-2.69-18.62,3.48-5.24,7.69-10,10.91-15.4-1-1.2-2.08-2.35-3.19-3.45C49.61,453.36,43.22,458.62,36.6,463.56Zm110.47,20.3c-3,4.63-3,10.68-1.23,15.78,3.32,1.65,7.48,2.95,10.93.88,3.11-1.21,3.77-4.75,4.14-7.67,1.17-4.92-3.23-9.63-7.95-10.21C151,482.42,148.25,481.83,147.07,483.86ZM91.17,535c-5.17,3.68-7.71,9.76-10.06,15.43-1.65-3.82-3-7.95-6-11-6.12-6.21-17.44-6.59-23.5-.08-4.37,5-5.76,11.81-6.54,18.23-.85,8.51-1,17.08-1.89,25.59-.34,6.62-1.72,13.16-1.66,19.81,1.53.14,3.06.26,4.6.34.91-3.28,1.41-7.06,3.83-9.61,3-1.07,6.31-.74,9.46-.53,14.74,1.11,29.46,2.45,44.19,3.79,3.77.54,8.05.37,11.23,2.77,2.21,3.28,1.63,7.52,2,11.28,1.7.1,3.4.18,5.1.17q1.62-16.56,3.51-33.08c.83-8.64,1.33-17.54-1-26-2-6.74-5.62-13.53-11.93-17.1C106.1,531.41,97.47,530.55,91.17,535Zm958,30.94c-.26,7.08.6,14.15.59,21.23.14,7.87-.24,15.73,0,23.59,1.68.19,3.38.35,5.09.45.84-4-.14-10.36,4.94-11.63,9.05-1.81,18.37-.88,27.54-1.49,14-.39,27.95-.49,41.92-.15a19.87,19.87,0,0,0-1.46-6.24,102.7,102.7,0,0,1-6.11-24.28c-1.68-.17-3.36-.29-5-.36-.42,2.93-.33,6-1.52,8.81-1.22,2.53-4.48,2.2-6.81,2.54-14.7.53-29.42.58-44.12.55-2.77-.18-6.39.06-8-2.71-1.59-3.11-1.56-6.73-2.18-10.09C1052.47,566,1050.82,566,1049.2,565.9Z"/><path class="cls-1" d="M908.5,174.23c.91-1.49,2.88-1.2,4.16-.36,7.53,4.77,13,13.19,13.05,22.23.11,10.35-4.7,20.24-11.64,27.71-6.24,7.42-14.78,13.64-24.71,14.42-8,.8-15.45-5-18.22-12.18-1.2-3.37,1-6.61,3-9.19,4.41-5.67,9-11.23,13.55-16.75,5.4,3.25,9.78,7.88,14.89,11.54a50.59,50.59,0,0,0,4.3-3.6c-4.57-4.88-10.6-8.09-15.38-12.76C897.12,188.25,902.62,181.08,908.5,174.23Z"/><path class="cls-1" d="M982.8,252.6c4.48-1.51,9.57-1.82,14,.11,6.38,3.21,10.84,10.2,10.49,17.42,0,7.38-3.95,13.92-8.06,19.77-4.51,6.44-10.6,11.55-16.86,16.22-6.05,4.2-13.06,8-20.64,7.75s-13.42-7.51-14.53-14.74c-1.09-6.1.85-12.23,3.48-17.68,5.13-10,13.47-18.15,22.84-24.26A37.93,37.93,0,0,1,982.8,252.6Z"/><path class="cls-1" d="M91.46,556.22c4.39-3.59,10.43-3.31,15.73-2.69,5.17,1,10.78,3.73,12.55,9.08,1.26,4.68.6,10.35-3.13,13.77-2.48,2.25-6,1.54-9.07,1.51-7.71-.55-15.42-1.17-23.1-2.07C84.12,568.79,85.59,560.79,91.46,556.22Z"/><path class="cls-1" d="M54.21,558c4.2-4.68,11.29-5.4,17.09-3.91,3.75.83,7.29,4,7.31,8.05a72.9,72.9,0,0,1-1,12.94,227.64,227.64,0,0,1-26.83-2.45C50,567.53,50.7,561.88,54.21,558Z"/><path class="cls-1" d="M742.58,578.51c6.44,0,12.88-.06,19.33.09a199.66,199.66,0,0,1,37.33,117.54c-.09,33.53-7.86,67.47-25.2,96.39-1.7-5.18-2.15-10.64-3.08-16-.64-3.85-1.4-7.74-1-11.65a185.64,185.64,0,0,0,9.88-107.23C774.06,628.77,760.83,601.58,742.58,578.51Z"/><path class="cls-1" d="M393.67,619.43c6-14.4,13.34-28.34,22.67-40.88,6.21-.08,12.42-.17,18.62.15-6.3,9.42-13.23,18.47-18.43,28.59-22.65,41.57-28.1,92-15.29,137.53-5.41,0-10.83.19-16.23-.15C374.53,703.41,377.38,658.81,393.67,619.43Z"/><path class="cls-1" d="M436.68,1032.49c6.41,1.56,12.67,3.67,19.07,5.25,8.2,1.68,16.43,3.21,24.65,4.78-1.68,9-4.81,17.7-7,26.6-5.7,20.36-11.67,40.66-17.08,61.1a76.2,76.2,0,0,1,10.6,3.54l-.64,3.37c-7.76-1.3-15.17-4.1-22.78-6-11.31-3.2-22.65-6.31-34-9.57a31.74,31.74,0,0,1,1.49-4,129.41,129.41,0,0,0,13,3.53c7.35-25.82,14.47-51.7,21.84-77.5.13-1.33,1.22-2.83.36-4-3.45-1.18-7-2-10.47-3.18C436,1035.05,436.35,1033.76,436.68,1032.49Z"/><path class="cls-1" d="M724.35,1036.09c8.17-1.8,17.19-1.71,24.74,2.27,5.42,2.79,8.62,8.82,8.85,14.79-.93,7.45-8.69,11.65-15.55,12.14-5.46.51-12.45-2.1-13.32-8.2-1.53-6.22,2.6-11.48,5.37-16.59-4.84-1-10.83-.65-14.08,3.58-3.81,5-3.92,11.81-2.68,17.74,1.78,7.44,4.25,14.7,6,22.15,7.06-5.65,15.27-11.07,24.7-10.77,7.43-.46,14.56,3.07,19.85,8.1a29.87,29.87,0,0,1,8.55,20.85,27.78,27.78,0,0,1-10.24,20.17c-7.35,6.25-16.81,9.39-26.18,11a41.8,41.8,0,0,1-30.57-6.68c-22.69-15.42-29-50-13.5-72.6C702.54,1044.39,713.33,1038.55,724.35,1036.09Zm5.41,49.35c-2.15,1-3,3.57-3.21,5.77-.06,4.47,1.79,8.65,2.86,12.93,1.94,6.67,3.32,13.56,6,20,1.45,2.94,4.49,7.13,8.26,5.29,3.43-2.83,3.19-7.87,2.13-11.77l-7-25.93C737.87,1087.84,734,1084,729.76,1085.44Z"/><path class="cls-1" d="M646.3,1056.13c6-.93,11.58-3.14,17.32-4.89a5.49,5.49,0,0,1,4.42.09c.19,9.91-6.07,19.07-14.39,24.06-13.32,8-29.55,8.45-44.55,6.39-.25,5.87-.6,11.75-.69,17.64,6.84-2.83,13.64-5.92,21-7.32,11.21-2.56,23.71-1.84,33.6,4.47,5.63,3.67,10.67,8.78,12.84,15.27,2.51,7.43,1.69,16.22-3.13,22.57-5.68,7.73-14.83,12.12-24,14-8.62,2-17.52,1.65-26.29,1.47-7.84-.28-15.82-3.84-20.4-10.36-4.92-7.13-2.7-18.74,5.68-22.17,4.11-1.69,8.86-1.46,13.14-.63,9.22,3.65,10.53,17.76,3.09,23.84-1.78,1.41-3.73,2.56-5.61,3.81,6.65,6.29,20.09,2.85,22.07-6.43,2.35-9.5,1.4-19.59-.87-29-1-4.36-3.66-8.71-8.24-9.84a24.42,24.42,0,0,0-19.88,3.94,30.69,30.69,0,0,1-5.93,3.36c-1.46-3.48-.76-7.3-.74-11,.55-13.22.88-26.45,1.6-39.66C619.6,1055.6,633,1058.3,646.3,1056.13Z"/><path class="cls-1" d="M518.65,1056.41c8.35-3.82,17.8-3.53,26.76-2.85a38.8,38.8,0,0,1,28.59,17c7.49,10.44,9.79,23.86,8.18,36.45-1.35,13-7.59,25.78-17.93,34-7.18,5.93-16.64,8.61-25.86,8.48-8.86-.34-18.08-1-26-5.41-5.66-3-11.54-8-11.6-15,.31-5,3-10.94,8.37-12.18a18.23,18.23,0,0,1,17.35,4,11.38,11.38,0,0,1,1.2,15.54c-2.17,2.27-5.38,3.29-7.32,5.82,4.87,1.9,10.57,3.93,15.63,1.48,5.5-2.82,7.93-9.09,8.72-14.88,1-7.84,1.44-15.74,1.88-23.61-6.2,3.89-13.62,6-20.94,4.66-15.13-1.42-26.91-16.9-24.54-31.85C502.14,1068.23,509.62,1060,518.65,1056.41Zm23,.95c-2.86.87-3.78,4.14-4.26,6.76-1.3,9.47-1.36,19.05-2.36,28.54-.31,3.46-.29,8.09,3.38,9.81,4.38,1,7.83-3.32,7.95-7.36.74-9,1.3-18,2.08-27,.15-2.94.62-6.26-1.33-8.74C546,1057.63,543.69,1056.49,541.69,1057.36Z"/><path class="cls-2" d="M558.83.79c15.47-1.36,31-.5,46.54-.75A582.82,582.82,0,0,1,844,57.61c103.84,49.74,192.38,130.61,251.67,229.28a590.69,590.69,0,0,1,81.59,241.21c10,91.43-1.16,185.23-33.34,271.46a596.45,596.45,0,0,1-308.54,333.51,583.17,583.17,0,0,1-197.16,51.77c-8,.62-15.91,1-23.82,1.93-6.69.71-13.32-.88-20-.68-5.66.07-11.35-.25-17,.5-10.06,1.25-20-1.44-30.07-1.42a582.8,582.8,0,0,1-204.64-53.37c-6.12-2.71-11.86-6.31-18.34-8.15-3.5-2.87-7.63-4.8-11.61-6.92A595.41,595.41,0,0,1,4.18,664.23a602.56,602.56,0,0,1-1-132.08c11.09-110.62,54.49-217.7,123.23-305A596.91,596.91,0,0,1,319.42,66.25C393.33,27.74,475.54,4.87,558.83.79ZM565.44,13A571.53,571.53,0,0,0,283.67,101.4,583.75,583.75,0,0,0,79.57,322.24C27.34,420.4,4.74,533.92,14.83,644.62c10.86,3.19,19.7,10.69,27.2,18.91C53.82,676.68,63,692,70.81,707.76c9.83,19.94,15.09,41.64,22.33,62.57,12.93,38.74,31.43,76,57.23,107.8,6.18,7.32,12,15.11,19.32,21.35-5.86-8.94-12.44-17.41-18.22-26.42a387.44,387.44,0,0,1-31.39-56.62c-9.73-21.93-17.33-44.73-24.14-67.71-1.72-5.82-3.75-11.66-3.9-17.78,5.55,1.35,10.5,4.32,15.56,6.87,12.77,6.45,24.44,15.47,33,27,12.17,17.2,19.25,37.27,29.45,55.6,16.82,31.36,37,61.51,63.77,85.28,3.19,2.7,6.11,5.82,9.89,7.72a23.14,23.14,0,0,0-3.35-4.26,265.76,265.76,0,0,1-22.13-26c-21.33-28.57-39.09-59.74-53.73-92.23-1.63-3.75-3.54-7.47-4.06-11.59,7.16,0,13.7,3.43,19.78,6.87,12.08,7,20.66,18.41,28.16,29.87,15.13,26.9,33,52.35,54.09,74.92,9.54,9.51,19.22,19.27,30.88,26.19-3.66-3.37-7.53-6.5-11-10.1-24.83-25.52-44.57-55.38-63.7-85.26-2-3.12-4.13-6.17-5.36-9.68,5.78,0,11.22,2.24,16.42,4.53,15.34,7.36,27.89,19.43,38.37,32.65,11.44,14.46,23,28.88,36,42,21.75,22.56,47.44,41.68,76.57,53.59,4.9,2.24,10.18,3.58,15,6.08a65.47,65.47,0,0,1-10.33,1.33q-22.5,2.53-45,4.9c-32.24,3.34-65.47,4.82-97-4a147.93,147.93,0,0,1-53.94-28.11c-3.51-2.72-6.64-5.91-10.36-8.36,5.28,11.74,14.26,21.43,23.87,29.81,27.23,21.95,62.11,32,96.43,35.52,23,2.68,46.1.73,69.07-.84,35.44-1.57,71.34-1.75,106.22,5.55a214.85,214.85,0,0,1,69.58,27.46,283.62,283.62,0,0,1,45.42,35.44c6.14-4.2,11.22-9.76,17.16-14.26a247.13,247.13,0,0,1,46.94-31,225.28,225.28,0,0,1,66.69-20.31c26.09-3.88,52.57-4.4,78.89-3.31,13.39,0,26.7,1.61,40.07,2.15,33.11,1.76,66.89-2,98-13.84,18.55-7.14,36.28-17.41,49.89-32.08,5.62-6.35,11.11-13.08,14.27-21-5.67,4.76-11.12,9.81-17.19,14.06A145.52,145.52,0,0,1,934.19,954c-24.7,6.56-50.57,6.56-75.9,4.92-24.71-2.1-49.36-5-74-7.81,2.08-1.49,4.62-2.05,7-2.94a204.55,204.55,0,0,0,32.1-15c31.66-18.12,57.43-44.73,80.15-72.92,5.17-6.16,9.63-12.93,15.27-18.7A119,119,0,0,1,943.19,821c7.5-4.5,15.72-8.33,24.55-9a31.15,31.15,0,0,1-3.86,7.77c-17.24,26.9-35.22,53.51-56.48,77.45-4.84,5.82-10.76,10.64-15.5,16.54,13-8.27,23.82-19.53,34.3-30.73a343.2,343.2,0,0,0,41.47-56.58c4.45-7.53,8-15.61,13.43-22.55a75.4,75.4,0,0,1,20.46-18.5c5.76-3.07,12-6.4,18.71-6-.76,4.3-3,8.08-4.65,12.07-5.33,12.6-11.76,24.7-18.21,36.75-18.18,32.5-39,64.09-66.27,89.76a51.16,51.16,0,0,0,4.72-3.3c30.86-24,53.87-56.51,72.52-90.51,8.83-15.59,15.76-32.14,24.24-47.91A96.51,96.51,0,0,1,1073,736.85c4.74-2.3,9.28-5.26,14.57-6.18-.09,5.32-1.81,10.39-3.2,15.47-8.35,28.67-17.82,57.16-31,84a429.94,429.94,0,0,1-31.69,53.31c-3.89,6.14-8.85,11.53-12.6,17.74a86,86,0,0,0,8.13-8.18c27.67-30.69,48.76-67,63.55-105.49,6.88-17.12,11.94-34.89,17.67-52.41,7.18-21.68,17.35-42.49,31.07-60.8,9.29-12.71,20.78-25.22,36.37-29.8,1-6.75,1.09-13.59,1.55-20.39A581.23,581.23,0,0,0,719.34,27.06,571.77,571.77,0,0,0,565.44,13ZM436.68,1032.49c-.33,1.27-.66,2.56-1,3.86,3.44,1.21,7,2,10.47,3.18.86,1.22-.23,2.72-.36,4-7.37,25.8-14.49,51.68-21.84,77.5a129.41,129.41,0,0,1-13-3.53,31.74,31.74,0,0,0-1.49,4c11.3,3.26,22.64,6.37,34,9.57,7.61,1.92,15,4.72,22.78,6l.64-3.37a76.2,76.2,0,0,0-10.6-3.54c5.41-20.44,11.38-40.74,17.08-61.1,2.22-8.9,5.35-17.59,7-26.6-8.22-1.57-16.45-3.1-24.65-4.78C449.35,1036.16,443.09,1034.05,436.68,1032.49Zm287.67,3.6c-11,2.46-21.81,8.3-28.06,18-15.5,22.58-9.19,57.18,13.5,72.6a41.8,41.8,0,0,0,30.57,6.68c9.37-1.64,18.83-4.78,26.18-11a27.78,27.78,0,0,0,10.24-20.17,29.87,29.87,0,0,0-8.55-20.85c-5.29-5-12.42-8.56-19.85-8.1-9.43-.3-17.64,5.12-24.7,10.77-1.75-7.45-4.22-14.71-6-22.15-1.24-5.93-1.13-12.72,2.68-17.74,3.25-4.23,9.24-4.56,14.08-3.58-2.77,5.11-6.9,10.37-5.37,16.59.87,6.1,7.86,8.71,13.32,8.2,6.86-.49,14.62-4.69,15.55-12.14-.23-6-3.43-12-8.85-14.79C741.54,1034.38,732.52,1034.29,724.35,1036.09Zm-78.05,20c-13.29,2.17-26.7-.53-40-.32-.72,13.21-1,26.44-1.6,39.66,0,3.65-.72,7.47.74,11a30.69,30.69,0,0,0,5.93-3.36,24.42,24.42,0,0,1,19.88-3.94c4.58,1.13,7.29,5.48,8.24,9.84,2.27,9.42,3.22,19.51.87,29-2,9.28-15.42,12.72-22.07,6.43,1.88-1.25,3.83-2.4,5.61-3.81,7.44-6.08,6.13-20.19-3.09-23.84-4.28-.83-9-1.06-13.14.63-8.38,3.43-10.6,15-5.68,22.17,4.58,6.52,12.56,10.08,20.4,10.36,8.77.18,17.67.5,26.29-1.47,9.2-1.91,18.35-6.3,24-14,4.82-6.35,5.64-15.14,3.13-22.57-2.17-6.49-7.21-11.6-12.84-15.27-9.89-6.31-22.39-7-33.6-4.47-7.31,1.4-14.11,4.49-21,7.32.09-5.89.44-11.77.69-17.64,15,2.06,31.23,1.62,44.55-6.39,8.32-5,14.58-14.15,14.39-24.06a5.49,5.49,0,0,0-4.42-.09C657.88,1053,652.26,1055.2,646.3,1056.13Zm-127.65.28c-9,3.56-16.51,11.82-17.5,21.71-2.37,15,9.41,30.43,24.54,31.85,7.32,1.32,14.74-.77,20.94-4.66-.44,7.87-.92,15.77-1.88,23.61-.79,5.79-3.22,12.06-8.72,14.88-5.06,2.45-10.76.42-15.63-1.48,1.94-2.53,5.15-3.55,7.32-5.82a11.38,11.38,0,0,0-1.2-15.54,18.23,18.23,0,0,0-17.35-4c-5.35,1.24-8.06,7.14-8.37,12.18.06,6.94,5.94,11.94,11.6,15,7.91,4.38,17.13,5.07,26,5.41,9.22.13,18.68-2.55,25.86-8.48,10.34-8.26,16.58-21,17.93-34,1.61-12.59-.69-26-8.18-36.45a38.8,38.8,0,0,0-28.59-17C536.45,1052.88,527,1052.59,518.65,1056.41Z"/><path class="cls-2" d="M585.37,55.27c10.16.35,20.21,2.17,30.38,2.54,9.06,15.08,19,29.58,28.77,44.23,3.33,4.81,6.47,9.78,10.26,14.25,1.25-13,2.36-26.1,2.85-39.19-.06-3,.1-6.8-2.83-8.51-3.27-2-7.14-2.45-10.74-3.45.08-1.64.15-3.29.2-4.93,11.65.83,23.24,2.71,35,2.61,0,1.85,0,3.7-.15,5.55-3.75.29-8.55.06-10.77,3.73-1.34,2.83-1.62,6-2.11,9.05-2.74,20.69-4.68,41.49-6,62.31-4.65-.54-9.33-.79-14-1.13-13.58-21.88-27.07-43.84-41.33-65.28-1.64,14-2.58,28.05-3.55,42.09,0,3.49-.53,7.51,1.55,10.54,3.3,2.35,7.47,3,11.31,4.07a23.68,23.68,0,0,1,0,5.05c-5.95-.23-11.83-1.25-17.76-1.72-6.08-.61-12.2-.57-18.28-1.2.09-1.7.25-3.4.48-5.09,3.65-.52,7.78-.27,10.9-2.54,2.78-3.62,2.84-8.49,3.56-12.83,1.75-15.08,3.67-30.18,4.53-45.34,0-6.66-7.2-8.65-12.4-10.07C585.22,58.43,585.29,56.85,585.37,55.27Z"/><path class="cls-2" d="M503,64c11.56-1.55,23.07-3.4,34.49-5.74.26,1.59.52,3.17.77,4.76-4,1.88-9.86,3.63-9.63,9.1,1.65,23.16,6.55,45.94,10,68.85-4.18.42-8.25,1.43-12.39,2-1.34.37-2.27-.78-3.14-1.55-13.66-13.35-27.77-26.24-41.6-39.42-4.22-4-8.41-8-12.89-11.67,2.26,14.1,4.56,28.2,7.29,42.21.91,3.62,1.44,8.45,5.5,9.91,3.6.67,7.3.35,10.94.69.2,1.56.46,3.13.76,4.68-7.37,1.63-14.94,2.08-22.32,3.64-4.55.75-9,2.24-13.66,2.26-.05-1.61-.12-3.22-.24-4.83,2.85-1.12,5.87-2,8.4-3.75,3-2.4,2.29-6.71,2.09-10.06-1.64-15.26-4.16-30.4-6.52-45.56-.58-3.16-1.37-6.74-4.09-8.79-3.55-2.09-7.86-1.36-11.76-2.12-.09-1.63-.23-3.26-.38-4.88,9.32-1.13,18.57-2.7,27.82-4.32,2.52-.91,4,1.68,5.57,3.1,12.64,12,25.88,23.44,38.81,35.18,3.16,2.73,6.23,5.63,9.84,7.78-1.55-11.89-3.87-23.67-6.19-35.44-.93-3.57-1.32-8.14-4.91-10.12-3.94-1.25-8.18-.76-12.25-1C503.18,67.27,503.07,65.62,503,64Z"/><path class="cls-2" d="M700.45,67c12.82,4.12,25.74,8,38.76,11.42-.39,1.49-.75,3-1.07,4.5-2.88,0-5.81-.57-8.65,0-2.08.74-2.65,3.07-3.4,4.89-2.37,7-4.39,14.16-6.26,21.32,5.82,2.33,11.92,3.8,17.9,5.63,4.4,1.25,8.73,2.83,13.3,3.39,2.16-6.41,3.76-13,5.83-19.43.58-2.55,1.91-5.7-.05-8a37.68,37.68,0,0,0-7.5-4c.31-1.59.68-3.17,1.1-4.74a62.34,62.34,0,0,1,7.89,2.18c10.2,3.6,20.7,6.19,31.11,9.1A13.08,13.08,0,0,1,788.35,98c-3.05-.28-6.2-.79-9.21,0-2.46,2-3.13,5.21-4.09,8-4.52,14.85-8.79,29.77-13.1,44.67-.79,3.59-2.67,7.4-1.11,11,2.47,2.15,5.55,3.44,8.48,4.84-.27,1.4-.51,2.81-.65,4.24a11,11,0,0,1-4.65-.41c-7.81-2.74-15.79-5-23.73-7.3-4.18-1.26-8.59-1.83-12.53-3.75.39-1.35.74-2.72,1.06-4.09,3.93-.38,9.9,2,11.86-2.83,2.88-8.3,5.7-16.74,7.35-25.39-10.17-3.34-20.45-6.47-30.89-8.84-2.6,8.25-5.22,16.51-7.09,24.95-.73,5.19,5.87,6.33,9.07,8.87-.57,1.52-1.14,3-1.73,4.53-13.34-4.07-26.61-8.41-40.17-11.72a16.25,16.25,0,0,1,1.06-5c3.44.08,7.21,1.39,10.44-.34,2.26-2.08,2.93-5.24,4-8,4.71-15.4,9.13-30.89,13.71-46.34.59-2.76,2-5.88.56-8.58-2.33-2.3-5.55-3.39-8.19-5.28Q699.63,69.17,700.45,67Z"/><path class="cls-2" d="M378.15,75.84c1-1.81,2.47-4.73,5-3.81C390.41,74.37,397.59,77,405,79q-.3,2.44-.66,4.89c-6.52.4-13-.35-19.53-.2-4.61,3.67-8,8.62-12.76,12.19-1.78.6-4.42-1.54-3.3-3.38C371.79,86.9,375.42,81.62,378.15,75.84Z"/><path class="cls-2" d="M400.93,90.69c5.78-2.08,11.33-4.72,16.88-7.32a157.64,157.64,0,0,0,4.9,17.56,5.71,5.71,0,0,1-.08,4.3,28.94,28.94,0,0,0-4,.77c-2.49-2.94-4.14-6.73-7.45-8.89-2.31-1.52-5-.32-7.39.42-5.17,1.84-10.26,3.88-15.33,6-.19,4,1.77,7.69,3.14,11.38,2.07,5.08,3.73,10.32,6,15.3a98.48,98.48,0,0,0,17.1-6.61c3.57-2.2,1.24-7,1.1-10.31a12.18,12.18,0,0,1,6-1.94,181.88,181.88,0,0,0,8.89,25c-1.3,1.83-3.45,2.42-5.58,2.47-2-2.59-3.68-7.1-7.71-6.33-5.72,1.13-11.07,3.6-16.42,5.85,1.61,6.09,4.2,11.85,6.31,17.78,1,2.29,1.58,4.93,3.49,6.66,4.39,1.09,8.62-1.23,12.73-2.44,4.35-1.69,9.35-2.8,12.64-6.33,3-5.21,3.28-11.43,4-17.26l5.76-.19a112.27,112.27,0,0,1,1.5,19.72c.33,3.57-3.53,4.71-6.13,5.85-16.24,6.11-32.75,11.47-48.71,18.3-3.6,1.43-7.11,3.17-10.95,3.87a33.29,33.29,0,0,1-1.21-4.69,59.55,59.55,0,0,0,9.61-5.93c2-2,.9-5.06.2-7.37-5.77-16.31-12.25-32.35-18.45-48.49-1.19-2.58-2.21-6.18-5.46-6.71-3-.15-5.87.7-8.8,1.1-.53-1.39-1.1-2.76-1.71-4.12,2.92-1.9,6.35-2.7,9.57-3.94C377.32,99.91,389.07,95.15,400.93,90.69Z"/><path class="cls-2" d="M810.68,104.36c6.06,2.46,11.59,6,17.36,9.09,6.45,3.52,13.09,6.69,19.7,9.91q-1.07,2.34-2.33,4.57c-3.7-.62-8.77-4.33-11.58-.33-3.14,4.41-5.3,9.42-7.88,14.15-6.16,11.81-12.51,23.52-18.59,35.36-1.19,2.44-2.78,5.51-1.11,8.1,2,2.47,4.71,4.27,7.27,6.13a8.4,8.4,0,0,1-3,4.31c-12.25-7-24.75-13.46-37.38-19.7a23,23,0,0,1,2.27-4.55,49.81,49.81,0,0,0,8.81,2.44c2.63-.08,4-2.8,5.25-4.71,8.47-15.34,16.54-30.9,24.4-46.56.94-2.52,3.16-5.45,1.43-8.1-1.86-2.44-4.56-4-6.68-6.25C809.3,107,810,105.66,810.68,104.36Z"/><path class="cls-2" d="M325.66,124.36c4.15-2.24,7.9-5.25,12.34-7,.83,1.42,1.7,2.83,2.64,4.19-3.11,2.47-9.13,5.2-6.84,10.09,3.19,7.2,7.55,13.82,11.22,20.78,5.74,9.66,10.77,19.74,16.73,29.28,1.2,1.9,2.93,4.08,5.43,3.93,3.18-.47,6.15-1.83,9.23-2.75.57,1.46,1.17,2.91,1.82,4.34-7.57,4.84-15.85,8.49-23.53,13.17-4.72,2.64-9.13,5.9-14.19,7.9-.61-1.43-1.21-2.85-1.82-4.26,2.41-2.25,5.44-4,7.08-7,.34-3.39-1.74-6.36-3.16-9.27-7.91-14.36-15.81-28.72-24.12-42.86-1.48-2.23-3.09-5.22-6.08-5.44-3,.38-5.89,1.63-8.84,2.42-.7-1.47-1.37-2.95-2-4.45C309.6,133.11,317.79,129,325.66,124.36Z"/><path class="cls-2" d="M264.42,162.5c9.43-6.14,18-13.48,26.83-20.37a16.28,16.28,0,0,1,3.05,3.81c-2.3,3.06-5.29,6.11-5.36,10.18-.13,5.86,2,11.47,3.2,17.14,5.16,19.69,9.94,39.51,16.38,58.84a114.29,114.29,0,0,1-9.92,7.33c-14-9.37-28.86-17.47-43.21-26.33-7.81-4.24-15.17-9.48-23.59-12.47-4.07-1.39-7.8,1.26-11.51,2.48-2-.28-2.38-2.52-3.31-3.93,7.57-5.94,15.7-11.16,23.05-17.39,3.44-2.77,6.71-5.75,10.4-8.2,1,1.12,2.5,2,2.79,3.57-1,2.92-4.6,5.11-3.54,8.51,2.7,2.48,6,4.1,9.11,6.08,11.92,7.16,23.82,14.37,36,21.15-.55-5.6-2.59-10.9-3.92-16.33-2.84-9.66-5.61-19.35-9.15-28.78-.88-2.06-1.81-4.68-4.35-5.09-4,.52-7.26,3.05-10.95,4.4A21,21,0,0,1,264.42,162.5Z"/><path class="cls-2" d="M889.56,147.89a78.66,78.66,0,0,1,8.88,7.12c9.21,8.23,19.58,15.05,29,23,7.82,6.73,14.36,15.79,15.3,26.35,1.78,18.06-10.69,35.38-27,42.12-11.25,4.46-24.2,2.62-34.75-2.88-7.79-3.86-14.41-9.56-21.07-15.05-7.35-6.11-14.65-12.27-22-18.4.89-1.32,1.79-2.64,2.68-4,3.91,1.51,7.62,5.56,12.07,4.27,3.85-2.42,6.39-6.36,9.33-9.73,3.44-4.46,7.37-8.55,10.44-13.29-2.7-2.06-5.36-4.17-7.95-6.34q1.85-2,3.85-3.8a85,85,0,0,1,7.89,5.75c5.16-6.53,10.68-12.85,15.27-19.81,2.69-4.52-2.52-8.06-4.82-11.36C886.72,150.18,888.61,149.18,889.56,147.89Zm18.94,26.34c-5.88,6.85-11.38,14-17,21.06,4.78,4.67,10.81,7.88,15.38,12.76a50.59,50.59,0,0,1-4.3,3.6c-5.11-3.66-9.49-8.29-14.89-11.54-4.59,5.52-9.14,11.08-13.55,16.75-1.94,2.58-4.17,5.82-3,9.19,2.77,7.22,10.27,13,18.22,12.18,9.93-.78,18.47-7,24.71-14.42,6.94-7.47,11.75-17.36,11.64-27.71-.1-9-5.52-17.46-13.05-22.23C911.38,173,909.41,172.74,908.5,174.23Z"/><path class="cls-2" d="M453,186.82c91.29-30.67,192.91-29.64,283.51,3.06A433.57,433.57,0,0,1,999.08,455.44c31.59,90.9,31.59,192.45-.18,283.31a422.72,422.72,0,0,1-25.64,59.31c-1,1.88-2.08,3.7-3.22,5.49-4.27.4-8.5,1.13-12.74,1.72,5.39-10.67,11.35-21.06,16.19-32,37.79-81.47,48.09-175.17,29.64-263a422.09,422.09,0,0,0-227-291.95c-78-38.64-168.19-51.67-254-37.51-90.53,14.45-175.64,59.92-238.34,126.75-61.9,65.2-102,150.72-112.17,240.1C161.83,630.4,177,716.05,215.5,790c2.78,5.24,5.72,10.4,8.27,15.76-4.29-.91-8.62-1.69-13-2.21-7-11.75-12.62-24.25-18.08-36.76-36.15-84-44.29-179.67-23.33-268.67C190.3,407.3,242.08,324,313.85,264.6A430.45,430.45,0,0,1,453,186.82Z"/><path class="cls-2" d="M424.72,174.42c1.62-.43,3.52-.63,5,.42A11.53,11.53,0,0,1,432.46,185c-.62,4.48-5.58,5.92-9.18,7.31-5.4.59-9.23-5.15-9.43-10C415.85,178.07,420.32,175.5,424.72,174.42Z"/><path class="cls-2" d="M581.82,201.83a103.23,103.23,0,0,1,95.07,46.72,104.54,104.54,0,0,1,16.57,54.58c0,17.74-4.18,35.59-12.94,51.09-16.19,29.87-48.15,50.54-82.08,52.83-32,2.76-65-10.71-85.81-35.18-23.35-26.35-31.37-65.24-20.31-98.66,10.29-33.58,39.18-60.57,73.31-68.74A105.49,105.49,0,0,1,581.82,201.83Z"/><path class="cls-2" d="M170.38,251.16c3.79-5.07,7-10.51,11-15.44,1.37.78,2.69,1.64,4,2.53-1.51,3.63-5,8.64-1.13,12,10.82,8.65,22.37,16.34,33.47,24.62,5.61,3.5,10.41,8.47,16.66,10.81,4.05.05,6.33-4.28,9.32-6.49a17.68,17.68,0,0,1,3.84,3.12c-8.09,11.13-16.41,22.12-24.24,33.45-1.31-.64-2.62-1.25-3.94-1.85.11-4.06,5.17-8.61,1.35-12.14a202.12,202.12,0,0,0-21.34-15.8c-6.65,8.48-13,17.19-19,26.18,7,5.34,14.1,10.64,21.55,15.33,4.5,2,7.23-3.29,10.54-5.3,2-.25,3,1.73,4.13,3-7.68,10.1-15.49,20.13-22.44,30.77a23.17,23.17,0,0,1-2.71,3.07c-1-1-2.58-1.57-3-3,.25-3.4,3.39-6.29,2.52-9.83-1.05-2.64-3.48-4.34-5.62-6.05-10.73-7.95-21.55-15.78-32.36-23.61-4.7-3.33-9.14-7.25-14.65-9.18-2.78,1.65-5,4-7.36,6.16-2.05.7-3.13-1.93-4.3-3.12,8.49-10.29,16.1-21.25,23.67-32.21a28,28,0,0,1,4,2.9c-1.41,3.36-5,8.14-1.1,11.13,6.1,5.11,12.65,9.66,19.17,14.23,4.35-3.81,7.17-9,10.7-13.45,3-4.19,6.34-8.12,8.62-12.75-5.54-4.34-11.42-8.21-17-12.44-1.95-1.33-4.36-3.07-6.82-2.09-2.23,1.4-3.94,3.46-6,5.05-2,.87-3.2-1.26-4.29-2.5C161.68,262.39,166.35,257,170.38,251.16Z"/><path class="cls-2" d="M1001.62,236.06c4,.19,8,1.28,12,2,4.42.87,9,1.16,13.25,2.61,1.08,8.36.47,16.83,1,25.24a26.13,26.13,0,0,1-5.21.34c-2-5.85-3.77-11.81-5.8-17.66-5.14-3.45-11.19-5.41-16.51-8.62C1000.75,238.64,1001.18,237.35,1001.62,236.06Z"/><path class="cls-2" d="M970.83,238.76c10.73-1.08,21.13,2.86,30.21,8.2,4.92,4.93,10.27,9.6,13.82,15.69,5.79,9.12,8.13,20.61,5.21,31.13-3.78,13.53-14.62,24.3-27.35,29.74a39.61,39.61,0,0,1-30,.19c-10.18-3.78-18.33-11.76-24.08-20.79-5.29-8.12-7.93-18.14-6.26-27.76,2.21-12.45,10.54-23.26,21.07-30A38.24,38.24,0,0,1,970.83,238.76Zm12,13.84a37.93,37.93,0,0,0-9.29,4.59c-9.37,6.11-17.71,14.22-22.84,24.26-2.63,5.45-4.57,11.58-3.48,17.68,1.11,7.23,6.81,14.35,14.53,14.74s14.59-3.55,20.64-7.75c6.26-4.67,12.35-9.78,16.86-16.22,4.11-5.85,8-12.39,8.06-19.77.35-7.22-4.11-14.21-10.49-17.42C992.37,250.78,987.28,251.09,982.8,252.6Z"/><path class="cls-2" d="M1033.49,245.91c4.23-1,8,1.71,11.62,3.52a131.73,131.73,0,0,1-4.81,19.66l-4,0C1034.52,261.49,1034,253.66,1033.49,245.91Z"/><path class="cls-2" d="M1047.56,316.43c1.55-.6,3.1-1.2,4.67-1.78,4.28,9.18,8.8,18.24,13.23,27.34-5.91,10.76-10.78,22.05-16,33.13-4.37,10-9.69,19.7-13.22,30.08,5.25-1.74,9.86-4.9,14.88-7.16,7.83-4.18,16-7.81,23.35-12.86,4.65-3.66.83-9.62.14-14.21-.73-2.41,2.43-2.68,3.92-3.43,4.49,8.72,8.19,17.86,13.2,26.32a24.87,24.87,0,0,1,2.35,5.6c-1.54.5-3,1-4.55,1.57-2.52-3.19-5.29-7.95-10.11-6.67a199.65,199.65,0,0,0-22.09,9.3c-14,6.72-28,13.39-41.58,20.83-2-4.19-4.15-8.29-6.34-12.37,11.23-23.11,23-46,33.84-69.28-11.5,4.82-22.37,11-33.55,16.52-4.2,2.3-9,4.21-11.91,8.18-1.18,4.64,1.63,8.94,1.9,13.51a24.5,24.5,0,0,1-4.82,1c-4.35-11-10.31-21.23-15.48-31.83a49.45,49.45,0,0,1,4.58-2c2,2.71,3.92,5.71,6.81,7.58a12.65,12.65,0,0,0,6.17-.25q15.74-6.45,31-14c1.19-.51,1.84-1.7,2.83-2.48,5.73-.71,10.77-4,15.62-6.92C1051.43,328.3,1048.55,321.49,1047.56,316.43Z"/><path class="cls-2" d="M114,328.23A11.58,11.58,0,0,1,118.7,330c-.6,3.19-1.61,6.48-1,9.74,1.22,2.71,4.14,4.05,6.57,5.51,19.2,10.19,38.89,19.41,58.76,28.2-2,4-3.47,8.16-5.49,12.1-3,1.83-6.72,1.74-10,2.63-16.87,3.79-33.91,7-50.66,11.31l.94,1.44-2.27-1.37c-4.47,1.07-9.09,1.57-13.38,3.3,12.14,6.31,24.77,11.62,37.23,17.26,3.45,1.46,7.12,3.4,11,2.54,3.76-2.13,5.62-6.25,8.23-9.51a10.38,10.38,0,0,1,3.95,2.09c.3,1.9-1.18,3.56-1.84,5.28-4.8,8.9-8.68,18.24-12.71,27.5l-4.58-2c.52-3.12,1.71-6.17,1.68-9.36-.18-3.51-3.76-5.24-6.34-6.93-13.93-7.68-28.41-14.31-42.71-21.25-3.11-1.49-7-2.73-10.17-.76-2.66,2.1-4.53,5-6.63,7.61a16.43,16.43,0,0,1-4.62-1.92c3.21-7.61,7.4-14.76,10.51-22.42.81-1.74,1.36-3.69,2.69-5.12,20.48-3.94,40.65-9.38,60.9-14.34a39.57,39.57,0,0,0,6.89-2.23c-11.44-5.49-22.94-10.91-34.72-15.65-3.12-1-6.82-3.07-9.88-.83s-4.83,6-7,9.08c-1.44-.53-2.88-1-4.35-1.45.8-4.54,3.79-8.23,5.59-12.38C108.22,341.48,111.38,335,114,328.23Z"/><path class="cls-2" d="M487.53,428.35c48.52-17.2,101.61-22.47,152.3-12.73,64.28,12.3,123.06,48,166.38,96.66,36.78,41.11,63.32,92.1,72.18,146.79,4.48,28.82,3.15,58.24-1,87-4.07,25.17-11.14,49.95-22.06,73a252.81,252.81,0,0,1-65.52,85.45c-22.27,19.11-47.59,34.44-74.17,46.76-6.68,2.58-14,2.85-20.76,5.13-1-12.41-.26-24.88-.5-37.32q.11-27.66-.23-55.32a202.55,202.55,0,0,0,65.14-50.76C764.53,806.46,770,800,774,792.53c17.34-28.92,25.11-62.86,25.2-96.39A199.66,199.66,0,0,0,761.91,578.6c-6.45-.15-12.89-.07-19.33-.09,18.25,23.07,31.48,50.26,37.29,79.16A185.64,185.64,0,0,1,770,764.9a6.1,6.1,0,0,1-2-3.24c-13.77-55.58-55.71-103.08-108.8-124.31a184,184,0,0,0-42-11.54c6.59-3.8,13.26-7.69,18.61-13.2,12.74-12.2,19.55-29.93,19.33-47.46-.67-15.58-6.5-31.18-17.42-42.48a63.92,63.92,0,0,0-36.24-19.8,66.18,66.18,0,0,0-46.76,9.66c-11.35,7.74-20.59,18.8-25.13,31.85a64.45,64.45,0,0,0,7.48,59c6.57,9.68,16,17,26.25,22.43-50.77,7-97.67,36.77-126.09,79.35-8.23,12.42-15.53,25.65-20.08,39.9,46.92.36,93.86-.23,140.79.29,0,28.21,0,56.42,0,84.63-6.52.65-13.07.2-19.6.23h-91c-13.6.19-27.22-.41-40.8.33-20.39.49-40.81,0-61.21.24a87.38,87.38,0,0,1-13.62-.89,278.29,278.29,0,0,1-7.18-255.61,284.52,284.52,0,0,1,71.91-93A293.71,293.71,0,0,1,487.53,428.35ZM393.67,619.43c-16.29,39.38-19.14,84-8.66,125.24,5.4.34,10.82.16,16.23.15-12.81-45.55-7.36-96,15.29-137.53,5.2-10.12,12.13-19.17,18.43-28.59-6.2-.32-12.41-.23-18.62-.15C407,591.09,399.68,605,393.67,619.43Z"/><path class="cls-2" d="M1065.73,431.55c10.84-2.17,22.67-.1,31.55,6.69,8.6,6.94,14.61,16.72,17.83,27.23,3.78,10.64,4.59,21.95,5.92,33.07a151.93,151.93,0,0,0-23.87,4.19,17.36,17.36,0,0,1-2.21-5.56c5.59-2.72,12.57-5.14,14.82-11.57a30.32,30.32,0,0,0-4.42-26.46c-4.9-6.36-13.33-8.46-21-8.1-11.19.71-22.36,4.06-31.62,10.46-6.82,4.87-12.56,12.21-13.19,20.83-.24,4.56.09,9.75,3.34,13.29,3.61,1.59,7.54.07,11.15-.77,3.87-1.24,8.36-1.73,11.36-4.74,1.7-4.12-.23-8.68,0-13,1.59-.36,3.19-.7,4.8-1,3.77,13,6.61,26.37,10.85,39.3a11.47,11.47,0,0,1-5.06,1.46,32.42,32.42,0,0,0-3.19-5.27c-1.86-1.36-4.18-.63-6.19-.16-3.92,1-7.86,1.92-11.71,3.12-2.6.61-4,3.05-5.64,5-3.34.11-4.16-3.41-5.61-5.69-7.43-13.34-13-28.21-12.79-43.67,0-9.62,3.33-19.45,10.24-26.32C1047.8,437.32,1056.68,433.46,1065.73,431.55Z"/><path class="cls-2" d="M66.87,440.44c6.62,2.77,13.56,4.57,20.31,7-.31,1.76-.64,3.51-1,5.27-3.81.08-7.75-.37-11.43.85-2.31.72-3,3.23-3.73,5.26-1.76,5.73-2.94,11.61-4.12,17.48,4,2.5,8.89,2.91,13.38,4.14,4.67,1,9.22,2.68,14,2.83,1.59-6.53,4-13,3.92-19.82a68.76,68.76,0,0,0-7.85-4.63c.41-1.87.85-3.73,1.29-5.59,8.8,2.24,17.46,5.11,26.48,6.48a26.74,26.74,0,0,1-.74,5.76c-3.57.47-8.78-.91-10.52,3.29a113.65,113.65,0,0,0-4.25,16.66c6.87,2.41,14.08,3.64,21.12,5.46,2.48.82,6.21.66,6.88-2.44,2.22-7,4.85-14,5.26-21.31-1.47-6.6-7.68-10.56-12.31-15q1.41-2.44,3-4.78A94.39,94.39,0,0,1,144,457.5c3,1.76,1.53,5.57,1,8.27-5.33,20.38-10.72,40.74-14.91,61.39-1.67-.32-3.35-.63-5-.9.1-3.72.72-7.42.54-11.14a4.42,4.42,0,0,0-2.76-3.69c-4.64-2.17-9.75-3.05-14.69-4.31-12.85-3.05-25.67-6.23-38.54-9.22a21.36,21.36,0,0,0-8.72-.29,52.33,52.33,0,0,0-4,8.41,15.56,15.56,0,0,1-5.07-.77c2.14-9.58,5-19,7.18-28.53C61.76,464.66,65.2,452.72,66.87,440.44Z"/><path class="cls-2" d="M36.6,463.56c6.62-4.94,13-10.2,19.78-14.93,1.11,1.1,2.18,2.25,3.19,3.45-3.22,5.42-7.43,10.16-10.91,15.4,0,6.26,2.56,12.31,2.69,18.62a21.87,21.87,0,0,1-4.46.95c-2.55-6.39-5.68-12.52-8.79-18.65A17.44,17.44,0,0,1,36.6,463.56Z"/><path class="cls-2" d="M147.07,483.86c1.18-2,4-1.44,5.89-1.22,4.72.58,9.12,5.29,7.95,10.21-.37,2.92-1,6.46-4.14,7.67-3.45,2.07-7.61.77-10.93-.88C144,494.54,144,488.49,147.07,483.86Z"/><path class="cls-2" d="M91.17,535c6.3-4.41,14.93-3.55,21.4,0,6.31,3.57,9.94,10.36,11.93,17.1,2.29,8.47,1.79,17.37,1,26q-1.87,16.53-3.51,33.08c-1.7,0-3.4-.07-5.1-.17-.42-3.76.16-8-2-11.28-3.18-2.4-7.46-2.23-11.23-2.77-14.73-1.34-29.45-2.68-44.19-3.79-3.15-.21-6.43-.54-9.46.53-2.42,2.55-2.92,6.33-3.83,9.61-1.54-.08-3.07-.2-4.6-.34-.06-6.65,1.32-13.19,1.66-19.81.87-8.51,1-17.08,1.89-25.59.78-6.42,2.17-13.22,6.54-18.23,6.06-6.51,17.38-6.13,23.5.08,3,3,4.38,7.15,6,11C83.46,544.72,86,538.64,91.17,535Zm.29,21.26c-5.87,4.57-7.34,12.57-7,19.6,7.68.9,15.39,1.52,23.1,2.07,3,0,6.59.74,9.07-1.51,3.73-3.42,4.39-9.09,3.13-13.77-1.77-5.35-7.38-8.09-12.55-9.08C101.89,552.91,95.85,552.63,91.46,556.22ZM54.21,558c-3.51,3.93-4.26,9.58-3.41,14.63A227.64,227.64,0,0,0,77.63,575a72.9,72.9,0,0,0,1-12.94c0-4.05-3.56-7.22-7.31-8.05C65.5,552.55,58.41,553.27,54.21,558Z"/><path class="cls-2" d="M1049.2,565.9c1.62.06,3.27.13,4.92.22.62,3.36.59,7,2.18,10.09,1.6,2.77,5.22,2.53,8,2.71,14.7,0,29.42,0,44.12-.55,2.33-.34,5.59,0,6.81-2.54,1.19-2.77,1.1-5.88,1.52-8.81,1.66.07,3.34.19,5,.36a102.7,102.7,0,0,0,6.11,24.28,19.87,19.87,0,0,1,1.46,6.24c-14-.34-27.95-.24-41.92.15-9.17.61-18.49-.32-27.54,1.49-5.08,1.27-4.1,7.66-4.94,11.63-1.71-.1-3.41-.26-5.09-.45-.29-7.86.09-15.72,0-23.59C1049.8,580.05,1048.94,573,1049.2,565.9Z"/><path class="cls-2" d="M541.69,1057.36c2-.87,4.34.27,5.46,2,2,2.48,1.48,5.8,1.33,8.74-.78,9-1.34,18-2.08,27-.12,4-3.57,8.34-7.95,7.36-3.67-1.72-3.69-6.35-3.38-9.81,1-9.49,1.06-19.07,2.36-28.54C537.91,1061.5,538.83,1058.23,541.69,1057.36Z"/><path class="cls-2" d="M729.76,1085.44c4.19-1.46,8.11,2.4,9,6.3l7,25.93c1.06,3.9,1.3,8.94-2.13,11.77-3.77,1.84-6.81-2.35-8.26-5.29-2.64-6.45-4-13.34-6-20-1.07-4.28-2.92-8.46-2.86-12.93C726.76,1089,727.61,1086.44,729.76,1085.44Z"/><path class="cls-3" d="M554.78,512.53a66.18,66.18,0,0,1,46.76-9.66,63.92,63.92,0,0,1,36.24,19.8c10.92,11.3,16.75,26.9,17.42,42.48.22,17.53-6.59,35.26-19.33,47.46-5.35,5.51-12,9.4-18.61,13.2a184,184,0,0,1,42,11.54c53.09,21.23,95,68.73,108.8,124.31a6.1,6.1,0,0,0,2,3.24c-.43,3.91.33,7.8,1,11.65.93,5.34,1.38,10.8,3.08,16-4,7.45-9.51,13.93-14.76,20.52a202.55,202.55,0,0,1-65.14,50.76q.3,27.65.23,55.32c.24,12.44-.54,24.91.5,37.32a158.33,158.33,0,0,0-30.08,11.25c-5.65,2.81-10.88,6.36-16.47,9.26-.7-23.59.1-47.21-.36-70.81-10.59,3.74-21.13,7.91-32.33,9.51-8,1.88-16.14,2.14-24.25,2.67-18.86-.35-38-3.25-55.31-10.89-2-.84-4.09-1.5-6.16-2.14-.25,23.16.27,46.33-.26,69.48-4.41-1-7.94-4-12-5.86a171.5,171.5,0,0,0-25.45-10.57c-4.72-1.57-9.9-2.09-14.14-4.88a183.77,183.77,0,0,1-67.82-107.25c-1.14-5.25-1.37-10.78-3.68-15.7,13.58-.74,27.2-.14,40.8-.33h91c6.53,0,13.08.42,19.6-.23.08-28.21,0-56.42,0-84.63-46.93-.52-93.87.07-140.79-.29,4.55-14.25,11.85-27.48,20.08-39.9,28.42-42.58,75.32-72.33,126.09-79.35-10.3-5.38-19.68-12.75-26.25-22.43a64.45,64.45,0,0,1-7.48-59C534.19,531.33,543.43,520.27,554.78,512.53Z"/></g></g></svg>