<?xml version="1.0" encoding="utf-8"?>
<!-- Generator: Adobe Illustrator 24.2.0, SVG Export Plug-In . SVG Version: 6.00 Build 0)  -->
<svg version="1.1" id="Layer_1" xmlns="http://www.w3.org/2000/svg" xmlns:xlink="http://www.w3.org/1999/xlink" x="0px" y="0px"
	 viewBox="0 0 135 100" style="enable-background:new 0 0 135 100;" xml:space="preserve">
<style type="text/css">
	.st0{fill:#F7DF7F;}
	.st1{fill:#0969B1;}
	.st2{fill-rule:evenodd;clip-rule:evenodd;fill:#DD2528;}
</style>
<g id="Layer_2_00000078724206315867699010000012793363535821160334_">
	<g id="Layer_1-2">
		<path class="st0" d="M-20,50c0,18.3-14.8,33.2-33.2,33.2S-86.3,68.3-86.3,50c0-18.3,14.8-33.2,33.2-33.2c0,0,0,0,0,0
			C-34.9,16.8-20,31.7-20,50"/>
		<path class="st1" d="M-40.3,56.4c-4.6-2-3.8-6-3.7-6.5c1.3-4.6,7-10.1,13.6-12.7c-5.4-3.9-10.8,0.4-10.8,0.4s1-1.3,5-3
			c-4,0.4-7.6,2.3-10.1,5.5c-3.1,4-1.8,9.4-0.4,12.9c-3-2.3-5.1-5.4-7.6-10.7c-5.6-13-24.7-8.1-24.7-8.1S-68.3,34.6-64,43
			c6.4,12.5,14.3,13.3,14.3,13.3c-8.5-0.6-9.5,5.5-9.5,5.5c1.7-0.5,3.4-0.6,5.1-0.4c7.4,1.3,13.8-3.7,14.7-4.6l0,0l0.1-0.1
			L-40.3,56.4"/>
		<path class="st2" d="M-50.9,68.4L-50.9,68.4c-0.2,0.3-0.2,0.5-0.3,0.8h0.5C-50.7,69-50.8,68.7-50.9,68.4z M-59.8,67.6
			c-0.1,0-0.3-0.1-0.3,0.2c0,0.6,0,1.3,0,1.9c0,0.1,0.1,0.2,0.1,0.2c0.6,0,1-0.1,1.2-0.7c0-0.2,0-0.5,0-0.7
			C-58.8,68-59.2,67.6-59.8,67.6C-59.7,67.6-59.8,67.6-59.8,67.6z M-47.6,71.3V68c0-0.4,0-0.4-0.4-0.4h-1v-1.3h4.4v1.3
			c-0.3,0-0.7,0-1,0s-0.3,0.1-0.3,0.3c0,1,0,2,0,3.1v0.3L-47.6,71.3z M-63.6,68h1.4v1.3h-1.4v0.5h1.4v1.4H-65c0-0.1,0-0.2,0-0.2
			c0-1.5,0-3,0-4.6c0-0.2,0.1-0.3,0.3-0.3h2.4c0.2,0,0.3,0,0.3,0.3c0,0.3,0,0.7,0,1.1h-1.1C-63.6,67.6-63.6,67.6-63.6,68z
			 M-48.4,71.3c-0.5,0-1,0-1.5,0c-0.1,0-0.2-0.1-0.2-0.2c-0.2-0.6-0.2-0.6-0.8-0.6h-0.1c-0.2,0-0.5-0.1-0.7,0s-0.2,0.4-0.3,0.6
			c0,0.1-0.1,0.1-0.2,0.1c-0.5,0-1,0-1.5,0c0.1-0.2,0.1-0.3,0.2-0.5l1.7-4.3c0-0.2,0.2-0.3,0.4-0.3c0.2,0,0.5,0,0.7,0
			c0.1,0,0.2,0.1,0.3,0.2c0.6,1.6,1.3,3.2,1.9,4.8C-48.4,71.2-48.4,71.2-48.4,71.3z M-44,71.3c0-0.1,0-0.2,0-0.3c0-1.5,0-3,0-4.5
			c0-0.2,0.1-0.3,0.3-0.3c0.8,0,1.5,0,2.3,0c0.2,0,0.3,0.1,0.3,0.3c0,0.3,0,0.5,0,0.8c0,0.2-0.1,0.3-0.3,0.3c-0.2,0-0.6,0-0.9,0
			c-0.2,0-0.2,0-0.3,0.2s0.1,0.2,0.3,0.2s0.6,0,0.9,0s0.3,0.1,0.3,0.3s0,0.6,0,0.9c0,0.3-0.1,0.3-0.3,0.2c-0.4,0-0.7,0-1.1,0
			c-0.1,0.4-0.1,0.5,0.3,0.5s0.6,0,0.9,0s0.2,0.1,0.2,0.2c0,0.3,0,0.7,0,1c0,0.1,0,0.2-0.2,0.2L-44,71.3z M-53.9,69.8v1.4H-54h-2.5
			c-0.2,0-0.2-0.1-0.2-0.2v-4.6c0-0.2,0.1-0.3,0.3-0.2h1c0.2,0,0.2,0.1,0.2,0.3c0,1,0,2.1,0,3.1c0,0.3,0.1,0.3,0.3,0.3
			C-54.7,69.9-54.3,69.8-53.9,69.8z M-61.6,71.3v-4.8c0-0.1,0-0.2,0.2-0.2c0.8,0,1.6,0,2.3,0.1c1,0.2,1.8,1,1.8,2.1
			c0,0.5,0,1-0.2,1.5c-0.3,0.8-1.1,1.4-2,1.4C-60.1,71.3-60.8,71.3-61.6,71.3L-61.6,71.3z M-35.6,68.3H-37c-0.1,0-0.1-0.1-0.2-0.2
			c-0.2-0.5-0.7-0.8-1.2-0.6c-0.5,0.1-0.8,0.6-0.8,1.1c0,0.2,0,0.5,0.2,0.7c0.2,0.5,0.8,0.7,1.3,0.5c0.2-0.1,0.4-0.3,0.5-0.5
			c0.1-0.2,0.3-0.3,0.4-0.2c0.4,0,0.8,0,1.2,0c0.1,0.9-1,2-2.2,2.1c-1.4,0.2-2.7-0.8-2.9-2.3c0,0,0-0.1,0-0.1
			c-0.1-1.4,1-2.6,2.4-2.7C-37,66-35.8,67-35.6,68.3L-35.6,68.3z M-68.3,68.8l0.1-0.3c0.2-0.7,0.4-1.4,0.6-2.1
			c0-0.2,0.1-0.3,0.4-0.3c0.4,0,0.9,0,1.3,0c0.1,0,0.2,0,0.2,0.2c0,1.6,0,3.2,0,4.7c0,0,0,0.1,0,0.1H-67v-2.3h0l-0.1,0.3
			c-0.2,0.6-0.3,1.2-0.5,1.8c0,0.2-0.1,0.3-0.3,0.2c-0.2,0-0.6,0.1-0.8-0.1c-0.2-0.1-0.2-0.5-0.3-0.7c-0.1-0.5-0.3-1-0.4-1.5
			c0-0.1,0-0.1-0.1-0.1v2.3h-1.4c0-0.1,0-0.2,0-0.2c0-1.5,0-3,0-4.5c0-0.2,0.1-0.3,0.3-0.3c0.4,0,0.8,0,1.3,0c0.2,0,0.3,0.1,0.3,0.3
			c0.2,0.7,0.4,1.4,0.6,2.1C-68.3,68.6-68.3,68.7-68.3,68.8z"/>
	</g>
</g>
<g id="Layer_2_00000032641333639382396840000006186041752417977011_">
	<g id="Layer_1-2_1_">
		<path class="st1" d="M53.1,78.7c0.1-0.2,0.2-0.5,0.3-0.8c0.1,0,0.2,0,0.3,0c0.1,0,0.2,0.1,0.3,0.1c0.1,0.1,0.1,0.2,0.1,0.3
			L54,78.6l-0.1,0.1L53.7,79c-0.1,0.1-0.1,0.2-0.2,0.3l-0.3,0.3c-0.1,0.1-0.2,0.2-0.3,0.2L52.6,80c-0.3,0.2-0.6,0.4-0.9,0.6
			c-0.3,0.2-0.6,0.3-0.8,0.4c-0.2,0.1-0.3,0.1-0.4,0.1s-0.1-0.2,0.1-0.3s0.4-0.2,0.7-0.4l0.4-0.2l0.8-0.7l0.3-0.3L53.1,78.7z M94,81
			L94,81l0.1,0.1L94,81z M106,82.7c-0.2,0-0.4-0.1-0.4-0.2c0-0.3,0.1-0.5,0.3-0.7c0.2-0.2,0.5-0.4,0.8-0.5l0.4-0.2l0.3-0.1
			c0.1,0,0.2,0,0.3,0c0.1,0,0.2,0,0.3,0c0.2,0,0.3,0.1,0.5,0.2c0.1,0.1,0.3,0.2,0.4,0.2c0.1,0.1,0.3,0.2,0.4,0.3l0.4,0.4
			c0.1,0.2,0.2,0.3,0.3,0.5v0.2v0.1l-0.4-0.5l-0.3-0.3c-0.4-0.3-0.8-0.5-1.3-0.6c-0.2,0-0.5,0-0.7,0.1l-0.4,0.3
			c-0.1,0.1-0.2,0.2-0.3,0.4l-0.2,0.3l-0.1,0.1L106,82.7z M78.6,81h0.1c0.1,0,0.2,0,0.3,0l0.5,0.2l0.4,0.2c0.1,0.1,0.3,0.2,0.4,0.3
			c0.2,0.1,0.3,0.3,0.4,0.4c0.1,0.2,0.2,0.3,0.3,0.5v0.2v0.1l-0.3-0.3l0,0v0.2v0.1l-0.4-0.4L80,82.1c-0.4-0.3-0.8-0.5-1.3-0.6
			c-0.2,0-0.3,0-0.5,0.1l-0.4,0.3c-0.1,0.1-0.2,0.2-0.3,0.4l-0.2,0.3l-0.1,0.1h-0.2h-0.2c-0.1,0-0.2,0-0.3,0
			c-0.1-0.1-0.1-0.1-0.2-0.2c0-0.3,0.1-0.5,0.3-0.7c0.2-0.2,0.5-0.4,0.8-0.5l0.4-0.2l0.3-0.1c0.1,0,0.2,0,0.3,0L78.6,81z M15.6,82.8
			c0-0.1,0-0.3,0.1-0.4c0.1-0.1,0.2-0.2,0.3-0.3c0-0.2,0.2-0.3,0.5-0.3h0.1c0.1,0,0.1,0.1,0.2,0.1c0,0.2,0,0.4-0.1,0.6
			c0,0.2-0.1,0.3-0.2,0.4l-0.3,0.2h-0.2c-0.1,0-0.2,0-0.3-0.1l0,0C15.6,83,15.6,82.9,15.6,82.8L15.6,82.8z M22.1,82.2l0.1-0.2
			c0-0.1,0.1-0.2,0.1-0.3c0.1-0.1,0.1-0.3,0.1-0.4l0.1-0.3l0.2-1.1l0.1-0.7c0-0.1,0-0.3,0-0.4l0-0.4l-0.2,0.3l-0.1,0.2
			c-0.1,0.1-0.1,0.2-0.1,0.3l-0.1,0.3l-0.2,0.6c0,0.1-0.1,0.3-0.1,0.6c0,0.1,0,0.2-0.1,0.3c0,0.1,0,0.2,0,0.3c0,0.2,0,0.3-0.1,0.5
			c0,0.3-0.1,0.4-0.1,0.5l-0.1,1l-0.1,0.6l0.3-0.6l0.2-0.4L22.1,82.2z M103.4,82.2c0,0,0-0.1,0.1-0.2s0.1-0.2,0.1-0.3
			c0.1-0.1,0.1-0.3,0.1-0.4l0.1-0.3l0.2-1.1l0.1-0.7c0-0.1,0-0.3,0-0.4v-0.4l-0.2,0.3l-0.1,0.2c-0.1,0.1-0.1,0.2-0.1,0.3l-0.1,0.3
			l-0.2,0.6l-0.2,0.6c0,0.1-0.1,0.2-0.1,0.3c0,0.1,0,0.2,0,0.3c0,0.2,0,0.3-0.1,0.5c0,0.2-0.1,0.3-0.1,0.5l-0.1,1l-0.1,0.6l0.3-0.6
			l0.2-0.4L103.4,82.2z M107.4,83.5c-0.3,0-0.5,0.2-0.6,0.4c-0.1,0.2-0.2,0.4-0.3,0.7c0.1,0.1,0.2,0.1,0.3,0.1
			c0.2,0,0.3-0.1,0.4-0.3c0.1-0.1,0.2-0.2,0.3-0.3c0.1-0.1,0.1-0.2,0.1-0.4C107.5,83.6,107.5,83.5,107.4,83.5z M62,84.9L62,84.9
			c-0.2,0-0.4,0-0.6,0.1h-0.6h-0.2c-0.1,0-0.2,0-0.2-0.1c0-0.2,0.1-0.3,0.2-0.5c0.1-0.1,0.2-0.1,0.3-0.2h1.5c0.1,0,0.2,0.1,0.2,0.3
			S62.5,85,62.2,85h-0.1L62,84.9z M52,85.4c0-0.1,0.1-0.2,0.1-0.3v-0.2c0-0.2-0.1-0.4-0.3-0.4c-0.1,0-0.1,0-0.2,0l-0.2,0.2
			c-0.1,0.2-0.2,0.2-0.3,0.2c-0.1,0.2-0.2,0.5-0.2,0.7v0.1c0,0.2,0.1,0.3,0.2,0.3C51.4,85.9,51.8,85.7,52,85.4z M131.8,85.4
			c0,0,0-0.1,0.1-0.3v-0.2c0-0.2-0.1-0.4-0.3-0.4c-0.1,0-0.1,0-0.2,0l-0.2,0.2c-0.1,0.2-0.2,0.2-0.3,0.2c-0.1,0.2-0.2,0.5-0.2,0.7
			v0.1c0,0.2,0.1,0.3,0.2,0.3C131.2,85.9,131.5,85.7,131.8,85.4z M78.9,85.4c0-0.1,0.1-0.2,0.1-0.3v-0.2c0-0.2-0.1-0.4-0.3-0.4
			c-0.1,0-0.1,0-0.2,0l-0.2,0.2c-0.1,0.2-0.2,0.2-0.3,0.2c-0.1,0.2-0.2,0.5-0.2,0.7v0.1c0,0.2,0.1,0.3,0.2,0.3
			C78.3,85.9,78.7,85.7,78.9,85.4z M50.4,86.6c-0.2-0.1-0.3-0.2-0.4-0.4c0,0,0-0.1,0-0.1v-0.7c-0.1,0-0.2,0.1-0.3,0.2
			c-0.1,0.1-0.2,0.2-0.3,0.2v-0.1c0-0.1,0-0.2,0-0.3l0,0l0,0v-0.3c0.1-0.2,0.2-0.3,0.4-0.5l0.5-0.5c0-0.1,0.1-0.2,0.2-0.3l0.6-0.6
			h0.1c0.2,0,0.3,0,0.3,0.1v0.1v0.2c0.1,0,0.2,0,0.3-0.1l0.3-0.1c0.2,0,0.5,0.1,0.6,0.3l0.1,0.1l0.1,0.3c0,0.1,0,0.2,0,0.3
			c0,0.2,0,0.4-0.1,0.6l-0.1,0.2l-0.1,0.3l-0.2,0.2l-0.1,0.1l-0.4,0.4l-0.3,0.2c-0.2,0.1-0.4,0.2-0.6,0.2
			C50.7,86.7,50.5,86.7,50.4,86.6z M77.3,86.6c-0.2-0.1-0.3-0.2-0.4-0.4c0,0,0-0.1,0-0.1v-0.7c-0.1,0-0.2,0.1-0.3,0.2
			c-0.1,0.1-0.2,0.2-0.3,0.2v-0.1c0-0.1,0-0.2,0-0.3l0,0l0,0l-0.1-0.3c0.1-0.2,0.2-0.3,0.4-0.5l0.6-0.5c0-0.1,0.1-0.2,0.2-0.3
			l0.6-0.6h0.1c0.2,0,0.3,0,0.3,0.1v0.1v0.2c0.1,0,0.2,0,0.3-0.1l0.3-0.1c0.2,0,0.5,0.1,0.6,0.3l0.1,0.1l0.1,0.3c0,0.1,0,0.2,0,0.3
			c0,0.2,0,0.4-0.1,0.6l-0.1,0.2l-0.1,0.3l-0.2,0.2l-0.1,0.1l-0.4,0.4l-0.3,0.2c-0.2,0.1-0.4,0.2-0.6,0.2
			C77.6,86.7,77.4,86.7,77.3,86.6z M33.2,85.8L33.2,85.8l0-0.2c0-0.1,0-0.2,0.2-0.3c0.2-0.1,0.4-0.3,0.6-0.5l0.3-0.3l0.3-0.3
			l0.4-0.6c0.2-0.1,0.4-0.2,0.7-0.2c0.1,0,0.1,0,0.1,0.1c0,0.2,0,0.5-0.2,0.7c-0.1,0.3-0.2,0.5-0.2,0.8v0.1v0.2v0.2
			c0,0.2,0.1,0.4,0.3,0.6h0.1l0.3-0.1l0.3-0.1l0.4-0.3l0.4-0.3l0.3-0.4c0.1-0.2,0.2-0.3,0.4-0.4c0.1-0.1,0.3-0.1,0.4-0.1
			c0.3,0,0.5,0.2,0.5,0.5c0,0,0,0,0,0c0.1,0.5,0.3,0.8,0.7,0.8c0.1,0,0.2,0,0.3-0.1l0.3-0.2l0.1-0.1l0,0c0,0.1,0,0.1,0,0.2v0.1
			c0,0.1-0.1,0.2-0.4,0.3c-0.3,0.1-0.6,0.2-0.9,0.2c-0.4,0-0.8-0.1-1-0.4c-0.1-0.2-0.3-0.3-0.4-0.4l-0.1,0.1l-0.2,0.2L37,85.9
			c-0.3,0.3-0.5,0.5-0.8,0.7c-0.2,0.1-0.5,0.2-0.8,0.2c-0.2,0-0.4-0.1-0.5-0.1c-0.1,0-0.2-0.1-0.3-0.2l-0.1-0.2v-0.2l-0.1-0.4v-0.2
			l-0.2-0.3l-0.2,0.1l-0.2,0.1l-0.4,0.2L33.2,85.8z M53.4,82.4l-0.3-0.3c-0.4-0.3-0.8-0.5-1.3-0.6c-0.2,0-0.5,0-0.7,0.1l-0.4,0.3
			c-0.1,0.1-0.2,0.2-0.3,0.4l-0.2,0.3l-0.1,0.1h-0.2c-0.1,0-0.2,0-0.3,0c-0.1-0.1-0.1-0.1-0.2-0.2c0-0.3,0.1-0.5,0.3-0.7
			c0.2-0.2,0.5-0.4,0.8-0.5l0.4-0.2l0.3-0.1c0.1,0,0.2,0,0.3,0c0.1,0,0.2,0,0.3,0c0.2,0.1,0.3,0.1,0.5,0.2l0.4,0.2
			c0.1,0.1,0.3,0.2,0.4,0.3l0.4,0.4h0.6h0.2h0.4c0.1,0,0.1,0,0.2,0c0.1,0,0.2-0.1,0.3-0.2l0.2-0.4c0-0.1,0.1-0.2,0.2-0.3h0.1l0,0
			c0.1,0,0.2,0.1,0.2,0.3v0.2v0.2V82c0,0,0,0.1,0.1,0.1l0.1,0.1l0,0.3v0.3c0,0,0,0.1,0.1,0.1s0.1,0.1,0.1,0.1l-0.2,0.1l-0.2,0.1
			c-0.2,0-0.2,0.1-0.2,0.1v0.2c0,0.1,0,0.1,0,0.2l-0.2,0.9l-0.1,0.7v0.6l0.1,0.2h0.1h0.1c0.2-0.1,0.3-0.1,0.5-0.3l0.2-0.1l0.2-0.2
			l0.1-0.1l0,0c0,0,0,0.1,0,0.1c0,0.2-0.1,0.4-0.3,0.6L56,86.2l-0.1,0.1l-0.2,0.2c-0.2,0.2-0.4,0.4-0.6,0.5c-0.3,0-0.5-0.2-0.5-0.5
			v-0.4c0-0.4,0-0.9,0.1-1.3l0.1-0.7l-0.3,0.5L54,85.2l-0.4,0.6v-0.2v-0.2c0-0.2,0-0.3,0.2-0.4l0.2-0.3c0.1-0.2,0.2-0.3,0.3-0.6
			c0,0,0.1-0.2,0.2-0.4l0.1-0.3l0.1-0.2l-0.5,0.1h-0.5c-0.1,0-0.2,0-0.2-0.1c-0.1,0-0.2-0.1-0.2-0.1c0-0.1,0-0.2,0-0.3l0.1-0.3
			L53.4,82.4z M80.8,85.2h-0.1c0,0-0.1,0.1-0.1,0.1l-0.2,0.2l-0.1,0.1l0,0l0,0l0,0v-0.2v-0.2c0-0.1,0-0.1,0.1-0.2
			c0-0.1,0.1-0.2,0.2-0.2l0.2-0.2l0.2-0.2l0.5-0.4l0.2-0.2c0.1-0.1,0.3-0.1,0.4-0.1c0.2,0,0.4,0.1,0.5,0.4c0,0,0,0,0,0
			c0,0.1,0,0.2,0,0.3l-0.1,0.2l-0.2,0.6v0.2l0.2-0.2l0.1-0.1l0.3-0.2l0.3-0.2c0.1-0.1,0.2-0.2,0.3-0.3c0.1-0.1,0.2-0.2,0.4-0.2
			c0.2,0,0.4,0.1,0.6,0.2l0.3,0.3l0.1,0.2v0.3c0,0-0.1,0.2-0.2,0.3c-0.1,0.1-0.1,0.2-0.1,0.3c0,0,0,0,0,0.1l0.4-0.2l0.4-0.3
			c0,0,0.1-0.1,0.4-0.3L86,85c0,0.1-0.1,0.3-0.3,0.7c-0.4,0.4-0.8,0.7-1.2,1c-0.2,0.1-0.5,0.2-0.7,0.2h-0.3c-0.2,0-0.3-0.1-0.3-0.2
			c0-0.2,0.1-0.4,0.2-0.7c0-0.1,0.1-0.2,0.2-0.5v-0.1l-0.3,0l-0.2,0.1l-0.5,0.3l-0.3,0.4L82,86.6c0,0.1-0.1,0.2-0.2,0.3
			c-0.1,0.1-0.2,0.2-0.4,0.3c-0.1,0-0.2,0-0.3-0.1l-0.1-0.1l-0.1-0.3c0-0.1,0-0.2,0-0.2v-0.2V86l0.1-0.3v-0.3l0,0l0,0L80.8,85.2z
			 M129.3,85.7v0.1c0,0.1,0,0.1,0,0.2l0.1,0.2c0,0.1-0.1,0.3-0.4,0.4c-0.2,0.1-0.3,0.2-0.5,0.2h-0.1h-0.2h-0.1
			c-0.2,0-0.3-0.1-0.4-0.2c-0.1-0.1-0.2-0.2-0.3-0.4c-0.1-0.2-0.2-0.4-0.2-0.6l-0.1-0.5l-0.1,0.2c-0.1,0.1-0.1,0.1-0.2,0.2l-0.2,0.2
			l-0.1,0.1l0,0l-0.3,0.3c-0.2,0.2-0.3,0.3-0.5,0.5c-0.1,0.1-0.2,0.2-0.4,0.4c-0.1,0.1-0.2,0.2-0.3,0.2l-0.2,0.1h-0.2h-0.2
			c-0.2,0-0.3-0.2-0.4-0.5v-0.1c0,0,0-0.1,0-0.2l0.1-0.2c0-0.1,0-0.2-0.1-0.3L124,86v-0.2c0.1-0.4,0.3-0.8,0.7-1.1
			c0.1-0.1,0.2-0.2,0.4-0.4c0.3-0.4,0.9-0.9,1.6-1.5l0.7-0.4l0.6-0.1l0.4,0.1c0.1,0,0.2,0.2,0.3,0.5c0,0.2,0,0.3,0,0.5
			c0,0,0,0-0.1-0.1l-0.1-0.2c-0.2-0.1-0.4-0.2-0.6-0.2c-0.2,0-0.3,0.1-0.4,0.2c-0.2,0.1-0.4,0.3-0.6,0.5l-0.3,0.3l-0.3,0.4l-0.2,0.2
			c-0.1,0.1-0.2,0.3-0.4,0.5l-0.4,0.6l-0.1,0.3v0.1l0.2,0.1c0.2-0.1,0.4-0.1,0.6-0.3l0.5-0.5c0.1-0.1,0.2-0.3,0.4-0.5
			s0.3-0.5,0.5-0.8l0.2-0.4c0.1-0.2,0.2-0.3,0.3-0.3l0.1,1.7c0,0.4,0.3,0.8,0.8,0.8C129,85.9,129.2,85.9,129.3,85.7L129.3,85.7
			c0-0.1,0-0.1,0-0.2l0,0l0,0v-0.2c0.1-0.2,0.2-0.3,0.4-0.5l0.5-0.5c0-0.1,0.1-0.2,0.2-0.3l0.6-0.6h0.1c0.2,0,0.3,0,0.3,0.1v0.1
			l-0.1,0.2c0.1,0,0.2,0,0.3-0.1l0.3-0.1c0.2,0,0.5,0.1,0.6,0.3l0.1,0.1l0.1,0.3c0,0.1,0,0.2,0,0.3c0,0.2,0,0.4-0.1,0.6l-0.1,0.2
			c0,0.1-0.1,0.2-0.1,0.3l-0.2,0.2l-0.1,0.1l-0.4,0.4l-0.3,0.2c-0.2,0.1-0.4,0.2-0.6,0.2c-0.3,0-0.4,0-0.5-0.2
			c-0.2-0.1-0.3-0.2-0.4-0.4c0,0,0-0.1,0-0.1v-0.7c-0.1,0-0.1,0.1-0.3,0.2L129.3,85.7z M47.1,87.9c0,0,0,0.1-0.2,0.1h-0.2l-0.2-0.1
			c-0.1-0.1-0.1-0.1-0.2-0.2l-0.1-0.3l-0.2-0.5v-0.3c0-0.1-0.1-0.2-0.1-0.3l-0.1-0.7l0-0.5v-1.8c0-0.5,0-0.9,0-1.4v-0.4V81v-0.7
			v-0.1l-0.1-0.1h-0.3l-0.8,0.1c-0.5,0-1,0.2-1.4,0.3h-0.4c-0.1,0-0.2-0.1-0.3-0.1l0.1-0.4c0-0.1,0-0.2,0-0.3c0-0.2,0.1-0.4,0.2-0.5
			c0.1-0.1,0.3-0.2,0.4-0.2l0.3-0.1l0.5-0.1h0.3h0.3h0.4h1.2H48h0.6h0.3h0.1h0.1h0.2h0.5c0.2,0,0.3,0.1,0.3,0.3
			c-0.1,0.1-0.2,0.2-0.3,0.3c0.1,0.1,0.2,0.1,0.2,0.3c0,0.1-0.1,0.1-0.1,0.2c0,0,0,0.1,0.2,0.2s0.2,0.1,0.1,0.1
			c-0.7-0.2-1.3-0.3-2-0.3c-0.7,0-1,0-1,0.2l0.2,0.1l0.4,0.3c0.1,0.1,0.2,0.2,0.2,0.3v0.1v0.2c0,0.1,0,0.1,0,0.2v0.2l-0.1,0.4
			c-0.1,0.3-0.2,0.8-0.3,1.5c-0.2,0.7-0.3,1.3-0.3,2c0,0.2,0,0.3,0,0.4V86v0.2v0.3l0.1,0.8l0.1,0.7l-0.2-0.1h-0.1L47.1,87.9z
			 M31.4,87.6l-0.1,0.1L31,87.8C31,88,30.8,88,30.7,88.1h-0.3c-0.4,0-0.6-0.1-0.6-0.3v-0.1c0-0.1,0-0.2,0.1-0.3l0.1-0.2l-0.5-0.9
			L29.3,86c-0.1,0-0.1-0.2-0.2-0.4L29,85.3c0-0.1-0.1-0.2-0.1-0.3c-0.1-0.2-0.2-0.4-0.2-0.6l-0.1-0.4l-0.1-0.4
			c-0.1-0.1-0.2-0.6-0.4-1.3c0-0.1-0.1-0.3-0.1-0.6l-0.1-0.6l-0.1-0.4l-0.1-0.4v-0.4l0.1-0.4c0-0.2,0.1-0.4,0.3-0.6H28l0.2-0.1
			l0.3-0.1h0.2c0.2,0,0.3,0.1,0.3,0.2l0.2,0.8c0.1,0.4,0.1,0.7,0,1.1l0.3,1.6l0.2,0.7l0.3,1c0.1,0.2,0.2,0.4,0.2,0.6l0.1,0.4
			c0.1,0.2,0.2,0.3,0.3,0.5c0.2,0.4,0.3,0.5,0.3,0.6c0.2-0.2,0.3-0.4,0.5-0.7c0.1-0.2,0.2-0.5,0.3-0.7c0.1-0.4,0.2-0.7,0.3-0.8
			l0.3-0.6l0.3-0.8l0.1-0.6v-0.5c-0.1-0.5,0-0.9,0.3-1H33l0.3-0.1l0.1-0.1h0.1c0.1,0,0.2,0.1,0.2,0.2c0,0.3,0,0.6,0,0.9
			c0,0.2,0,0.5,0,0.7c0,0.1-0.1,0.4-0.2,0.7L33.4,83l-0.1,0.2l-0.1,0.3c-0.1,0.2-0.2,0.3-0.2,0.5l-0.2,0.6l-0.1,0.2l-0.3,0.7
			c-0.1,0.3-0.2,0.6-0.3,0.8l-0.3,0.5l0.1,0.3c0,0.1-0.1,0.2-0.2,0.3L31.4,87.6z M37.6,87.8c0,0,0-0.1,0-0.2l0.1-0.2
			c0.1-0.1,0.1-0.2,0.3-0.2c0.1,0,0.1-0.1,0.2-0.1l0.2-0.2c0.1,0,0.2-0.1,0.3-0.1c0.2,0,0.4,0.1,0.4,0.3c0,0.1,0,0.3-0.1,0.4
			c-0.1,0.2-0.4,0.3-0.6,0.4c-0.1,0-0.2,0.1-0.3,0.2h-0.2h-0.1l0,0C37.7,88.1,37.6,88,37.6,87.8z M115.7,87.8
			c-0.8-0.1-1.5-0.4-2.2-0.9c-0.4-0.3-0.7-0.7-1-1.1c-0.1-0.1-0.1-0.2-0.1-0.3l-0.1-0.2c0-0.1,0-0.2-0.1-0.2V85v-0.2v-0.3
			c0-0.1,0-0.2,0-0.3c0-0.1,0-0.2,0.1-0.4c0.1-0.5,0.2-0.9,0.5-1.3l0.2-0.2l0.2-0.3l0.3-0.3l0.3-0.2l0.5-0.4
			c0.2-0.2,0.4-0.3,0.7-0.3c0-0.1,0.1-0.2,0.3-0.2l0.9-0.4c1.2-0.5,2.4-0.8,3.7-0.8h0.3c1.5,0,2.4,0.3,2.7,0.8l0.2,0.3l0.2,0.4
			c0,0.1,0,0.2,0,0.3l0.1,0.4v0.4l-0.2,0.5c-0.1,0.2-0.1,0.4-0.2,0.7s-0.1,0.2-0.1,0.3l-0.1,0.2l-0.1,0.2l-0.2,0.3
			c-0.1,0.1-0.5,0.2-1.3,0.3l-0.5-0.1l-0.1-0.2c-0.1-0.2-0.1-0.5-0.1-0.7c0-0.6,0.2-1.3,0.6-1.8l0.5-0.5c0-0.1,0-0.2,0-0.3v-0.1
			c0-0.1-0.4-0.3-1.3-0.5h-0.2h-0.3c-1.2-0.1-2.3,0.2-3.3,0.8c-0.4,0.3-0.7,0.6-0.9,1c-0.2,0.3-0.4,0.6-0.4,0.9l-0.2,0.8
			c0,0.2-0.1,0.4-0.1,0.7l0.1,0.4l0.1,0.2v0.3l0.1,0.1l0.1,0.1l0.1,0.2l0.3,0.3l0.3,0.3l0.3,0.2l0.5,0.2L117,87
			c0.5,0.2,1,0.3,1.4,0.3c0.1,0,0.3,0,0.4,0c0.7,0,1.3,0,2-0.1c0.2,0,0.5-0.1,0.9-0.2l0.5-0.2c-0.1,0,0,0,0.2-0.1l0.3-0.1l0.2-0.1
			l0.7-0.5l-0.2,0.4c-0.2,0.3-0.5,0.5-0.8,0.7l-0.3,0.2l-0.5,0.2l-1.1,0.3c-0.7,0.2-1.5,0.3-2.2,0.3c-0.5,0-1-0.1-1.5-0.1
			L115.7,87.8z M67.9,87.8c-0.8-0.1-1.5-0.4-2.2-0.9c-0.4-0.3-0.7-0.7-1-1.1c-0.1-0.1-0.1-0.2-0.1-0.3l-0.1-0.2c0-0.1,0-0.2-0.1-0.2
			V85v-0.2v-0.3c0-0.1,0-0.2,0-0.3c0-0.1,0.1-0.3,0.1-0.4c0.1-0.5,0.2-0.9,0.5-1.3l0.2-0.2l0.3-0.3l0.3-0.3l0.3-0.2l0.5-0.4
			c0.2-0.2,0.4-0.3,0.7-0.3c0-0.1,0.1-0.1,0.3-0.2l0.9-0.4c1.2-0.5,2.4-0.8,3.7-0.8h0.3c1.5,0,2.4,0.3,2.7,0.8l0.2,0.3l0.2,0.4
			c0,0,0,0.2,0,0.3l0.1,0.4v0.4l-0.2,0.5L75.1,83c0,0.2-0.1,0.2-0.1,0.3l-0.1,0.2l-0.2,0.2l-0.2,0.3c-0.1,0.1-0.5,0.2-1.3,0.3
			l-0.4-0.1L72.7,84c-0.1-0.2-0.1-0.5-0.1-0.7c0-0.6,0.2-1.3,0.6-1.8l0.5-0.5c0-0.1,0-0.2,0-0.3v-0.1c0-0.1-0.5-0.3-1.3-0.5h-0.2
			h-0.3c-1.2-0.1-2.4,0.2-3.4,0.8c-0.4,0.3-0.7,0.6-0.9,1c-0.2,0.3-0.3,0.6-0.4,0.9l-0.2,0.8c0,0.2,0,0.4-0.1,0.7l0.1,0.4l0.1,0.2
			v0.3l0.1,0.1l0.1,0.1l0.1,0.2l0.3,0.3l0.4,0.3l0.3,0.2l0.5,0.2l0.6,0.2c0.5,0.2,0.9,0.3,1.4,0.3c0.1,0,0.3,0,0.4,0
			c0.7,0,1.3,0,2-0.1c0.2,0,0.5-0.1,0.9-0.2l0.5-0.2c-0.1,0,0,0,0.2-0.1l0.3-0.1c0.1,0,0.2-0.1,0.2-0.1l0.7-0.5l-0.2,0.4
			c-0.2,0.3-0.4,0.5-0.8,0.7l-0.3,0.2l-0.5,0.2l-1.1,0.3c-0.7,0.2-1.5,0.3-2.2,0.3c-0.5,0-1,0-1.5-0.1L67.9,87.8z M20.7,85.2v-0.3
			c0.1-0.7,0.1-1.5,0.2-2.2s0.1-1.3,0.2-1.7l0.1-0.6c0-0.3,0.1-0.5,0.2-0.8l0.1-0.4l0.1-0.4l0.1-0.5c0-0.2,0.2-0.5,0.3-0.9
			c0.1-0.3,0.3-0.5,0.5-0.7c0.1,0,0.2,0,0.2,0.1l0.1,0.1c0.2,0.2,0.2,0.4,0.2,0.7c0,0.4,0,0.7,0,0.7c0,0.3,0,0.6,0,0.8
			c0,0.6-0.1,1.3-0.3,1.9c0,0.2-0.2,0.9-0.6,2l-0.1,0.3L22,83.6l-0.5,1.2V85l0,0.7v0.9c0,0,0,0.1,0,0.1v-0.1c0-0.1,0-0.1,0.1-0.2
			c0.1-0.2,0.2-0.4,0.3-0.7c0.1-0.2,0.2-0.4,0.4-0.6c0.1-0.1,0.2-0.2,0.4-0.3c0.1-0.1,0.3-0.1,0.4-0.1l0.3,0.2
			c0.1,0.1,0.2,0.2,0.3,0.3c0.1,0.1,0.1,0.2,0.1,0.4c0,0,0,0.1,0,0.1c0,0.1,0,0.1,0,0.1c-0.1,0.1-0.1,0.2-0.2,0.3
			c-0.1,0.1-0.1,0.2-0.2,0.3l0,0l0.4-0.3c0.2-0.2,0.3-0.3,0.5-0.5l0.5-0.6c-0.1,0.4-0.2,0.7-0.3,0.8c-0.1,0.1-0.1,0.2-0.2,0.3
			c-0.1,0.1-0.2,0.2-0.2,0.3l-0.1,0.2L23.8,87l-0.2,0.2c-0.2,0.2-0.5,0.3-0.7,0.3h-0.1h-0.2c-0.2,0-0.2-0.2-0.2-0.4
			c0-0.1,0.1-0.3,0.1-0.4l0.2-0.5c0-0.1-0.2-0.2-0.3-0.2l-0.3,0.2c-0.1,0-0.1,0.2-0.2,0.4c0,0.2-0.1,0.3-0.1,0.5c0,0.1,0,0.1,0,0.2
			c0,0.1,0,0.2,0.1,0.3c0,0.1,0,0.2,0,0.3c0,0.1,0,0.1,0,0.2l-0.3,0.2h-0.4c-0.2,0-0.3-0.1-0.3-0.3c0,0,0,0,0,0l-0.1-0.5l-0.1-1v0.1
			l-0.3,0.3c-0.1,0.1-0.2,0.2-0.3,0.2l0.1-0.4l0.2-0.5l-0.4,0.3l-0.4,0.2c-0.2,0.1-0.5,0.2-0.7,0.2c-0.3,0-0.6-0.2-0.9-0.4
			C18.1,86.1,18,86,18,85.8l-0.1-0.3l0,0h0l-0.1,0.1l0,0l0,0c-0.1,0.2-0.3,0.4-0.6,0.5l-0.3,0.1h-0.4c-0.1,0-0.3-0.1-0.4-0.1
			l-0.3-0.2l-0.1-0.3l-0.1-0.3c0,0,0-0.2,0-0.5c0,0-0.1,0.1-0.3,0.3l-0.1,0.2l-0.1,0.2l-0.1,0.1l-0.1,0.1l0,0v-0.2v-0.2v-0.2
			l0.2-0.2c0.2-0.1,0.3-0.3,0.4-0.5v-0.3c0.1-0.1,0.2-0.1,0.3-0.2l0.3-0.1c0.2,0,0.4,0.1,0.5,0.2c0,0.2,0,0.3,0,0.4c0,0,0,0.1,0,0.1
			c-0.1,0.1-0.2,0.2-0.2,0.3c0,0.1-0.1,0.2-0.1,0.3c0,0.1,0,0.2,0,0.3c0.1,0.1,0.2,0.2,0.3,0.2l0.4-0.1l0.2-0.1l0.1-0.2v0.2l0.1-0.1
			l0.1-0.1l0.2-0.2l0.3-0.2c0-0.1,0.1-0.3,0.5-0.5l0.4-0.3l0.4-0.3l0.2-0.2c0.1-0.1,0.2-0.1,0.3-0.2h0.1h0.1h0.1l0.1,0.2v0.2
			c0,0.2-0.2,0.4-0.7,0.7c-0.1,0.2-0.2,0.3-0.4,0.4l-0.5,0.4c-0.1,0.1-0.1,0.3-0.1,0.4v0.2v0.1l0.1,0.1c0,0,0.1,0.1,0.1,0.1l0.5,0.1
			h0.1c0.3-0.1,0.5-0.2,0.7-0.4C20.5,85.6,20.6,85.4,20.7,85.2z M94,81l0.3,0.6l0.3,0.3l0.3,0.5l0.7,1.2l0.4,0.6l0.4,0.6
			c0.1,0.1,0.3,0.4,0.7,0.9c0.1,0.1,0.2,0.2,0.2,0.3c0.1,0.1,0.2,0.2,0.3,0.2c0.2-0.6,0.2-1.2,0.2-1.8c0-0.1,0-0.4,0-0.7l-0.1-1.3
			l-0.1-1.4c-0.1-0.6,0-1.3,0.3-1.9c0.2-0.1,0.4-0.3,0.6-0.3c0.1,0,0.1,0.2,0.2,0.4v0.3v0.3l0.1,2.9c0,0.2,0,0.4,0.1,0.6
			s0,0.5,0,0.8l-0.1,1.7c0,0.3-0.1,0.6-0.1,0.8l-0.1,0.4c0,0.1-0.1,0.3-0.2,0.4l-0.5,0.2c-0.2,0.1-0.3,0.1-0.5,0.2
			c-0.2,0-0.6-0.4-1.2-1.1l-0.7-0.9l-0.4-0.6l-0.4-0.7l-0.5-0.8c-0.1-0.2-0.3-0.4-0.5-0.6l-0.1,0.3l-0.1,0.3L93,84.4L92.9,85
			l-0.3,1.4l-0.2,0.7v0.2c0,0.2-0.1,0.4-0.1,0.5l-0.2,0.5h-0.1h-0.2h-0.2c-0.1,0-0.2-0.1-0.2-0.3v-0.4v-0.3l0.1-0.9l0.1-1.6l0.1-1.6
			v-1.5c0-0.2,0-0.4,0.1-0.7l-0.1-0.3c0-0.1,0-0.2,0-0.3c0-0.4,0.3-0.7,0.8-0.7h0.2l0.2,0.1l0.2,0.1l0.2-0.2l0.2-0.3
			c0.1-0.1,0.1-0.1,0.2-0.1c0.2,0,0.3,0.1,0.3,0.2c0,0.1,0,0.3,0,0.4L94,80.6c0,0,0,0.1,0,0.1C94,80.8,94,80.9,94,81L94,81z
			 M5.6,80.5l-1.5-0.2L3.3,80c-0.2,0-0.4-0.1-0.6-0.2l-0.1-0.2l-0.1-0.2l-0.2-0.3l0.1-0.2c0.1,0,0.2,0,0.4,0h0.4h0.2h0.1h0.1
			c0.5,0,1.1,0,1.6,0.2h0.1h0.1c0.2,0,0.4,0,0.6,0.1l0.3,0c0.1,0,0.1,0,0.2,0c1.3,0.1,2.5,0.4,3.7,0.8l1.6,0.5
			c0.6,0.2,1.2,0.5,1.8,0.9c0.6,0.4,1,1,1,1.7c0,0.4-0.1,0.7-0.4,1c-0.4,0.6-0.9,1.1-1.5,1.5L12.2,86c-0.1,0.1-0.3,0.2-0.4,0.3
			l-0.2,0.2l0.3-0.1h0.3c0.1,0,0.2,0,0.3,0.1c0,0.1-0.1,0.2-0.2,0.3L11.9,87l-0.5,0.2l-1.2,0.4c-0.8,0.3-1.4,0.5-1.9,0.6
			c-0.7,0.2-1.3,0.3-2,0.3c-0.5,0-0.9-0.1-1-0.3c0,0,0-0.1,0-0.1c0-0.1,0.1-0.2,0.2-0.3l0.3-0.1l0.4-0.1l0.5-0.2
			c0.4-0.1,0.9-0.2,1.6-0.3c1.5-0.5,2.8-1.3,3.9-2.4l0.4-0.2c0-0.1,0.1-0.2,0.1-0.3l0.1-0.4v-0.4v-0.2l-0.1-0.1l-0.2,0
			c-0.2-0.3-0.5-0.6-0.8-0.8c-0.2-0.1-0.7-0.3-1.4-0.6l-0.4-0.2c-0.1,0-0.2-0.1-0.3-0.1l-0.7-0.2C8.5,81.1,8.2,81.1,8,81l-0.9-0.2
			c-0.1,0-0.2,0.2-0.3,0.5l-0.2,0.5l-0.9,4.7c-0.1,0.3-0.2,0.5-0.4,0.7c-0.2,0.2-0.4,0.4-0.7,0.4c-0.1,0-0.2,0-0.3-0.1l-0.1-0.1
			v-0.6c0-0.3,0-0.6,0-0.9l-0.2-0.9c0-0.1,0-0.2,0-0.4c0-0.1,0-0.2,0-0.3c0-0.1,0-0.1,0-0.2c0-0.1,0-0.1,0-0.2c0-0.1,0-0.1,0-0.2
			c0-0.1,0-0.2,0-0.3v-0.1c0,0,0,0,0-0.1v-0.2l0.1-0.5v-0.9c0-0.2,0.2-0.3,0.3-0.4L5,80.8C5.2,80.7,5.4,80.6,5.6,80.5L5.6,80.5z
			 M15.7,88.2c0-0.2,0.1-0.4,0.3-0.5c0.1,0,0.2-0.1,0.2-0.1l0.2-0.2c0.1,0,0.2-0.1,0.3-0.1c0.2,0,0.4,0.1,0.4,0.3
			c0,0.1,0,0.3-0.1,0.4c-0.1,0.1-0.3,0.2-0.4,0.3c-0.1,0.1-0.2,0.1-0.3,0.2h-0.2c-0.1,0-0.1,0-0.2,0l0,0
			C15.8,88.4,15.8,88.4,15.7,88.2z M101.4,86.9v-0.2l0.3-0.7l0.2-0.7V85c0.1-0.7,0.1-1.5,0.2-2.2s0.1-1.3,0.2-1.7l0.1-0.6
			c0-0.3,0.1-0.5,0.2-0.8l0.1-0.4l0.1-0.4l0.2-0.5c0-0.2,0.2-0.5,0.3-0.9c0.1-0.3,0.2-0.5,0.5-0.7c0.1,0,0.1,0,0.2,0.1L104,77
			c0.1,0.2,0.2,0.4,0.2,0.7c0,0.2,0,0.5,0,0.7c0,0.3,0,0.6,0,0.8c0,0.6-0.1,1.3-0.2,1.9c0,0.2-0.2,0.8-0.6,2l-0.1,0.3l-0.1,0.3
			l-0.5,1.2v0.2v0.7v0.9v0.1v-0.1c0-0.1,0-0.1,0.1-0.2c0.1-0.4,0.2-0.6,0.3-0.7c0.1-0.2,0.3-0.4,0.4-0.6c0.1-0.1,0.2-0.2,0.4-0.3
			c0.1-0.1,0.3-0.1,0.4-0.1l0.3,0.2c0.1,0.1,0.2,0.2,0.3,0.3c0.1,0.1,0.1,0.2,0.1,0.4c0,0,0,0.1,0,0.1V86c0,0.1-0.1,0.2-0.2,0.3
			c-0.1,0.1-0.1,0.2-0.2,0.3l0,0l0.4-0.3c0.2-0.2,0.3-0.3,0.5-0.5l0.2-0.2l-0.1-0.3c0-0.1,0-0.2,0-0.3c0-0.2,0.1-0.3,0.1-0.5
			l0.1-0.4l0.2-0.5c0-0.1,0.1-0.2,0.2-0.2c0.2-0.3,0.5-0.5,0.8-0.7c0-0.2,0.2-0.2,0.4-0.2c0.2,0,0.4,0.1,0.6,0.2
			c0.1,0,0.1,0.1,0.1,0.3s0,0.2,0,0.3c0,0.1-0.1,0.1-0.1,0.1c0,0.3-0.2,0.6-0.4,0.8c-0.2,0.3-0.4,0.5-0.7,0.6l-0.2,0.2l-0.3,0.2v0.3
			c0,0.3,0.2,0.6,0.5,0.7l0.4,0.1c0.6,0,1.1-0.2,1.5-0.6c0.1,0,0.2-0.1,0.3-0.2l0.1-0.1c0,0.2,0,0.3,0,0.4c0,0.1,0,0.1,0,0.2
			l-1.3,0.9c0.1,0,0.2,0.1,0.3,0.2c0,0.1,0,0.3-0.1,0.4c-0.1,0.2-0.4,0.3-0.6,0.4c-0.1,0-0.2,0.1-0.2,0.2h-0.2h-0.1l0,0
			c0-0.1-0.1-0.2-0.1-0.2c0,0,0-0.1,0-0.2l0.1-0.2c0.1-0.1,0.1-0.2,0.3-0.2c0.1,0,0.1-0.1,0.2-0.1l0.1-0.1l0,0l-0.5,0.1h-0.2
			c-0.3-0.1-0.5-0.2-0.7-0.3c0-0.1-0.1-0.2-0.2-0.3l-0.2-0.3l-0.1-0.3c0,0,0,0.1,0,0.1c0,0.1-0.1,0.2-0.2,0.3
			c-0.1,0.1-0.1,0.2-0.2,0.3l-0.1,0.2l-0.2,0.2l-0.2,0.2c-0.2,0.2-0.5,0.3-0.7,0.3H104h-0.2c-0.2,0-0.3-0.2-0.2-0.4
			c0-0.1,0.1-0.3,0.1-0.4l0.2-0.5c0-0.1-0.2-0.2-0.3-0.2l-0.3,0.2c-0.1,0.1-0.2,0.2-0.2,0.4c0,0.2-0.1,0.3-0.1,0.5
			c0,0.1,0,0.1,0,0.2c0,0.1,0,0.2,0.1,0.3c0,0.1,0.1,0.2,0.1,0.3c0,0.1,0,0.1,0,0.2l-0.3,0.2h-0.4c-0.2,0-0.3-0.1-0.3-0.2
			c0,0,0,0,0,0l-0.1-0.5l-0.1-1v0.1l-0.3,0.3c-0.1,0.1-0.1,0.1-0.2,0.2l-0.2,2.4l0.1,4c0,0.3,0.1,0.6,0.2,0.9
			c0.1,0.3,0.1,0.6,0.1,0.9c0,0.2-0.2,0.4-0.4,0.4c-0.1,0-0.3,0-0.4,0c-0.1,0-0.2-0.1-0.3-0.3c-0.1-0.2-0.2-0.5-0.2-0.8
			c0,0,0.1-0.2,0.2-0.5c0.1-0.3,0.2-0.7,0.2-1v-0.4c0,0,0-0.3,0-1.1c0-0.9,0-2,0-3.2v-2.4c0-0.3,0-0.5-0.1-0.5s-0.1,0.1-0.2,0.2
			l-0.1,0.3c-0.2,0.5-0.4,0.9-0.8,1.3c-0.1,0.1-0.1,0.1-0.2,0.1c-0.2,0-0.3-0.1-0.4-0.4L99,86.7c0-0.2,0-0.5,0-0.7
			c-0.1,0-0.2,0.1-0.2,0.1c-0.1,0.1-0.1,0.1-0.2,0.2l0.2-0.7l0.2-0.3l0.1-0.4l0.1-0.4l0.1-0.3c0.1-0.2,0.2-0.4,0.3-0.7
			c0-0.1,0.1-0.2,0.2-0.3c0.1-0.1,0.2-0.2,0.3-0.3c0.2-0.2,0.6-0.4,0.9-0.4c0.1,0,0.2,0,0.3,0.1c0.1,0,0.2,0.1,0.2,0.1l0.2,0.2
			c0,0,0,0.1,0,0.2c0,0.1,0,0.1,0,0.2v0.4l-0.3-0.2l-0.4-0.1c-0.2,0-0.3,0.1-0.4,0.3c-0.1,0.1-0.2,0.3-0.2,0.4l-0.1,0.3
			c-0.1,0.2-0.2,0.5-0.3,0.9c0,0.1-0.1,0.3-0.1,0.4V86l0.1,0.1l0.2-0.2l0.3-0.4c0.1-0.2,0.2-0.4,0.3-0.6c0.1-0.1,0.1-0.3,0.1-0.4
			c0-0.1,0-0.2,0-0.3c0-0.1,0.2-0.2,0.5-0.2l0.2,0.1c0.1,0.1,0.1,0.1,0.1,0.2c0,0.1,0,0.1,0,0.2l-0.1,0.5v0.4c0,0.1,0,0.2,0,0.3v0.1
			c0,0.1,0,0.2,0,0.3L101.4,86.9L101.4,86.9z M85.4,86.3l0.2-0.7l0.2-0.3l0.1-0.4c0-0.1,0.1-0.2,0.1-0.4l0.1-0.3
			c0.1-0.2,0.2-0.4,0.3-0.7c0-0.1,0.1-0.2,0.2-0.3c0.1-0.1,0.2-0.2,0.3-0.3c0.2-0.2,0.6-0.4,0.9-0.4c0.1,0,0.2,0,0.3,0.1
			c0.1,0,0.2,0.1,0.2,0.1l0.2,0.2c0,0,0,0.1,0,0.2c0,0.1,0,0.1,0,0.2v0.4l-0.3-0.2l-0.4-0.1c-0.2,0-0.3,0.1-0.4,0.3
			c-0.1,0.1-0.2,0.2-0.3,0.4L87,84.6c-0.1,0.3-0.2,0.6-0.3,0.9c0,0.1-0.1,0.3-0.1,0.4V86l0.1,0.1l0.2-0.2l0.3-0.4
			c0-0.1,0.1-0.3,0.3-0.6c0.1-0.1,0.1-0.3,0.1-0.4c0-0.1,0-0.2,0-0.3c0-0.1,0.2-0.2,0.5-0.2l0.2,0.1c0,0,0.1,0.1,0.1,0.2
			c0,0.1,0,0.1,0,0.2l-0.1,0.5v0.4c0,0,0,0.1,0,0.3v0.1c0,0.1,0,0.2,0,0.3v0.5v0.4L88,89.4l0.1,4c0,0.3,0.1,0.6,0.2,0.9
			c0.1,0.3,0.1,0.6,0.1,0.9c-0.1,0.2-0.2,0.4-0.4,0.4c-0.1,0-0.3,0-0.4,0c-0.1,0-0.2-0.1-0.3-0.3c-0.1-0.2-0.2-0.5-0.2-0.8
			c0,0,0.1-0.2,0.2-0.5c0.1-0.3,0.2-0.7,0.2-1v-0.4c0,0,0-0.3,0-1.1c0-0.9,0-2,0-3.2v-2.4c0-0.3,0-0.5-0.1-0.5s-0.1,0.1-0.2,0.2
			l-0.1,0.3c-0.2,0.5-0.4,0.9-0.8,1.3c0,0.1-0.1,0.1-0.2,0.1c-0.2,0-0.3-0.1-0.4-0.4l-0.1-0.4c0-0.1,0-0.4,0-0.7
			c-0.1,0-0.2,0.1-0.2,0.1C85.4,86.1,85.4,86.2,85.4,86.3L85.4,86.3z"/>
		<path class="st0" d="M101.3,37.4c0,18.3-14.8,33.2-33.2,33.2C49.9,70.6,35,55.7,35,37.4S49.8,4.3,68.2,4.2
			C86.5,4.2,101.3,19.1,101.3,37.4L101.3,37.4"/>
		<path class="st1" d="M81,43.8c-4.6-2-3.8-6-3.7-6.5c1.3-4.6,7-10.1,13.6-12.7c-5.4-3.9-10.8,0.4-10.8,0.4s1-1.3,5.1-3
			c-4,0.3-7.8,2.3-10.2,5.5c-3.1,4-1.8,9.4-0.4,12.9c-3-2.3-5.1-5.4-7.6-10.7c-5.6-13-24.6-8.1-24.6-8.1S53,22,57.3,30.4
			C63.6,43,71.5,43.7,71.5,43.7C63,43.2,62,49.3,62,49.3c1.7-0.5,3.4-0.6,5.1-0.4c7.4,1.3,13.8-3.7,14.7-4.6l0,0l0.1-0.1L81,43.8"/>
		<path class="st2" d="M70.4,55.8h-0.1c-0.1,0.3-0.2,0.5-0.2,0.8h0.6C70.6,56.4,70.5,56.1,70.4,55.8z M61.5,55
			c-0.1,0-0.3-0.1-0.3,0.2v1.9c0,0.1,0.1,0.2,0.1,0.2c0.6,0,1-0.1,1.2-0.7c0-0.2,0-0.5,0-0.7C62.5,55.4,62.1,55,61.5,55
			C61.6,55,61.5,55,61.5,55z M73.7,58.7v-3.3c0-0.4,0-0.4-0.4-0.4h-1v-1.3h4.4V55c-0.3,0-0.7,0-1,0s-0.3,0.1-0.3,0.3c0,1,0,2,0,3.1
			v0.3L73.7,58.7z M57.7,55.4H59v1.3h-1.3v0.5h1.4v1.4h-2.9c0-0.1,0-0.2,0-0.2c0-1.5,0-3,0-4.6c0-0.2,0.1-0.3,0.3-0.3h2.4
			c0.2,0,0.3,0,0.3,0.3s0,0.7,0,1.1h-1.1C57.7,55,57.7,55,57.7,55.4L57.7,55.4z M72.9,58.7c-0.5,0-1,0-1.5,0c-0.1,0-0.2-0.1-0.2-0.2
			c-0.2-0.6-0.2-0.6-0.8-0.6h-0.1c-0.2,0-0.5-0.1-0.7,0s-0.2,0.4-0.3,0.6c0,0.1-0.1,0.1-0.2,0.1c-0.5,0-1,0-1.5,0
			c0.1-0.2,0.1-0.3,0.2-0.5l1.7-4.3c0-0.2,0.2-0.3,0.4-0.3c0.2,0,0.5,0,0.7,0c0.1,0,0.2,0.1,0.3,0.2c0.6,1.6,1.3,3.2,1.9,4.8
			C72.9,58.6,72.9,58.6,72.9,58.7z M77.3,58.7c0-0.1,0-0.2,0-0.3v-4.5c0-0.2,0-0.3,0.3-0.3c0.8,0,1.6,0,2.3,0c0.2,0,0.3,0.1,0.3,0.3
			c0,0.3,0,0.5,0,0.8c0,0.2-0.1,0.3-0.3,0.3s-0.6,0-0.9,0s-0.3,0-0.3,0.2s0.1,0.2,0.3,0.2s0.6,0,0.9,0s0.3,0.1,0.3,0.3s0,0.6,0,0.9
			s-0.1,0.3-0.3,0.2c-0.4,0-0.7,0-1.1,0c-0.1,0.4-0.1,0.5,0.3,0.5s0.6,0,0.9,0c0.1,0,0.2,0.1,0.2,0.2v1c0,0.1,0,0.2-0.2,0.2
			L77.3,58.7z M67.4,57.2v1.4h-0.1h-2.5c-0.2,0-0.2-0.1-0.2-0.2c0-1.5,0-3.1,0-4.6c0-0.2,0.1-0.3,0.3-0.2h1c0.2,0,0.2,0.1,0.2,0.3
			c0,1,0,2.1,0,3.1c0,0.3,0.1,0.3,0.3,0.3S67,57.2,67.4,57.2z M59.7,58.7v-4.8c0-0.1,0-0.2,0.2-0.2c0.8,0,1.6,0,2.3,0.1
			c1,0.2,1.8,1,1.8,2.1c0,0.5,0,1-0.2,1.5c-0.3,0.8-1.1,1.4-2,1.4C61.2,58.7,60.5,58.7,59.7,58.7L59.7,58.7z M85.7,55.7h-1.4
			c-0.1,0-0.1-0.1-0.2-0.2c-0.2-0.5-0.7-0.8-1.2-0.6c-0.5,0.1-0.8,0.6-0.8,1.1c0,0.2,0.1,0.5,0.2,0.7c0.2,0.5,0.8,0.7,1.3,0.5
			c0.2-0.1,0.4-0.3,0.5-0.5c0.1-0.2,0.3-0.3,0.4-0.2c0.4,0,0.8,0,1.2,0c0.1,0.9-1,2-2.2,2.1c-1.4,0.2-2.8-0.8-2.9-2.3
			c0,0,0-0.1,0-0.1c-0.1-1.4,1-2.6,2.4-2.7C84.4,53.4,85.5,54.4,85.7,55.7L85.7,55.7z M53.1,56.2l0.1-0.3c0.2-0.7,0.4-1.4,0.6-2.1
			c0-0.2,0.1-0.3,0.4-0.3c0.4,0,0.9,0,1.3,0c0.1,0,0.2,0,0.2,0.2c0,1.6,0,3.2,0,4.7c0,0,0,0.1,0,0.1h-1.4v-2.3l0,0
			c0,0.1-0.1,0.2-0.1,0.3c-0.2,0.6-0.3,1.2-0.5,1.8c0,0.2-0.1,0.3-0.3,0.2s-0.6,0.1-0.8-0.1s-0.2-0.5-0.3-0.7L52,56.5
			c0-0.1,0-0.1-0.1-0.1v2.3h-1.4c0-0.1,0-0.2,0-0.2c0-1.5,0-3,0-4.5c0-0.2,0.1-0.3,0.3-0.3c0.4,0,0.8,0,1.3,0c0.2,0,0.3,0.1,0.3,0.3
			c0.2,0.7,0.4,1.4,0.6,2.1C53,56,53,56.1,53.1,56.2z"/>
	</g>
</g>
</svg>
