<svg xmlns="http://www.w3.org/2000/svg" viewBox="0 0 965.24 965.27"><defs><style>.cls-1{fill:#fff;}.cls-2{fill:#194072;}.cls-3{fill:#43a549;}.cls-4{fill:#eb0e69;}</style></defs><g id="Layer_2" data-name="Layer 2"><g id="Layer_1-2" data-name="Layer 1"><path class="cls-1" d="M447.64,14.06c83.68-6.31,169,10.14,244.07,47.71A470,470,0,0,1,584.15,941.54a475.05,475.05,0,0,1-186,3.42,469.94,469.94,0,0,1,49.54-930.9ZM476.54,54C470.31,62.72,464,71.4,458,80.34c-.36-8.54-.67-17.08-1-25.62q-5.94.22-11.86.48c.7,19,1.5,38.1,2.24,57.15q5.94-.19,11.88-.47c-.21-5.44-.45-10.88-.62-16.31l5.76-6.71c5.18,7.4,10.32,14.82,15.52,22.21q7.08-.25,14.17-.56c-7.32-10.39-14.93-20.58-22.08-31.07q9.71-13,19.2-26.07Q483.86,53.64,476.54,54Zm27.85,0q-3,28.46-6,56.92c3.94.41,7.88.83,11.83,1.22.88-8.1,1.7-16.21,2.57-24.31q11.33,1.17,22.66,2.38c-.81,8.1-1.7,16.21-2.53,24.31q5.91.68,11.82,1.24,3-28.44,6-56.9L538.9,57.58q-1.2,11.51-2.42,23c-7.55-.78-15.1-1.59-22.65-2.37.74-7.68,1.61-15.34,2.39-23C512.28,54.76,508.33,54.36,504.39,54ZM375.89,67.42q-3.6,30.36-7.14,60.73c4.11-1,8.21-2,12.31-3,.34-4.12.67-8.24,1-12.36,6.64-1.66,13.3-3.25,19.94-4.89,2.23,3.49,4.44,7,6.66,10.49q6.18-1.49,12.35-3Q403.81,90.09,386.58,64.8,381.23,66.09,375.89,67.42ZM579.58,67c-8.2,1.91-14.3,8.8-17.24,16.43-3.27,8.84-5.36,19-1.34,28,5.47,12.83,23.54,17.81,34.89,9.77,6.93-4.77,10.43-13,12.21-20.9,2-7.94,1.76-17-3.05-24C599.55,68.37,588.86,64.85,579.58,67ZM304,92.6c3.07,7.65,6.18,15.29,9.27,22.94l-5.46,2.23,2.76,6.8,5.45-2.2c3.17,7.77,6.28,15.57,9.46,23.34,5.89-2.43,11.86-4.7,17.72-7.22,7.37-3.21,13.27-10,14.63-18,1.63-8.69-1.58-17.44-6-24.81-5.48-8.86-16.6-13.75-26.79-11.15C317.83,86.54,311.06,90,304,92.6Zm299,37.72,11.7,5c2.73-3.1,5.46-6.2,8.21-9.27l18.9,8.08q-.52,6.2-1,12.39c3.88,1.66,7.75,3.34,11.65,5,.91-20.36,1.89-40.72,2.83-61.09q-5.06-2.19-10.13-4.34ZM264.6,113.14c-3.29,2.25-6.61,4.43-9.89,6.67q10.47,15.52,20.9,31.08-19.94-9.15-39.85-18.36c-3.3,2.2-6.58,4.43-9.87,6.64q15.93,23.82,32,47.58,5-3.28,9.91-6.66-10.42-15.5-20.82-31c13.28,6.06,26.51,12.23,39.79,18.29,3.26-2.25,6.57-4.43,9.85-6.64Q280.57,137,264.6,113.14Zm440.22,2.45c-.84,11-1.61,21.92-2.48,32.87-10.17,4.69-20.36,9.33-30.51,14,3.79,2.66,7.61,5.29,11.42,7.92,6.78-3.38,13.55-6.79,20.34-10.16-.77,7.55-1.58,15.1-2.33,22.65,3.81,2.58,7.57,5.25,11.39,7.82.79-11.15,1.55-22.31,2.38-33.47q14.94-7,29.91-13.89c-3.74-2.61-7.52-5.14-11.21-7.82q-10,5-20,10.08c.77-7.41,1.58-14.81,2.38-22.21C712.33,120.79,708.56,118.2,704.82,115.59ZM461.28,146.44a331.67,331.67,0,0,0-192.86,77.1c-48.7,40.73-85.76,95.35-104.88,155.94a343.14,343.14,0,0,0-9,171.93c13.28,65.87,47.22,127.25,95.57,173.86a332.21,332.21,0,0,0,165,87.48c70.32,14.41,145.3,5.8,210.16-25.11,56.76-26.83,105.47-70.11,139.31-122.93,36.26-56.27,54.65-123.63,52.82-190.49-1.43-69.64-25.11-138.66-67.15-194.25C711.79,228.6,658.45,188.3,598.07,166.2A335.41,335.41,0,0,0,461.28,146.44Zm-273.51,5.12c-.47,5.54-1.09,11.07-1.42,16.62A93.25,93.25,0,0,0,193.5,162c.22-2.75.46-5.49.71-8.24,2.66.09,5.32.33,8,.18,2.78-1.64,4.89-4.21,7.31-6.33-5.56-.28-11.12-.22-16.67-.48C191.12,148.56,189.44,150.06,187.77,151.56Zm-2.12,22.55q19.07,21.38,38.18,42.69,14.34-12.8,28.65-25.62-3.21-3.59-6.4-7.18c-6.61,5.87-13.16,11.79-19.77,17.66-3.38-3.73-6.71-7.51-10.08-11.24,5.59-5,11.23-10,16.82-15.08-2.06-2.35-4.15-4.67-6.24-7-5.64,5-11.22,10-16.83,15-3-3.31-6-6.66-9-10q9.82-8.85,19.69-17.64-3.22-3.62-6.47-7.22Q199.93,161.31,185.65,174.11Zm527.89,17.18c3.09,2.86,6.17,5.74,9.28,8.59,3.61-2,7.23-3.94,10.83-5.95,5.05,4.62,10.05,9.3,15.07,13.95q-2.54,5.66-5.09,11.29c3.07,2.89,6.19,5.75,9.29,8.64q11.64-28.27,23.22-56.57c-2.71-2.48-5.4-5-8.1-7.48C749.9,173,731.67,182.05,713.54,191.29Zm-547.7,3.78,42,38.92c2.75-2.89,5.43-5.83,8.14-8.74Q195,205.78,174,186.33C171.24,189.23,168.55,192.15,165.84,195.07ZM756.3,231.83q3.72,4.65,7.46,9.31,14.6-11.64,29.2-23.3-7.53,20.53-15,41.11c2.45,3.11,4.93,6.19,7.41,9.28q22.38-17.85,44.75-35.73-3.71-4.65-7.43-9.28-14.62,11.67-29.25,23.37,7.49-20.61,15-41.19c-2.47-3.12-5-6.21-7.43-9.31ZM242.52,204.77c-3.49,1.59-5.72,6.64-2.68,9.69,4.32,4.55,12.59-1.45,10.49-7A5.41,5.41,0,0,0,242.52,204.77Zm-93.41,9.8,26.52,36q-21-7.69-41.95-15.38l-7.92,10.58q28.92,9.27,57.85,18.45c2.44-3.33,4.93-6.62,7.4-9.93Q174,229.11,157.08,204,153.07,209.25,149.11,214.57Zm642,62c2,3.45,3.94,6.9,5.93,10.35,7.09-4,14.17-8.12,21.26-12.16q5.67,9.88,11.33,19.78-10.64,6.06-21.24,12.17c2,3.45,3.94,6.91,5.93,10.35Q839.2,302.87,864,288.59q-3-5.18-5.93-10.34c-6.72,3.82-13.4,7.68-20.1,11.51q-5.65-9.9-11.34-19.78c6.7-3.83,13.39-7.69,20.1-11.51-2-3.46-4-6.9-5.94-10.36Q815.95,262.33,791.1,276.61Zm-684.81,2.17q-2.55,5.4-5.05,10.84,10.5,4.88,21,9.79-4.8,10.33-9.64,20.65c-7-3.23-14-6.54-21-9.77q-2.5,5.38-5,10.77c17.3,8.15,34.64,16.2,52,24.28,1.69-3.6,3.39-7.2,5.05-10.81q-11.09-5.19-22.19-10.37c3.22-6.88,6.41-13.78,9.65-20.65q11.1,5.16,22.19,10.35c1.7-3.6,3.39-7.21,5-10.83Q132.26,290.9,106.29,278.78Zm720.53,67.13c1.24,3.76,2.45,7.53,3.7,11.29,6.38-2,12.73-4.14,19.1-6.2,2.36,6.38,3.54,13.43,7.84,18.91a16.75,16.75,0,0,0,12.7,6.87c6.73.09,13.77-3.24,17.13-9.25,3-5.31,2.86-11.87,1.07-17.56-2.33-7.28-4.74-14.54-7.09-21.81C863.12,334.09,845,340,826.82,345.91ZM76.57,350.22q18,5.2,36,10.44-21.16,5.77-42.34,11.5-1.68,5.71-3.32,11.43,27.52,8,55.06,16,1.68-5.73,3.32-11.45c-12-3.5-23.94-6.92-35.89-10.43,14.08-3.88,28.2-7.63,42.29-11.53,1.06-3.81,2.17-7.6,3.27-11.4q-27.54-8-55.06-15.94C78.77,342.6,77.68,346.41,76.57,350.22ZM872.36,388.6c-6,.83-12.06,2.29-17.1,5.78a22.64,22.64,0,0,0-10.06,15.8c-1.07,8.24,1.78,17.28,8.47,22.5,6.52,5.14,15.4,6,23.36,4.65,7.86-1,15.94-3.82,21.29-9.95,8.91-9.94,6.53-27.42-4.49-34.84C887.59,388.32,879.66,387.49,872.36,388.6Zm31.45,3.75c.36,3.17.87,6.33,1.53,9.46q3.25,2.42,6.49,4.87c-1.54,2.27-3.06,4.56-4.57,6.85.5,3.14,1,6.28,1.7,9.41,3.22-4.57,6.17-9.31,9.29-13.94-.37-2.22-.75-4.42-1.12-6.63C912.69,399,908.36,395.54,903.81,392.35ZM58.54,436.3q28.32,4.11,56.65,8.15,2.73-19,5.46-38l-9.48-1.38q-1.89,13.13-3.78,26.25c-5-.71-10-1.42-15-2.16Q94,418,95.6,406.79q-4.63-.69-9.27-1.33c-1.06,7.45-2.11,14.91-3.21,22.35q-6.66-.93-13.31-1.93c1.25-8.71,2.48-17.42,3.76-26.13Q68.79,399,64,398.38,61.22,417.33,58.54,436.3Zm-11.9-25.22c-.35,2.21-.67,4.42-1,6.64,3.2,4.56,6.27,9.21,9.63,13.66.6-3.09,1.06-6.21,1.49-9.33-1.58-2.26-3.15-4.52-4.74-6.77,1.33-1,2.68-2.09,4-3.14,4.08-2.25,2.71-7.58,3.7-11.39C55.23,404,51,407.67,46.64,411.08Zm78.84,8.62c-5.15,1.44-6,10-1.08,12.26a5.74,5.74,0,0,0,7.65-4.69C133.39,423.29,129.82,418.39,125.48,419.7Zm725.38,30.6c.12,4,.12,7.94.3,11.91,12.42-.33,24.86-.45,37.29-.69Q870,473.3,851.47,485c.08,3.95.17,7.9.16,11.85,19.12-.18,38.23-.67,57.34-.9-.11-4-.13-7.93-.26-11.88-12.47.22-25,.4-37.42.65,12.34-7.88,24.75-15.65,37.1-23.52-.12-4-.15-7.92-.25-11.88C889.05,449.66,870,449.87,850.86,450.3ZM84.64,462c-3.43-9.25-17.11-10.57-23.21-3.39-3.63,4.32-4.55,10.17-4.74,15.64-.14,7-.24,13.92-.34,20.89,19.08.25,38.17.6,57.25.91.13-7.25.23-14.5.37-21.75.07-5.45-.66-11.31-4.13-15.73-3.81-4.92-10.8-6.27-16.61-4.91C89.08,454.62,86,458.07,84.64,462Zm-9.27,66.41q0,17.18,0,34.37c-11.46,0-22.91,0-34.37,0q0,14,0,28c11.46,0,22.91,0,34.37,0q0,17.19,0,34.37h28q0-17.19,0-34.37c11.42,0,22.83,0,34.25,0v-28c-11.42,0-22.83,0-34.25,0q0-17.19,0-34.37Zm785.25,0c0,11.45,0,22.91,0,34.37H826.25q0,14,0,28c11.45,0,22.91,0,34.37,0,0,11.46,0,22.91,0,34.37h28q0-17.19,0-34.37h34.24q0-14,0-28H888.62q0-17.19,0-34.37ZM303.78,892.53c4.48,1.62,9,3.21,13.44,4.82,3.33-9.22,6.59-18.47,9.94-27.68,8.59,3.08,17.19,6.14,25.79,9.24q-4.95,13.85-9.9,27.69,6.72,2.4,13.46,4.8,11.57-32.39,23.16-64.76-6.74-2.39-13.44-4.81c-3.15,8.72-6.25,17.45-9.37,26.18q-12.92-4.59-25.8-9.24c3.09-8.73,6.23-17.45,9.35-26.17-4.49-1.6-9-3.23-13.46-4.81Q315.37,860.16,303.78,892.53Zm258-59.89c-3.55,5.6-7.61,10.88-10.9,16.65,3.68-.66,7.3-1.59,11-2.41q2.79-4.11,5.51-8.27,4.29,2.49,8.61,5c3.68-.85,7.38-1.66,11-2.66-5.67-3.61-11.59-6.8-17.41-10.16C567,831.38,564.37,832,561.78,832.64Zm-159.34.25q5.18,8.37,10.37,16.74c3.72.65,7.45,1.31,11.18,1.94q-3.35-8.09-6.75-16.13C412.3,834.6,407.37,833.72,402.44,832.89Zm205.38,5.86c7.84,21.54,15.78,43,23.61,64.58,4.48-1.62,9-3.28,13.43-4.91q-11.79-32.29-23.64-64.58Zm-37.46,9.78c-7.73,1.53-15,6.15-18.88,13.13-4.79,8.37-4.76,18.6-2.46,27.74,1.87,9.2,6.12,18.47,14,24,13.1,9.48,34.1,4.62,41.44-9.87,4.49-8.63,3.95-18.86,1.53-28-1.93-8.93-6.4-17.74-14.05-23.06C585.74,848.1,577.69,847,570.36,848.53ZM372.85,916.08c5,.89,10,1.74,15,2.61,2.37-4.36,4.71-8.74,7.06-13.1q12.14,2.1,24.28,4.22c.78,4.9,1.51,9.82,2.28,14.73,5,.86,10,1.74,15,2.59-4.56-24-9-48.06-13.6-72.08-4.33-.76-8.66-1.52-13-2.24Q391.33,884.45,372.85,916.08ZM519,858.2c.87,15,1.77,29.95,2.6,44.92q-14.94-21.74-30-43.37-7.08.48-14.18.83,2,34.29,4,68.57,7.13-.39,14.25-.83c-.9-14.94-1.73-29.88-2.63-44.83q15,21.63,29.92,43.24c4.74-.26,9.48-.53,14.23-.84-1.29-22.84-2.66-45.68-4-68.52Q526.07,857.73,519,858.2Zm66.63,62.87c-3.89.95-6.43,5.5-4.55,9.21,3.14,6.67,15.5,3.56,14.67-4C595.5,921.41,589.66,919.35,585.62,921.07Z"/><path class="cls-1" d="M582.48,76.9c5.22-1.8,11.79.81,13.93,6,2,4.87,1,10.28-.23,15.2-1.44,5.53-3.28,11.58-8.07,15.14-5.52,4.1-14.53,1.13-16.63-5.39-2.16-6.68,0-13.73,2.08-20.15C575.15,83.28,577.82,78.62,582.48,76.9Z"/><path class="cls-1" d="M384.72,80.47q5.94,9.39,11.88,18.79l-13.67,3.34C383.5,95.22,384.12,87.85,384.72,80.47Z"/><path class="cls-1" d="M318.72,97.12c4.76-1.91,10-4.82,15.22-2.64,5.91,2.39,8.7,8.65,10.83,14.22,2,5.1,3.24,11.37.11,16.28-2.6,4.22-7.64,5.57-11.94,7.33q-2.91-7.2-5.82-14.42l9.05-3.67c-.92-2.27-1.84-4.53-2.75-6.8l-9.06,3.65Q321.53,104.1,318.72,97.12Z"/><path class="cls-1" d="M629.68,118.41c4.92-5.51,9.8-11.07,14.74-16.58-.61,7.37-1.19,14.74-1.8,22.1C638.29,122.13,634,120.26,629.68,118.41Z"/><path class="cls-1" d="M417.74,178a316.84,316.84,0,0,1,80-6.37c-3.1,7.06-6.13,14.15-9.22,21.21q-35.38,0-70.76,0Q417.74,185.37,417.74,178Z"/><path class="cls-1" d="M518.12,173.23q13.65,1.54,27.13,4.24,0,15.6,0,31.19h-27Q518.07,190.95,518.12,173.23Z"/><path class="cls-1" d="M742.67,189q9.68-5.36,19.39-10.67c-3,6.73-6.06,13.47-9.11,20.2Q747.79,193.8,742.67,189Z"/><path class="cls-1" d="M282.18,243.36c32.08-26.24,69.1-46.52,108.81-58.53,0,14.51,0,29,0,43.53-.27,1.14.63,3.37-1.09,3.66-6.22,2.09-14,2.29-19.19-2.31-5.19-5.72-6.63-13.69-7.81-21.06-7.06,3.5-14.1,7-21.16,10.55a68.13,68.13,0,0,0,6.53,44.24c-12.91-3.52-26.43-9.41-33.87-21.14-9.16,0-18.31,0-27.46,0A10.74,10.74,0,0,0,282.18,243.36Z"/><path class="cls-1" d="M180.76,399.11a311.72,311.72,0,0,1,86.59-142.5c7.08,13.08,15.78,25.7,27.7,34.84,8.55,6.19,18.21,11.07,28.58,13.32q0,69.63,0,139.27h-66.5v67.62h27.5q0,106.05,0,212.11c-49.75-40.29-86.8-96.14-103.94-157.88A310.14,310.14,0,0,1,180.76,399.11Z"/><path class="cls-1" d="M374.93,273.93q39.09-.06,78.19,0v38a49.18,49.18,0,0,0-27.66,13.92Q400.23,299.84,374.93,273.93Z"/><path class="cls-1" d="M458.87,273.92h40q0,20,0,39.94c-3,2.93-5.85,6-8.81,8.94a48.17,48.17,0,0,0-31.19-11.33Q458.86,292.69,458.87,273.92Z"/><path class="cls-1" d="M373.38,281.47c16,16.35,31.91,32.8,48,49.11A52.52,52.52,0,0,0,411.17,358h-37.8Q373.39,319.76,373.38,281.47Z"/><path class="cls-1" d="M559.57,303.69c9.39-4.85,20.19-5.84,30.57-6.51,19.17-.62,38.87,1.05,56.8,8.27a39.68,39.68,0,0,1,22.38,22.73,64.06,64.06,0,0,1,4.06,27.07c-7.58-2.34-15.13-4.76-22.7-7.12,3.6,3.6,7.11,7.48,11.63,9.95,5.45,2.23,11.49,1.4,17.24,1.81-4.38,1.43-9,1.83-13.49,2.72,2.6,1.76,5.45,3.1,8.05,4.86-11.79-.28-19.68-10-27.16-17.81,2,4.4,4,8.79,5.85,13.23a81.37,81.37,0,0,1-22.33-4.8c-10.63-4.79-16.88-15.59-27.14-21-5.93-3.46-13.53-4.46-19.81-1.34-8,3.72-12.53,12.83-11.82,21.46.56,9.5,6.13,17.58,11.13,25.31q12.72,18.7,27.2,36.14c9,.58,18,.05,27,.23q69.52,0,139.06,0a127.19,127.19,0,0,1-18.41,46.94c-12,18.48-31.44,30.85-51.83,38.24,5.31,12.17,11.71,24.56,11.47,38.2a44,44,0,0,1-14.58,33.75c-12.36,12-30.43,14.17-46.78,15.55q0,25.95,0,51.91c7.26,4.72,14.77,10,18.91,17.85A9.84,9.84,0,0,1,672.77,673c-4.48,4.37-10.82,5.91-16.77,7.12q0,9.35,0,18.68c7.69-.92,15.34-2.61,23.11-2.62,2.89,0,6.83.76,7.45,4.17.8,3.5-2.55,5.89-5.33,7.11-8,3.45-16.74,4.65-25.23,6.39q0,4.21,0,8.45c10.09,2.41,20.85,9.75,22,20.86q-37.41.09-74.81,0c.4-5.32,3.41-10,7.39-13.38,4.81-4.17,10.81-7.35,17.28-7.63,0-1.2,0-2.39,0-3.58-10.8.72-22.54,0-31.68-6.43-7.17-4.93-10.83-14.12-9.58-22.64,1.36-7,6.8-12.31,12.36-16.35,8.4-6.19,18.26-9.82,27.82-13.73,1-2.09-1.85-2.32-3-2.91-14.67-5-29.07-12.72-38.78-25.09A43.32,43.32,0,0,1,578,591c2.83-8.21,9-15,16.34-19.44,10.08-6.14,21.86-9,33.55-9.86q0-26.4,0-52.8c-15.08-1.36-29.35-7.06-43-13.34-8.47-4.19-17.37-8.08-24.2-14.79-10.57-10.24-17.57-23.53-23-37.08a180.19,180.19,0,0,1-8.4-27.86q19.85,0,39.7,0c-11-13.15-21.79-26.79-28.78-42.55-4.49-10-5.48-21.22-4.85-32.05C536.49,325.59,546.58,311.82,559.57,303.69Zm83.78,16c1.1,2.77,2.17,5.82,4.75,7.59,2,1.71,4.76,1,7.15,1.05-1.06-3-2.37-6.17-5.13-7.93C648.05,319.16,645.6,319.53,643.35,319.65ZM656,511.29q0,24.19,0,48.37c15.17-.81,28.29-13.43,30.34-28.35.85-7-1.43-14.13-5.2-20C672.76,511.31,664.38,511.28,656,511.29Zm-44.4,88.48a16.85,16.85,0,0,0-1.37,18.51c3.61,6.68,10.64,10.55,17.62,12.88,0-13,0-26,0-39C621.71,592.33,615.37,594.72,611.6,599.77Zm.81,87.8c-3.19,2.91-3.72,8.82-.51,11.86,4.85,2.6,10.65,1.54,15.94,1.66,0-6.41,0-12.82,0-19.23C622.46,682.75,616.59,683.73,612.41,687.57Z"/><path class="cls-1" d="M451.6,319.05c18.17-3.79,37.72,6.32,45.74,22.92,2.23,3.39,1.42,7.53,1.53,11.35-.09,8,.17,15.95-.1,23.91a42.12,42.12,0,0,1-55.52,24A43,43,0,0,1,419.41,376a43.47,43.47,0,0,1,1.88-33.65A42.87,42.87,0,0,1,451.6,319.05Z"/><path class="cls-1" d="M858.85,348c5.63-1.84,11.26-3.66,16.89-5.51,1.25,4.27,3.09,8.39,3.85,12.79,1.07,7.65-10.42,13.11-15.31,6.9C861.35,358,860.69,352.69,858.85,348Z"/><path class="cls-1" d="M373.38,440.61q0-37.92,0-75.82,18.89,0,37.78,0a52.32,52.32,0,0,0,10.16,27.36C405.37,408.32,389.31,424.4,373.38,440.61Z"/><path class="cls-1" d="M425.52,397a48.27,48.27,0,0,0,27.59,13.93q0,16.58,0,33.17H378.86Q402.22,420.52,425.52,397Z"/><path class="cls-1" d="M871.57,401c5.51-1,11.65-1.81,16.79,1,6.2,3.28,7.45,13,2.12,17.66-4.73,4.25-11.32,5.18-17.37,6.07-4.49.54-9.41.54-13.38-1.91-5.56-3.43-6.65-12.26-2-16.85C861.43,403.28,866.61,401.82,871.57,401Z"/><path class="cls-1" d="M458.86,411.37a49.13,49.13,0,0,0,30.57-10.84c3.08,3.14,6.23,6.21,9.21,9.45.55,11.31.07,22.72.23,34.06h-40C458.86,433.15,458.88,422.26,458.86,411.37Z"/><path class="cls-1" d="M89.63,469.7c1.78-6.17,12.13-6.24,14.06-.12,1.43,4.66.3,9.62.53,14.42-5.09-.08-10.19-.2-15.28-.23C89.17,479.09,88.59,474.3,89.63,469.7Z"/><path class="cls-1" d="M67.06,470.25c1.45-5.55,10.48-5.71,12.61-.6,1.71,4.43.63,9.29.81,13.91-4.75,0-9.49-.14-14.24-.16C66.37,479,65.87,474.51,67.06,470.25Z"/><path class="cls-1" d="M358.62,511.67H535.87q0,139,0,277.9a314.88,314.88,0,0,1-177.25-20.95Z"/><path class="cls-1" d="M570.45,860.78c4.36-1.72,9.66-1.25,13.26,1.91,5.11,4.37,7,11.16,8.48,17.48s2.52,13-.23,19c-3.55,7.81-15.43,9.79-21.26,3.45s-7.48-15.23-8.85-23.44C560.7,872.19,562.93,863.22,570.45,860.78Z"/><path class="cls-1" d="M400.68,894.83q6.31-11.77,12.65-23.53c1.3,8.81,2.7,17.61,4,26.43Z"/><path class="cls-2" d="M448.76,1.2c84.21-6,170,10.43,245.75,47.69a483.71,483.71,0,0,1,254,307.24C976,457.19,969.56,567.2,930,664.19A482.73,482.73,0,1,1,448.76,1.2Zm-1.12,12.86A470.06,470.06,0,0,0,69.25,706.22a470,470,0,0,0,514.9,235.32A470.27,470.27,0,0,0,947,555.1a474.24,474.24,0,0,0-9.26-190,470.8,470.8,0,0,0-246-303.38C616.64,24.2,531.32,7.75,447.64,14.06Z"/><path class="cls-2" d="M461.28,146.44A335.41,335.41,0,0,1,598.07,166.2C658.45,188.3,711.79,228.6,750.34,280c42,55.59,65.72,124.61,67.15,194.25,1.83,66.86-16.56,134.22-52.82,190.49-33.84,52.82-82.55,96.1-139.31,122.93-64.86,30.91-139.84,39.52-210.16,25.11a332.21,332.21,0,0,1-165-87.48c-48.35-46.61-82.29-108-95.57-173.86a343.14,343.14,0,0,1,9-171.93c19.12-60.59,56.18-115.21,104.88-155.94A331.67,331.67,0,0,1,461.28,146.44ZM417.74,178q0,7.43,0,14.84,35.37,0,70.76,0c3.09-7.06,6.12-14.15,9.22-21.21A316.84,316.84,0,0,0,417.74,178Zm100.38-4.72q-.06,17.72.13,35.43h27q0-15.6,0-31.19Q531.77,174.8,518.12,173.23ZM282.18,243.36a10.74,10.74,0,0,1,4.79-1.09c9.15,0,18.3,0,27.46,0,7.44,11.73,21,17.62,33.87,21.14a68.13,68.13,0,0,1-6.53-44.24c7.06-3.5,14.1-7,21.16-10.55,1.18,7.37,2.62,15.34,7.81,21.06,5.16,4.6,13,4.4,19.19,2.31,1.72-.29.82-2.52,1.09-3.66-.06-14.51,0-29,0-43.53C351.28,196.84,314.26,217.12,282.18,243.36ZM180.76,399.11a310.14,310.14,0,0,0-.09,166.79c17.14,61.74,54.19,117.59,103.94,157.88q0-106,0-212.11h-27.5V444h66.5q0-69.65,0-139.27c-10.37-2.25-20-7.13-28.58-13.32-11.92-9.14-20.62-21.76-27.7-34.84A311.72,311.72,0,0,0,180.76,399.11ZM374.93,273.93q25.23,26,50.53,51.87a49.18,49.18,0,0,1,27.66-13.92v-38Q414,273.93,374.93,273.93Zm83.94,0q0,18.78,0,37.55a48.17,48.17,0,0,1,31.19,11.33c3-2.95,5.82-6,8.81-8.94q0-20,0-39.94Zm-85.49,7.55q0,38.28,0,76.57h37.8a52.52,52.52,0,0,1,10.17-27.46C405.29,314.27,389.39,297.82,373.38,281.47Zm186.19,22.22c-13,8.13-23.08,21.9-24.19,37.5-.63,10.83.36,22.05,4.85,32.05,7,15.76,17.81,29.4,28.78,42.55q-19.85,0-39.7,0a180.19,180.19,0,0,0,8.4,27.86c5.39,13.55,12.39,26.84,23,37.08,6.83,6.71,15.73,10.6,24.2,14.79,13.64,6.28,27.91,12,43,13.34q0,26.4,0,52.8c-11.69.88-23.47,3.72-33.55,9.86C587,576,580.8,582.75,578,591a43.32,43.32,0,0,0,7,40.45c9.71,12.37,24.11,20.11,38.78,25.09,1.2.59,4.09.82,3,2.91-9.56,3.91-19.42,7.54-27.82,13.73-5.56,4-11,9.33-12.36,16.35-1.25,8.52,2.41,17.71,9.58,22.64,9.14,6.4,20.88,7.15,31.68,6.43,0,1.19,0,2.38,0,3.58-6.47.28-12.47,3.46-17.28,7.63-4,3.39-7,8.06-7.39,13.38q37.39,0,74.81,0c-1.18-11.11-11.94-18.45-22-20.86q0-4.23,0-8.45c8.49-1.74,17.22-2.94,25.23-6.39,2.78-1.22,6.13-3.61,5.33-7.11-.62-3.41-4.56-4.15-7.45-4.17-7.77,0-15.42,1.7-23.11,2.62q0-9.35,0-18.68c6-1.21,12.29-2.75,16.77-7.12a9.84,9.84,0,0,0,2.14-11.62c-4.14-7.85-11.65-13.13-18.91-17.85q0-26,0-51.91c16.35-1.38,34.42-3.6,46.78-15.55a44,44,0,0,0,14.58-33.75c.24-13.64-6.16-26-11.47-38.2,20.39-7.39,39.86-19.76,51.83-38.24a127.19,127.19,0,0,0,18.41-46.94q-69.52,0-139.06,0c-9-.18-18.09.35-27-.23q-14.43-17.4-27.2-36.14c-5-7.73-10.57-15.81-11.13-25.31-.71-8.63,3.82-17.74,11.82-21.46,6.28-3.12,13.88-2.12,19.81,1.34,10.26,5.39,16.51,16.19,27.14,21a81.37,81.37,0,0,0,22.33,4.8c-1.89-4.44-3.88-8.83-5.85-13.23,7.48,7.83,15.37,17.53,27.16,17.81-2.6-1.76-5.45-3.1-8.05-4.86,4.49-.89,9.11-1.29,13.49-2.72-5.75-.41-11.79.42-17.24-1.81-4.52-2.47-8-6.35-11.63-9.95,7.57,2.36,15.12,4.78,22.7,7.12a64.06,64.06,0,0,0-4.06-27.07,39.68,39.68,0,0,0-22.38-22.73c-17.93-7.22-37.63-8.89-56.8-8.27C579.76,297.85,569,298.84,559.57,303.69Zm-108,15.36a42.87,42.87,0,0,0-30.31,23.26A43.47,43.47,0,0,0,419.41,376a43,43,0,0,0,23.84,25.26,42.12,42.12,0,0,0,55.52-24c.27-8,0-15.94.1-23.91-.11-3.82.7-8-1.53-11.35C489.32,325.37,469.77,315.26,451.6,319.05ZM373.38,440.61c15.93-16.21,32-32.29,47.94-48.46a52.32,52.32,0,0,1-10.16-27.36q-18.9,0-37.78,0Q373.37,402.7,373.38,440.61ZM425.52,397Q402.18,420.49,378.86,444h74.25q0-16.59,0-33.17A48.27,48.27,0,0,1,425.52,397Zm33.34,14.42c0,10.89,0,21.78,0,32.67h40c-.16-11.34.32-22.75-.23-34.06-3-3.24-6.13-6.31-9.21-9.45A49.13,49.13,0,0,1,458.86,411.37ZM358.62,511.67V768.61a314.88,314.88,0,0,0,177.25,20.95q0-138.94,0-277.9Z"/><path class="cls-2" d="M643.35,319.65c2.25-.12,4.7-.49,6.77.71,2.76,1.76,4.07,5,5.13,7.93-2.39,0-5.17.66-7.15-1.05C645.52,325.47,644.45,322.42,643.35,319.65Z"/><path class="cls-2" d="M656,511.29c8.38,0,16.76,0,25.15,0,3.77,5.91,6.05,13,5.2,20-2.05,14.92-15.17,27.54-30.34,28.35Q656,535.48,656,511.29Z"/><path class="cls-2" d="M611.6,599.77c3.77-5,10.11-7.44,16.26-7.58,0,13,0,26,0,39-7-2.33-14-6.2-17.62-12.88A16.85,16.85,0,0,1,611.6,599.77Z"/><path class="cls-2" d="M612.41,687.57c4.18-3.84,10.05-4.82,15.45-5.71,0,6.41,0,12.82,0,19.23-5.29-.12-11.09.94-15.94-1.66C608.69,696.39,609.22,690.48,612.41,687.57Z"/><path class="cls-3" d="M476.54,54q7.31-.3,14.62-.58Q481.64,66.45,472,79.44c7.15,10.49,14.76,20.68,22.08,31.07q-7.1.3-14.17.56c-5.2-7.39-10.34-14.81-15.52-22.21l-5.76,6.71c.17,5.43.41,10.87.62,16.31q-5.94.28-11.88.47c-.74-19-1.54-38.1-2.24-57.15q5.93-.26,11.86-.48c.35,8.54.66,17.08,1,25.62C464,71.4,470.31,62.72,476.54,54Z"/><path class="cls-3" d="M504.39,54c3.94.41,7.89.81,11.83,1.25-.78,7.67-1.65,15.33-2.39,23,7.55.78,15.1,1.59,22.65,2.37q1.23-11.51,2.42-23l11.83,1.23q-3,28.46-6,56.9-5.91-.57-11.82-1.24c.83-8.1,1.72-16.21,2.53-24.31q-11.33-1.22-22.66-2.38c-.87,8.1-1.69,16.21-2.57,24.31-4-.39-7.89-.81-11.83-1.22Q501.4,82.4,504.39,54Z"/><path class="cls-3" d="M375.89,67.42q5.34-1.32,10.69-2.62Q403.83,90.09,421,115.39q-6.18,1.52-12.35,3c-2.22-3.5-4.43-7-6.66-10.49-6.64,1.64-13.3,3.23-19.94,4.89-.35,4.12-.68,8.24-1,12.36-4.1,1-8.2,2-12.31,3Q372.34,97.79,375.89,67.42Zm8.83,13c-.6,7.38-1.22,14.75-1.79,22.13l13.67-3.34Q390.67,89.85,384.72,80.47Z"/><path class="cls-3" d="M579.58,67c9.28-2.11,20,1.41,25.47,9.35,4.81,6.92,5.05,16,3.05,24-1.78,7.95-5.28,16.13-12.21,20.9-11.35,8-29.42,3.06-34.89-9.77-4-9-1.93-19.16,1.34-28C565.28,75.76,571.38,68.87,579.58,67Zm2.9,9.94c-4.66,1.72-7.33,6.38-8.92,10.82-2,6.42-4.24,13.47-2.08,20.15,2.1,6.52,11.11,9.49,16.63,5.39,4.79-3.56,6.63-9.61,8.07-15.14,1.24-4.92,2.2-10.33.23-15.2C594.27,77.71,587.7,75.1,582.48,76.9Z"/><path class="cls-3" d="M304,92.6c7-2.64,13.81-6.06,21.06-8.1,10.19-2.6,21.31,2.29,26.79,11.15,4.4,7.37,7.61,16.12,6,24.81-1.36,8-7.26,14.82-14.63,18-5.86,2.52-11.83,4.79-17.72,7.22-3.18-7.77-6.29-15.57-9.46-23.34l-5.45,2.2-2.76-6.8,5.46-2.23C310.2,107.89,307.09,100.25,304,92.6Zm14.7,4.52q2.79,7,5.64,13.95l9.06-3.65c.91,2.27,1.83,4.53,2.75,6.8l-9.05,3.67q2.89,7.22,5.82,14.42c4.3-1.76,9.34-3.11,11.94-7.33,3.13-4.91,1.92-11.18-.11-16.28-2.13-5.57-4.92-11.83-10.83-14.22C328.75,92.3,323.48,95.21,318.72,97.12Z"/><path class="cls-3" d="M603,130.32l42.16-44.25q5.07,2.15,10.13,4.34c-.94,20.37-1.92,40.73-2.83,61.09-3.9-1.63-7.77-3.31-11.65-5q.48-6.19,1-12.39l-18.9-8.08c-2.75,3.07-5.48,6.17-8.21,9.27Zm26.7-11.91c4.31,1.85,8.61,3.72,12.94,5.52.61-7.36,1.19-14.73,1.8-22.1C639.48,107.34,634.6,112.9,629.68,118.41Z"/><path class="cls-3" d="M264.6,113.14q16,23.8,32,47.61c-3.28,2.21-6.59,4.39-9.85,6.64-13.28-6.06-26.51-12.23-39.79-18.29q10.38,15.51,20.82,31-4.92,3.38-9.91,6.66-16-23.77-32-47.58c3.29-2.21,6.57-4.44,9.87-6.64q19.92,9.19,39.85,18.36-10.46-15.54-20.9-31.08C258,117.57,261.31,115.39,264.6,113.14Z"/><path class="cls-3" d="M704.82,115.59c3.74,2.61,7.51,5.2,11.26,7.82-.8,7.4-1.61,14.8-2.38,22.21q10-5.09,20-10.08c3.69,2.68,7.47,5.21,11.21,7.82q-15,7-29.91,13.89c-.83,11.16-1.59,22.32-2.38,33.47-3.82-2.57-7.58-5.24-11.39-7.82.75-7.55,1.56-15.1,2.33-22.65-6.79,3.37-13.56,6.78-20.34,10.16-3.81-2.63-7.63-5.26-11.42-7.92,10.15-4.7,20.34-9.34,30.51-14C703.21,137.51,704,126.55,704.82,115.59Z"/><path class="cls-3" d="M187.77,151.56c1.67-1.5,3.35-3,5.07-4.44,5.55.26,11.11.2,16.67.48-2.42,2.12-4.53,4.69-7.31,6.33-2.67.15-5.33-.09-8-.18-.25,2.75-.49,5.49-.71,8.24a93.25,93.25,0,0,1-7.15,6.19C186.68,162.63,187.3,157.1,187.77,151.56Z"/><path class="cls-3" d="M185.65,174.11q14.28-12.81,28.59-25.57,3.24,3.6,6.47,7.22-9.84,8.82-19.69,17.64c3,3.33,5.95,6.68,9,10,5.61-5,11.19-10,16.83-15,2.09,2.31,4.18,4.63,6.24,7-5.59,5-11.23,10-16.82,15.08,3.37,3.73,6.7,7.51,10.08,11.24,6.61-5.87,13.16-11.79,19.77-17.66q3.19,3.6,6.4,7.18Q238.14,204,223.83,216.8,204.72,195.47,185.65,174.11Z"/><path class="cls-3" d="M713.54,191.29c18.13-9.24,36.36-18.29,54.5-27.53,2.7,2.49,5.39,5,8.1,7.48q-11.61,28.29-23.22,56.57c-3.1-2.89-6.22-5.75-9.29-8.64q2.57-5.64,5.09-11.29c-5-4.65-10-9.33-15.07-13.95-3.6,2-7.22,4-10.83,5.95C719.71,197,716.63,194.15,713.54,191.29ZM742.67,189q5.12,4.78,10.28,9.53c3-6.73,6.07-13.47,9.11-20.2Q752.37,183.69,742.67,189Z"/><path class="cls-3" d="M165.84,195.07c2.71-2.92,5.4-5.84,8.13-8.74q21,19.44,42.06,38.92c-2.71,2.91-5.39,5.85-8.14,8.74Z"/><path class="cls-3" d="M756.3,231.83,801,196.09c2.47,3.1,5,6.19,7.43,9.31q-7.53,20.58-15,41.19Q808,234.86,822.7,223.22q3.72,4.62,7.43,9.28-22.38,17.87-44.75,35.73c-2.48-3.09-5-6.17-7.41-9.28q7.47-20.56,15-41.11-14.61,11.64-29.2,23.3Q760,236.49,756.3,231.83Z"/><path class="cls-3" d="M242.52,204.77a5.41,5.41,0,0,1,7.81,2.66c2.1,5.58-6.17,11.58-10.49,7C236.8,211.41,239,206.36,242.52,204.77Z"/><path class="cls-3" d="M149.11,214.57q4-5.32,8-10.62,17,25.14,33.93,50.31c-2.47,3.31-5,6.6-7.4,9.93q-28.94-9.18-57.85-18.45l7.92-10.58q21,7.65,41.95,15.38Z"/><path class="cls-3" d="M791.1,276.61q24.87-14.25,49.73-28.5c2,3.46,4,6.9,5.94,10.36-6.71,3.82-13.4,7.68-20.1,11.51q5.67,9.88,11.34,19.78c6.7-3.83,13.38-7.69,20.1-11.51q3,5.16,5.93,10.34-24.85,14.28-49.73,28.51c-2-3.44-4-6.9-5.93-10.35q10.61-6.09,21.24-12.17-5.64-9.91-11.33-19.78c-7.09,4-14.17,8.12-21.26,12.16C795,283.51,793.08,280.06,791.1,276.61Z"/><path class="cls-3" d="M106.29,278.78q26,12.14,51.93,24.25c-1.65,3.62-3.34,7.23-5,10.83q-11.1-5.17-22.19-10.35c-3.24,6.87-6.43,13.77-9.65,20.65q11.08,5.2,22.19,10.37c-1.66,3.61-3.36,7.21-5.05,10.81-17.32-8.08-34.66-16.13-52-24.28q2.55-5.38,5-10.77c7,3.23,14,6.54,21,9.77q4.82-10.32,9.64-20.65-10.48-4.91-21-9.79Q103.75,284.19,106.29,278.78Z"/><path class="cls-3" d="M826.82,345.91c18.13-6,36.3-11.82,54.45-17.75,2.35,7.27,4.76,14.53,7.09,21.81,1.79,5.69,1.93,12.25-1.07,17.56-3.36,6-10.4,9.34-17.13,9.25a16.75,16.75,0,0,1-12.7-6.87c-4.3-5.48-5.48-12.53-7.84-18.91-6.37,2.06-12.72,4.16-19.1,6.2C829.27,353.44,828.06,349.67,826.82,345.91Zm32,2.09c1.84,4.69,2.5,10,5.43,14.18,4.89,6.21,16.38.75,15.31-6.9-.76-4.4-2.6-8.52-3.85-12.79C870.11,344.34,864.48,346.16,858.85,348Z"/><path class="cls-3" d="M76.57,350.22c1.11-3.81,2.2-7.62,3.32-11.42q27.54,7.93,55.06,15.94c-1.1,3.8-2.21,7.59-3.27,11.4-14.09,3.9-28.21,7.65-42.29,11.53,12,3.51,23.93,6.93,35.89,10.43q-1.65,5.73-3.32,11.45-27.54-8-55.06-16,1.65-5.71,3.32-11.43,21.16-5.76,42.34-11.5Q94.57,355.4,76.57,350.22Z"/><path class="cls-3" d="M872.36,388.6c7.3-1.11,15.23-.28,21.47,3.94,11,7.42,13.4,24.9,4.49,34.84-5.35,6.13-13.43,8.92-21.29,9.95-8,1.37-16.84.49-23.36-4.65-6.69-5.22-9.54-14.26-8.47-22.5a22.64,22.64,0,0,1,10.06-15.8C860.3,390.89,866.38,389.43,872.36,388.6ZM871.57,401c-5,.86-10.14,2.32-13.79,6-4.7,4.59-3.61,13.42,2,16.85,4,2.45,8.89,2.45,13.38,1.91,6-.89,12.64-1.82,17.37-6.07,5.33-4.64,4.08-14.38-2.12-17.66C883.22,399.15,877.08,400,871.57,401Z"/><path class="cls-3" d="M903.81,392.35c4.55,3.19,8.88,6.68,13.32,10,.37,2.21.75,4.41,1.12,6.63-3.12,4.63-6.07,9.37-9.29,13.94-.65-3.13-1.2-6.27-1.7-9.41,1.51-2.29,3-4.58,4.57-6.85q-3.24-2.46-6.49-4.87C904.68,398.68,904.17,395.52,903.81,392.35Z"/><path class="cls-3" d="M58.54,436.3q2.72-19,5.46-37.92,4.78.66,9.57,1.37c-1.28,8.71-2.51,17.42-3.76,26.13q6.66,1,13.31,1.93c1.1-7.44,2.15-14.9,3.21-22.35q4.64.65,9.27,1.33Q94,418,92.4,429.14c5,.74,10,1.45,15,2.16q1.88-13.12,3.78-26.25l9.48,1.38q-2.72,19-5.46,38Q86.85,440.39,58.54,436.3Z"/><path class="cls-3" d="M46.64,411.08c4.39-3.41,8.59-7.07,13.1-10.33-1,3.81.38,9.14-3.7,11.39-1.34,1.05-2.69,2.09-4,3.14,1.59,2.25,3.16,4.51,4.74,6.77-.43,3.12-.89,6.24-1.49,9.33-3.36-4.45-6.43-9.1-9.63-13.66C46,415.5,46.29,413.29,46.64,411.08Z"/><path class="cls-3" d="M125.48,419.7c4.34-1.31,7.91,3.59,6.57,7.57A5.74,5.74,0,0,1,124.4,432C119.44,429.7,120.33,421.14,125.48,419.7Z"/><path class="cls-3" d="M850.86,450.3c19.09-.43,38.19-.64,57.28-1,.1,4,.13,7.92.25,11.88-12.35,7.87-24.76,15.64-37.1,23.52,12.47-.25,25-.43,37.42-.65.13,4,.15,7.92.26,11.88-19.11.23-38.22.72-57.34.9,0-3.95-.08-7.9-.16-11.85q18.49-11.7,37-23.43c-12.43.24-24.87.36-37.29.69C851,458.24,851,454.27,850.86,450.3Z"/><path class="cls-3" d="M84.64,462c1.33-3.94,4.44-7.39,8.59-8.34,5.81-1.36,12.8,0,16.61,4.91,3.47,4.42,4.2,10.28,4.13,15.73-.14,7.25-.24,14.5-.37,21.75-19.08-.31-38.17-.66-57.25-.91.1-7,.2-13.93.34-20.89.19-5.47,1.11-11.32,4.74-15.64C67.53,451.44,81.21,452.76,84.64,462Zm5,7.69c-1,4.6-.46,9.39-.69,14.07,5.09,0,10.19.15,15.28.23-.23-4.8.9-9.76-.53-14.42C101.76,463.46,91.41,463.53,89.63,469.7Zm-22.57.55c-1.19,4.26-.69,8.77-.82,13.15,4.75,0,9.49.18,14.24.16-.18-4.62.9-9.48-.81-13.91C77.54,464.54,68.51,464.7,67.06,470.25Z"/><path class="cls-3" d="M303.78,892.53q11.55-32.38,23.17-64.74c4.49,1.58,9,3.21,13.46,4.81-3.12,8.72-6.26,17.44-9.35,26.17q12.88,4.65,25.8,9.24c3.12-8.73,6.22-17.46,9.37-26.18q6.72,2.42,13.44,4.81Q368.12,879,356.51,911.4q-6.74-2.39-13.46-4.8,4.92-13.86,9.9-27.69c-8.6-3.1-17.2-6.16-25.79-9.24-3.35,9.21-6.61,18.46-9.94,27.68C312.74,895.74,308.26,894.15,303.78,892.53Z"/><path class="cls-3" d="M561.78,832.64c2.59-.64,5.19-1.26,7.79-1.88,5.82,3.36,11.74,6.55,17.41,10.16-3.65,1-7.35,1.81-11,2.66q-4.32-2.48-8.61-5-2.73,4.15-5.51,8.27c-3.65.82-7.27,1.75-11,2.41C554.17,843.52,558.23,838.24,561.78,832.64Z"/><path class="cls-3" d="M402.44,832.89c4.93.83,9.86,1.71,14.8,2.55q3.39,8.05,6.75,16.13c-3.73-.63-7.46-1.29-11.18-1.94Q407.62,841.26,402.44,832.89Z"/><path class="cls-3" d="M607.82,838.75l13.4-4.91q11.84,32.28,23.64,64.58c-4.48,1.63-9,3.29-13.43,4.91C623.6,881.79,615.66,860.29,607.82,838.75Z"/><path class="cls-3" d="M570.36,848.53c7.33-1.55,15.38-.43,21.56,4,7.65,5.32,12.12,14.13,14.05,23.06,2.42,9.15,3,19.38-1.53,28-7.34,14.49-28.34,19.35-41.44,9.87-7.86-5.56-12.11-14.83-14-24-2.3-9.14-2.33-19.37,2.46-27.74C555.36,854.68,562.63,850.06,570.36,848.53Zm.09,12.25c-7.52,2.44-9.75,11.41-8.6,18.44,1.37,8.21,2.89,17.17,8.85,23.44S588.41,907,592,899.21c2.75-6,1.66-12.85.23-19s-3.37-13.11-8.48-17.48C580.11,859.53,574.81,859.06,570.45,860.78Z"/><path class="cls-3" d="M372.85,916.08q18.51-31.62,37-63.27c4.33.72,8.66,1.48,13,2.24,4.58,24,9,48.06,13.6,72.08-5-.85-10-1.73-15-2.59-.77-4.91-1.5-9.83-2.28-14.73q-12.14-2.13-24.28-4.22c-2.35,4.36-4.69,8.74-7.06,13.1C382.83,917.82,377.83,917,372.85,916.08Zm27.83-21.25,16.66,2.9c-1.31-8.82-2.71-17.62-4-26.43Q407,883.06,400.68,894.83Z"/><path class="cls-3" d="M519,858.2q7.08-.47,14.19-.83c1.31,22.84,2.68,45.68,4,68.52-4.75.31-9.49.58-14.23.84Q508,905.08,493,883.49c.9,15,1.73,29.89,2.63,44.83q-7.12.43-14.25.83-2-34.29-4-68.57,7.1-.36,14.18-.83,15.07,21.64,30,43.37C520.76,888.15,519.86,873.18,519,858.2Z"/><path class="cls-3" d="M585.62,921.07c4-1.72,9.88.34,10.12,5.24.83,7.53-11.53,10.64-14.67,4C579.19,926.57,581.73,922,585.62,921.07Z"/><path class="cls-4" d="M75.37,528.42h28q0,17.18,0,34.37c11.42,0,22.83,0,34.25,0v28c-11.42,0-22.83,0-34.25,0q0,17.19,0,34.37h-28q0-17.19,0-34.37c-11.46,0-22.91,0-34.37,0q0-14,0-28c11.46.06,22.91,0,34.37,0Q75.38,545.6,75.37,528.42Z"/><path class="cls-4" d="M860.62,528.42h28q0,17.18,0,34.37h34.24q0,14,0,28H888.62q0,17.19,0,34.37h-28c0-11.46,0-22.91,0-34.37-11.46,0-22.92,0-34.37,0q0-14,0-28h34.37C860.63,551.33,860.61,539.87,860.62,528.42Z"/></g></g></svg>