<?xml version="1.0" encoding="utf-8"?>
<!-- Generator: Adobe Illustrator 24.2.0, SVG Export Plug-In . SVG Version: 6.00 Build 0)  -->
<svg version="1.1" id="Layer_1" xmlns="http://www.w3.org/2000/svg" xmlns:xlink="http://www.w3.org/1999/xlink" x="0px" y="0px"
	 viewBox="0 0 210 60" style="enable-background:new 0 0 210 60;" xml:space="preserve">
<style type="text/css">
	.st0{fill-rule:evenodd;clip-rule:evenodd;fill:#3971B6;}
	.st1{fill:none;}
	.st2{fill-rule:evenodd;clip-rule:evenodd;fill:#373435;}
	.st3{fill:#3971B6;}
	.st4{fill:#373435;}
</style>
<g id="Layer_2_00000072997032734927079950000002519280134063555519_">
	<g id="Layer_1-2">
		<path class="st0" d="M-58.2,31.9c-0.7-2.5,3.3-3.4,3.8-1.1C-53.7,33.4-57.6,34.1-58.2,31.9z M-64.7,40c2.6,0.1,5.4,0,8,0
			s3.8-0.3,5.6-2.4c2.6-3,3.2-9.1,0.5-12.3c-1.9-2.3-3.6-1.8-6.3-1.8c-2,0-4,0.1-5.5,0.1C-62.8,26.4-64.2,35.4-64.7,40z"/>
		<path class="st0" d="M-53,22.9c4.8,1.3,5.6,5.5,5.2,9.9l8.3,0.1l1.4-10h-5.4l0.9-6.4h-9.4L-53,22.9z"/>
		<path class="st0" d="M-42.6,39.7c-0.3-0.3-1.7-1.1-2.3-1.5c-0.9-0.7-2-0.9-3.1-0.6C-48.1,38.8-44.4,41.5-42.6,39.7z"/>
		<path class="st0" d="M-35.8,34.7c2.2-0.7,4-2.2,3.8-4.7c-0.8,0.5-1.6,1.1-2.3,1.8C-35.1,32.6-35.7,33.6-35.8,34.7z"/>
		<path class="st0" d="M-33.5,26.8c2.2-0.8,3.4-3.1,3-5.3C-32.2,22.7-33.3,24.7-33.5,26.8z"/>
		<path class="st0" d="M-34.2,30.4c2.2-0.5,3.6-2.6,3.2-4.8c-0.1,0-1.7,1.7-2,2C-33.8,28.3-34.2,29.4-34.2,30.4z"/>
		<path class="st0" d="M-33.1,23.3c0.3,0,0.3,0.2,1.1-0.8c1.1-1.2,2.1-3.2,1.2-4.7c-0.2,0.2-1.3,1.9-1.5,2.3
			C-32.8,21.1-33.1,22.2-33.1,23.3z"/>
		<path class="st0" d="M-33.8,23.4c0.3-0.3,0.3-0.4,0.4-1.5c-0.1-1.7-0.4-3.3-1-4.9C-35.6,19-34.9,21.5-33.8,23.4z"/>
		<path class="st0" d="M-36.6,35.4c1.1-0.8,1.6-5,0.2-6.1c0,0.1-0.5,2.6-0.6,3C-37.2,33.3-37,34.4-36.6,35.4z"/>
		<path class="st0" d="M-37.3,37.1c2.5,0.3,4.1-0.5,4.3-3.2c-0.7,0.6-1.5,1-2.3,1.4C-36.2,35.5-37,36.2-37.3,37.1z"/>
		<path class="st0" d="M-33.9,27c0.2-2.1-0.2-4.2-1.2-6C-36.3,22.4-35,26.8-33.9,27z"/>
		<path class="st0" d="M-39.2,38.9c-1.5-0.6-3.4-1.6-5.1-1.4c0.7,1.4,2.2,2.2,3.7,2.2C-40,39.7-39.5,39.4-39.2,38.9z"/>
		<path class="st0" d="M-34.3,30.8c0.1-2.1-0.3-4.2-1.3-6C-36.8,25.8-35.9,29.8-34.3,30.8z"/>
		<path class="st0" d="M-40.5,37c2-0.2,3.4-1.9,3.2-3.9c0,0,0,0,0,0c-0.7,0.4-1.3,1-1.9,1.5C-39.9,35.3-40.3,36.1-40.5,37z"/>
		<path class="st0" d="M-47.7,37.3c1.7,0.2,4.2-1.1,4.8-2.5C-44.7,34.8-46.5,35.7-47.7,37.3z"/>
		<path class="st0" d="M-44.2,37.2c2,0.1,3.8-1.1,4.4-2.9C-41.6,34.6-43.2,35.7-44.2,37.2z"/>
		<path class="st0" d="M-40.2,37.3c0,0.2-0.3-0.2,0.2,0.3c1.2,1.3,3.8,1.3,4.7,0C-37.7,37.4-39,36.7-40.2,37.3z"/>
		<path class="st0" d="M-33,20.1c1.3-0.8,1.8-4,0.4-4.7C-33.5,16.8-33.2,18.5-33,20.1z"/>
		<path class="st1" d="M-47.6,4.3c13,0,23.6,10.6,23.6,23.6s-10.6,23.6-23.6,23.6s-23.6-10.6-23.6-23.6
			C-71.2,14.8-60.6,4.3-47.6,4.3C-47.6,4.3-47.6,4.3-47.6,4.3z"/>
		<path class="st2" d="M-57.4,7.4l1.3-0.5c0.2-0.1,0.4-0.1,0.6-0.2c0.1,0,0.3,0,0.4,0c0.1,0,0.2,0.1,0.4,0.2
			c0.1,0.1,0.2,0.2,0.2,0.3c0.1,0.1,0.1,0.3,0,0.5c0,0.2-0.1,0.3-0.2,0.4c0.2,0,0.4,0,0.6,0.1c0.2,0.1,0.3,0.2,0.4,0.4
			c0.1,0.1,0.1,0.3,0.1,0.4c0,0.2,0,0.3-0.1,0.4c-0.1,0.1-0.2,0.2-0.4,0.3l-0.8,0.3l-1.1,0.4L-57.4,7.4z M-56.6,7.6l0.3,0.7l0.4-0.2
			c0.2-0.1,0.4-0.2,0.4-0.2c0.1,0,0.2-0.1,0.2-0.2c0-0.1,0-0.2,0-0.3c0-0.1-0.1-0.2-0.2-0.2c-0.1,0-0.2,0-0.3,0l-0.5,0.2L-56.6,7.6z
			 M-56.1,8.9l0.4,0.9l0.6-0.2c0.2-0.1,0.3-0.1,0.4-0.2c0.1,0,0.2-0.1,0.2-0.2c0-0.1,0-0.2,0-0.3c0-0.2-0.2-0.3-0.4-0.3
			c-0.2,0-0.4,0.1-0.6,0.2L-56.1,8.9z M-53.5,7.7c-0.1-0.3-0.1-0.6,0-0.9c0-0.2,0.1-0.4,0.2-0.5c0.1-0.2,0.2-0.3,0.4-0.4
			c0.2-0.1,0.4-0.2,0.6-0.3c0.4-0.1,0.9-0.1,1.3,0.2c0.4,0.3,0.6,0.7,0.7,1.2c0.1,0.4,0.1,0.9-0.1,1.3C-50.6,8.7-51,8.9-51.4,9
			c-0.4,0.1-0.9,0.1-1.3-0.2C-53.1,8.5-53.4,8.1-53.5,7.7z M-52.8,7.5c0.1,0.3,0.2,0.6,0.5,0.8c0.2,0.2,0.5,0.2,0.7,0.1
			c0.3-0.1,0.5-0.2,0.6-0.5c0.1-0.3,0.1-0.6,0-0.9c-0.1-0.3-0.2-0.6-0.5-0.8c-0.2-0.2-0.5-0.2-0.7-0.1c-0.3,0.1-0.5,0.2-0.6,0.4
			C-52.8,6.9-52.9,7.2-52.8,7.5z M-52.3,5.1l-0.2,0.2L-53,5.5l0.4-0.4l0.4-0.1l0.6,0.2l-0.5,0.1L-52.3,5.1z M-51.6,10l-0.2-0.6
			l0.6-0.1l0.2,0.6L-51.6,10z M-47.1,8.6V7.1l-1.2-2h0.8l0.8,1.4l0.8-1.3h0.8l-1.3,2v1.4L-47.1,8.6z M-42.7,9.2l0.8-2.8l-1-0.3
			l0.2-0.5l2.6,0.7l-0.1,0.6l-1-0.3l-0.8,2.7L-42.7,9.2z M-40.7,9.8l1.4-3.1l2.3,1.1l-0.3,0.5l-1.7-0.8l-0.3,0.7l1.6,0.7l-0.2,0.5
			l-1.6-0.7l-0.4,0.8l1.7,0.8l-0.2,0.5L-40.7,9.8z M-37.9,7h-0.3l-0.4-0.2l0.6-0.1l0.4,0.2l0.3,0.5l-0.4-0.2L-37.9,7z M-38.1,6.7
			l0.4-0.2l0.7,0.3l-0.7,0.1L-38.1,6.7z"/>
		<path class="st2" d="M-71.9,30.8l0.3,1.4c0,0.2,0.1,0.4,0.1,0.6c0,0.1,0,0.3-0.1,0.4c-0.1,0.1-0.1,0.2-0.2,0.3
			c-0.1,0.1-0.2,0.2-0.4,0.2c-0.2,0-0.3,0-0.5,0c-0.1-0.1-0.3-0.2-0.4-0.3c0,0.2-0.1,0.4-0.2,0.5c-0.1,0.1-0.3,0.2-0.5,0.3
			c-0.2,0-0.3,0-0.5,0c-0.1,0-0.3-0.1-0.4-0.2c-0.1-0.1-0.2-0.3-0.2-0.4c0-0.1-0.1-0.4-0.2-0.8l-0.2-1.1L-71.9,30.8z M-72.3,31.6
			l-0.8,0.1l0.1,0.5c0,0.2,0.1,0.3,0.1,0.5c0,0.1,0.1,0.2,0.2,0.3c0.1,0,0.2,0,0.3,0c0.1,0,0.1,0,0.2-0.1c0.1-0.1,0.1-0.2,0.1-0.3
			c0-0.1,0-0.3-0.1-0.6L-72.3,31.6z M-73.7,31.9l-0.9,0.2l0.1,0.6c0,0.2,0.1,0.3,0.1,0.5c0,0.1,0.1,0.2,0.2,0.2c0.1,0,0.2,0,0.3,0
			c0.1,0,0.2,0,0.3-0.1c0.1-0.1,0.1-0.2,0.1-0.2c0-0.2,0-0.4-0.1-0.6L-73.7,31.9z M-74.6,34.9l3.3-1l0.7,2.5l-0.6,0.2l-0.5-1.8
			l-0.7,0.2l0.5,1.7l-0.6,0.1l-0.5-1.6l-0.9,0.2l0.6,1.8l-0.6,0.2L-74.6,34.9z M-70.5,35.1l-0.2-0.2l-0.1-0.5l0.4,0.4l0.1,0.4
			l-0.2,0.6l-0.1-0.5L-70.5,35.1z M-75.2,36.1l0.6-0.2l0.2,0.6l-0.6,0.2L-75.2,36.1z M-73.7,37.9l3.1-1.4l0.3,0.6l-1.5,2.1l2.1-1
			l0.3,0.6l-3.1,1.5l-0.3-0.6l1.5-2.2l-2,0.9L-73.7,37.9z M-72.2,41.1l3-1.7l0.4,0.6l-1.2,0.7l0.7,1.2l1.2-0.7l0.4,0.6l-3,1.7
			l-0.4-0.6l1.3-0.8l-0.7-1.2l-1.3,0.8L-72.2,41.1z M-69,45.7l1.7-3.2l0.5,0.6l-1.3,2.3l2.5-1l0.5,0.5l-3.4,1.3L-69,45.7z
			 M-67.5,47.4l2.4-2.5l0.5,0.5l-2.4,2.4L-67.5,47.4z M-66.5,48.4l2.2-2.6l1.9,1.7l-0.4,0.4l-1.4-1.2l-0.5,0.6l1.4,1.1l-0.4,0.4
			l-1.3-1.1l-0.6,0.7l1.4,1.3l-0.4,0.4L-66.5,48.4z M-62.9,46.4h-0.3l-0.3-0.3l0.6,0.1l0.3,0.3l0.2,0.6l-0.3-0.3L-62.9,46.4z
			 M-66.4,49.7l0.4-0.5l0.5,0.4l-0.4,0.5L-66.4,49.7z M-64.1,50.4l1.9-2.9l0.6,0.4l-0.1,2.7l1.2-1.9l0.5,0.3l-1.9,2.9l-0.6-0.4
			l0.1-2.6l-1.2,1.9L-64.1,50.4z M-58.6,49.7l1.1,0.5c0.2,0.1,0.4,0.2,0.6,0.3c0.2,0.1,0.3,0.3,0.3,0.5c0.1,0.2,0.1,0.4,0.1,0.6
			c0,0.3-0.1,0.5-0.2,0.8c-0.1,0.2-0.2,0.4-0.4,0.6c-0.2,0.2-0.4,0.3-0.6,0.4c-0.2,0.1-0.4,0.1-0.5,0c-0.2,0-0.4-0.1-0.6-0.2
			l-1.2-0.5L-58.6,49.7z M-58.2,50.5l-0.9,2.1l0.5,0.2c0.1,0.1,0.3,0.1,0.4,0.2c0.1,0,0.2,0,0.3,0c0.1,0,0.2-0.1,0.3-0.2
			c0.1-0.2,0.3-0.4,0.3-0.5c0.1-0.2,0.1-0.4,0.2-0.6c0-0.1,0-0.3,0-0.4c0-0.1-0.1-0.2-0.2-0.3c-0.2-0.1-0.3-0.2-0.5-0.3L-58.2,50.5z
			 M-53.8,55l-0.7-0.2l-0.1-0.8l-1.3-0.4l-0.5,0.7l-0.7-0.2l2.2-2.9l0.7,0.2L-53.8,55z M-54.7,53.4l-0.1-1.4l-0.8,1.1L-54.7,53.4z
			 M-52.1,55.4l0.5-3.4l0.7,0.1l-0.4,2.8l1.7,0.2l-0.1,0.6L-52.1,55.4z M-49.3,55.7l0.1-3.5h0.7l-0.1,3.4L-49.3,55.7z M-47.9,55.8
			l-0.1-3.4l2.5-0.1v0.6h-1.8v0.8h1.7v0.6l-1.7,0.1v0.9h1.9v0.6L-47.9,55.8z M-46.7,52l-0.3,0.2h-0.4l0.5-0.3h0.4l0.5,0.3h-0.5
			L-46.7,52z M-47.5,51.8c0-0.1,0-0.2,0.1-0.3c0.1-0.1,0.2-0.1,0.3-0.1c0.1,0,0.3,0,0.4,0.1h0.3c0.1,0,0.1,0,0.2-0.2h0.3
			c0,0.2-0.2,0.4-0.4,0.4c0,0-0.1,0-0.1,0c-0.1,0-0.3,0-0.4-0.1c-0.1,0-0.2-0.1-0.3-0.1c-0.1,0-0.2,0.1-0.2,0.2L-47.5,51.8z
			 M-45.2,52.2l0.7-0.1l0.2,1.8c0,0.2,0,0.4,0.1,0.6c0,0.1,0.1,0.2,0.2,0.3c0.1,0.1,0.3,0.1,0.5,0.1c0.2,0,0.3-0.1,0.4-0.2
			c0.1-0.1,0.1-0.2,0.1-0.3c0-0.2,0-0.4,0-0.6l-0.2-1.9l0.7-0.1l0.2,1.8c0,0.3,0.1,0.6,0,0.9c0,0.2-0.1,0.3-0.2,0.5
			c-0.1,0.1-0.2,0.2-0.4,0.3c-0.2,0.1-0.4,0.2-0.6,0.2c-0.3,0-0.5,0-0.8,0c-0.2,0-0.3-0.1-0.4-0.2c-0.1-0.1-0.2-0.2-0.2-0.4
			c-0.1-0.3-0.2-0.6-0.2-0.8L-45.2,52.2z M-39.3,54.5l-0.9-2.7l-1,0.3l-0.2-0.5l2.6-0.9l0.2,0.5l-1,0.3l0.9,2.7L-39.3,54.5z
			 M-37.3,53.8l-1.4-3.1l1.3-0.6c0.2-0.1,0.5-0.2,0.8-0.2c0.2,0,0.4,0,0.5,0.1c0.2,0.1,0.3,0.3,0.3,0.4c0.1,0.2,0.1,0.5,0.1,0.7
			c-0.1,0.2-0.3,0.4-0.5,0.6c0.2,0,0.3,0.1,0.5,0.1c0.2,0.1,0.4,0.2,0.6,0.3l0.7,0.5l-0.8,0.3l-0.8-0.5c-0.2-0.1-0.4-0.2-0.5-0.3
			c-0.1,0-0.2,0-0.2,0c-0.1,0-0.2,0.1-0.3,0.1l-0.1,0.1l0.6,1.3L-37.3,53.8z M-37.5,51.7l0.5-0.2c0.2-0.1,0.4-0.2,0.5-0.3
			c0.1,0,0.1-0.1,0.1-0.2c0-0.1,0-0.2,0-0.3c0-0.1-0.1-0.2-0.2-0.2c-0.1,0-0.2,0-0.3,0l-0.5,0.2l-0.5,0.2L-37.5,51.7z M-36,49.5
			l0.6-0.4l1,1.6c0.1,0.2,0.2,0.3,0.3,0.5c0.1,0.1,0.2,0.2,0.3,0.2c0.2,0,0.3-0.1,0.4-0.1c0.1-0.1,0.2-0.2,0.3-0.3
			c0-0.1,0-0.2,0-0.3c-0.1-0.2-0.2-0.3-0.3-0.5l-1-1.6l0.6-0.4l1,1.5c0.2,0.2,0.3,0.5,0.4,0.7c0.1,0.1,0.1,0.3,0.1,0.5
			c0,0.2-0.1,0.3-0.2,0.5c-0.1,0.2-0.3,0.3-0.5,0.5c-0.2,0.2-0.4,0.3-0.7,0.3c-0.2,0-0.3,0-0.5,0c-0.1,0-0.3-0.1-0.4-0.2
			c-0.2-0.2-0.4-0.4-0.5-0.7L-36,49.5z M-31.2,50.5l-2.1-2.7l0.5-0.4l2.6,0.9l-1.4-1.8l0.5-0.4l2.1,2.7l-0.5,0.4l-2.5-0.9l1.4,1.8
			L-31.2,50.5z M-28.4,46.3l-0.4-0.4l1-1.1l1,1c0,0.2-0.1,0.5-0.2,0.7c-0.1,0.3-0.3,0.5-0.5,0.7c-0.2,0.2-0.5,0.4-0.8,0.5
			c-0.3,0.1-0.6,0.1-0.9,0c-0.3-0.1-0.6-0.3-0.8-0.5c-0.2-0.2-0.4-0.5-0.5-0.8c-0.1-0.3-0.1-0.6,0-0.9c0.1-0.3,0.2-0.5,0.5-0.7
			c0.2-0.3,0.5-0.5,0.9-0.5c0.3,0,0.6,0,0.8,0.2l-0.4,0.6c-0.1-0.1-0.3-0.1-0.5-0.1c-0.2,0-0.3,0.1-0.5,0.3
			c-0.2,0.2-0.3,0.5-0.3,0.7c0,0.3,0.2,0.6,0.4,0.8c0.2,0.3,0.5,0.4,0.8,0.4c0.3,0,0.5-0.1,0.7-0.3c0.1-0.1,0.2-0.2,0.2-0.4
			c0.1-0.1,0.1-0.3,0.1-0.4l-0.3-0.3L-28.4,46.3z M-26.4,40.2l0.4-0.5l0.4,0.3c0.1,0.1,0.3,0.2,0.4,0.3c0.1,0.1,0.1,0.2,0.1,0.3
			c0,0.2,0,0.5-0.1,0.7l0.3,0.2c0.3,0.2,0.5,0.3,0.7,0.5c0.1,0.1,0.2,0.3,0.2,0.4c0.1,0.4,0,0.8-0.3,1.1c-0.2,0.4-0.6,0.7-1,0.7
			c-0.1,0-0.3,0-0.4,0c-0.3-0.1-0.5-0.2-0.8-0.4l-1.5-1l0.4-0.6l1.5,1c0.2,0.1,0.3,0.2,0.5,0.3c0.3,0.1,0.6,0,0.8-0.3
			c0.2-0.3,0.2-0.5,0-0.7c-0.1-0.1-0.3-0.2-0.5-0.3l-1.6-1l0.4-0.6l1,0.7c0.1-0.2,0.1-0.4,0-0.5c-0.1-0.1-0.1-0.2-0.2-0.2l-0.2,0.3
			L-26.4,40.2z M-24.3,40c0.3,0.2,0.6,0.2,0.9,0.1c0.3-0.1,0.5-0.3,0.5-0.5c0.1-0.2,0.1-0.5,0-0.7c-0.3-0.5-1-0.8-1.6-0.7
			c-0.2,0.1-0.5,0.3-0.5,0.5c-0.1,0.2-0.1,0.5,0,0.8C-24.9,39.7-24.6,39.9-24.3,40L-24.3,40z M-24.9,37l0.3-0.6l0.4,0.2
			c0.1,0,0.3,0.1,0.4,0.2c0.1,0.1,0.2,0.2,0.2,0.3c0,0.1,0,0.3,0,0.4l0.3,0.1c0.4,0.2,0.8,0.5,1,1c0.2,0.4,0.2,0.9,0,1.3
			c-0.2,0.4-0.5,0.8-0.9,0.9c-0.5,0.1-0.9,0.1-1.4-0.1c-0.4-0.2-0.8-0.6-1-1c-0.2-0.4-0.1-0.9,0.1-1.3c0.2-0.4,0.5-0.8,0.9-0.9
			c0.3-0.1,0.5-0.1,0.8-0.1c0-0.2-0.1-0.4-0.3-0.4l-0.2,0.3L-24.9,37z M-21.4,37.4l-3.2-1.1l0.2-0.6l2.6-0.6l-2.2-0.7l0.2-0.6
			l3.2,1.1l-0.2,0.7l-2.5,0.6l2.1,0.7L-21.4,37.4z M-21.3,32.3l-0.6-0.1l0.3-1.5l1.3,0.3c0.1,0.2,0.2,0.4,0.2,0.7
			c0.1,0.3,0.1,0.6,0,0.9c-0.1,0.3-0.2,0.6-0.4,0.9c-0.2,0.2-0.5,0.4-0.7,0.5c-0.3,0.1-0.6,0.1-0.9,0c-0.3-0.1-0.6-0.2-0.9-0.4
			c-0.2-0.2-0.4-0.5-0.5-0.8c-0.1-0.3-0.1-0.6,0-0.8c0-0.4,0.2-0.7,0.5-0.9c0.2-0.2,0.5-0.3,0.8-0.3v0.7c-0.2,0-0.3,0.1-0.5,0.2
			c-0.1,0.1-0.2,0.3-0.2,0.5c-0.1,0.3,0,0.5,0.1,0.8c0.2,0.2,0.5,0.4,0.8,0.4c0.3,0.1,0.7,0,1-0.1c0.2-0.1,0.4-0.4,0.4-0.6
			c0-0.1,0-0.3,0-0.5c0-0.1-0.1-0.3-0.1-0.4l-0.4-0.1L-21.3,32.3z"/>
	</g>
</g>
<g id="Layer_2_00000072989974963593496190000009704132395409649333_">
	<g id="Layer_1-2_1_">
		<path class="st0" d="M21.5,31.8c-0.7-2.5,3.3-3.4,3.8-1.1C26,33.3,22.1,34.1,21.5,31.8z M14.9,40c2.6,0.1,5.4,0,8,0
			s3.8-0.3,5.6-2.4c2.6-3,3.2-9.1,0.5-12.3c-1.9-2.3-3.6-1.8-6.3-1.8c-2,0-4,0.1-5.5,0.1C16.8,26.3,15.5,35.4,14.9,40z"/>
		<path class="st0" d="M26.7,22.9c4.8,1.3,5.6,5.5,5.2,9.9l8.3,0.1l1.4-10h-5.4l0.9-6.4h-9.4L26.7,22.9z"/>
		<path class="st0" d="M37,39.7c-0.3-0.3-1.7-1.1-2.3-1.5c-0.9-0.7-2-0.9-3.1-0.6C31.6,38.8,35.2,41.5,37,39.7z"/>
		<path class="st0" d="M43.9,34.7c2.2-0.7,4-2.2,3.8-4.7c-0.8,0.5-1.6,1.1-2.3,1.8C44.5,32.6,44,33.6,43.9,34.7z"/>
		<path class="st0" d="M46.1,26.8c2.2-0.8,3.4-3.1,3-5.3C47.5,22.7,46.4,24.6,46.1,26.8z"/>
		<path class="st0" d="M45.4,30.4c2.2-0.5,3.6-2.6,3.2-4.8c-0.1,0-1.7,1.7-2,2C45.9,28.3,45.5,29.3,45.4,30.4z"/>
		<path class="st0" d="M46.6,23.3c0.3,0,0.3,0.2,1.1-0.8c1.1-1.2,2.1-3.2,1.2-4.7c-0.2,0.2-1.3,1.9-1.5,2.3
			C46.9,21.1,46.6,22.2,46.6,23.3z"/>
		<path class="st0" d="M45.9,23.3c0.3-0.3,0.3-0.4,0.4-1.5c-0.1-1.7-0.4-3.3-1-4.9C44.1,19,44.8,21.5,45.9,23.3z"/>
		<path class="st0" d="M43.1,35.4c1.1-0.8,1.6-5,0.2-6.1c0,0.1-0.5,2.6-0.6,3C42.5,33.3,42.7,34.4,43.1,35.4z"/>
		<path class="st0" d="M42.4,37.1c2.5,0.3,4.1-0.5,4.3-3.2c-0.7,0.6-1.5,1-2.3,1.4C43.5,35.5,42.7,36.1,42.4,37.1z"/>
		<path class="st0" d="M45.8,27c0.2-2.1-0.2-4.2-1.2-6C43.4,22.3,44.6,26.8,45.8,27z"/>
		<path class="st0" d="M40.5,38.9c-1.5-0.6-3.4-1.6-5.1-1.4c0.7,1.4,2.2,2.2,3.7,2.2C39.7,39.6,40.2,39.3,40.5,38.9z"/>
		<path class="st0" d="M45.4,30.8c0.1-2.1-0.3-4.2-1.3-6C42.9,25.8,43.7,29.7,45.4,30.8z"/>
		<path class="st0" d="M39.2,37c2-0.2,3.4-1.9,3.2-3.9c0,0,0,0,0,0c-0.7,0.4-1.3,1-1.9,1.5C39.8,35.2,39.3,36.1,39.2,37z"/>
		<path class="st0" d="M32,37.2c1.7,0.2,4.2-1.1,4.8-2.5C34.9,34.7,33.1,35.7,32,37.2z"/>
		<path class="st0" d="M35.5,37.2c2,0.1,3.8-1.1,4.4-2.9C38.1,34.6,36.5,35.7,35.5,37.2z"/>
		<path class="st0" d="M39.5,37.2c0,0.2-0.3-0.2,0.2,0.3c1.2,1.3,3.8,1.3,4.7,0C42,37.4,40.6,36.7,39.5,37.2z"/>
		<path class="st0" d="M46.6,20.1c1.3-0.8,1.8-4,0.4-4.7C46.1,16.8,46.4,18.5,46.6,20.1z"/>
		<path class="st1" d="M32.1,4.2c13,0,23.6,10.6,23.6,23.6S45.1,51.4,32.1,51.4S8.5,40.8,8.5,27.8C8.5,14.8,19.1,4.2,32.1,4.2
			C32.1,4.2,32.1,4.2,32.1,4.2z"/>
		<path class="st2" d="M22.2,7.3l1.3-0.5c0.2-0.1,0.4-0.1,0.6-0.2c0.1,0,0.3,0,0.4,0c0.1,0,0.2,0.1,0.4,0.2C24.9,6.9,25,7,25,7.1
			c0.1,0.1,0.1,0.3,0,0.5c0,0.2-0.1,0.3-0.2,0.4c0.2,0,0.4,0,0.6,0.1c0.2,0.1,0.3,0.2,0.4,0.4c0.1,0.1,0.1,0.3,0.1,0.4
			c0,0.2,0,0.3-0.1,0.4c-0.1,0.1-0.2,0.2-0.4,0.3l-0.8,0.3l-1.1,0.4L22.2,7.3z M23.1,7.6l0.3,0.7l0.4-0.2C24,8.1,24.2,8,24.2,8
			c0.1,0,0.2-0.1,0.2-0.2c0-0.1,0-0.2,0-0.3c0-0.1-0.1-0.2-0.2-0.2c-0.1,0-0.2,0-0.3,0l-0.5,0.2L23.1,7.6z M23.6,8.9l0.4,0.8
			l0.6-0.2c0.2-0.1,0.3-0.1,0.4-0.2c0.1,0,0.2-0.1,0.2-0.2c0-0.1,0-0.2,0-0.3c0-0.2-0.2-0.3-0.4-0.3c-0.2,0-0.4,0.1-0.6,0.2
			L23.6,8.9z M26.2,7.7c-0.1-0.3-0.1-0.6,0-0.9c0-0.2,0.1-0.4,0.2-0.5c0.1-0.2,0.2-0.3,0.4-0.4c0.2-0.1,0.4-0.2,0.6-0.3
			c0.4-0.1,0.9-0.1,1.3,0.2c0.4,0.3,0.6,0.7,0.7,1.2c0.1,0.4,0.1,0.9-0.1,1.4c-0.2,0.4-0.6,0.7-1.1,0.7c-0.4,0.1-0.9,0.1-1.3-0.2
			C26.6,8.5,26.3,8.1,26.2,7.7z M26.9,7.5c0.1,0.3,0.2,0.6,0.5,0.8c0.2,0.2,0.5,0.2,0.7,0.1c0.3-0.1,0.5-0.2,0.6-0.4
			c0.1-0.3,0.1-0.6,0-0.9c-0.1-0.3-0.2-0.6-0.5-0.8c-0.2-0.2-0.5-0.2-0.7-0.1c-0.3,0.1-0.5,0.2-0.6,0.4C26.8,6.8,26.8,7.2,26.9,7.5z
			 M27.3,5.1l-0.2,0.2l-0.5,0.1L27.1,5L27.5,5l0.6,0.2l-0.5,0.1L27.3,5.1z M28.1,9.9l-0.2-0.7l0.6-0.1l0.1,0.6L28.1,9.9z M32.6,8.6
			V7.1l-1.2-2h0.8L33,6.5l0.8-1.3h0.8l-1.3,2v1.4L32.6,8.6z M36.9,9.2l0.8-2.8l-1-0.3l0.2-0.5l2.6,0.7l-0.1,0.6l-1-0.3l-0.8,2.7
			L36.9,9.2z M39,9.8l1.4-3.1l2.3,1.1l-0.3,0.5l-1.7-0.8l-0.3,0.7l1.6,0.7l-0.2,0.5l-1.6-0.7l-0.4,0.8l1.7,0.8l-0.2,0.5L39,9.8z
			 M41.8,7h-0.3l-0.4-0.2l0.6-0.1L42,6.9l0.3,0.5l-0.4-0.2L41.8,7z M41.6,6.7L42,6.4l0.7,0.3L42,6.8L41.6,6.7z"/>
		<path class="st2" d="M7.7,30.8L8,32.2c0,0.2,0.1,0.4,0.1,0.6c0,0.1,0,0.3-0.1,0.4c-0.1,0.1-0.1,0.2-0.2,0.3
			c-0.1,0.1-0.2,0.2-0.4,0.2c-0.2,0-0.3,0-0.5,0c-0.1-0.1-0.3-0.2-0.4-0.3c0,0.2-0.1,0.4-0.2,0.5C6.3,33.9,6.1,34,5.9,34
			c-0.2,0-0.3,0-0.5,0c-0.1,0-0.3-0.1-0.4-0.2c-0.1-0.1-0.2-0.3-0.2-0.4c0-0.1-0.1-0.4-0.2-0.8l-0.2-1.1L7.7,30.8z M7.3,31.6
			l-0.8,0.1l0.1,0.5c0,0.2,0.1,0.3,0.1,0.5c0,0.1,0.1,0.2,0.2,0.3c0.1,0,0.2,0,0.3,0c0.1,0,0.1,0,0.2-0.1c0.1-0.1,0.1-0.2,0.1-0.3
			c0-0.1,0-0.3-0.1-0.6L7.3,31.6z M6,31.9L5.1,32l0.1,0.6c0,0.2,0.1,0.3,0.1,0.5c0,0.1,0.1,0.2,0.2,0.2c0.1,0,0.2,0,0.3,0
			c0.1,0,0.2,0,0.3-0.1c0.1-0.1,0.1-0.2,0.1-0.2c0-0.2,0-0.4-0.1-0.6L6,31.9z M5.1,34.9l3.3-1l0.7,2.4l-0.6,0.2L8,34.7l-0.7,0.2
			l0.4,1.7l-0.6,0.1l-0.5-1.6l-0.9,0.2l0.6,1.8l-0.6,0.2L5.1,34.9z M9.2,35.1L9,34.9l-0.1-0.5l0.4,0.4l0.1,0.4l-0.2,0.6l-0.1-0.5
			L9.2,35.1z M4.4,36.1l0.6-0.2l0.2,0.6l-0.6,0.2L4.4,36.1z M6,37.9l3.1-1.4l0.3,0.6l-1.5,2.1l2.1-1l0.3,0.6l-3.1,1.5l-0.3-0.6
			l1.5-2.2l-2,0.9L6,37.9z M7.5,41l3-1.7l0.3,0.6l-1.2,0.7l0.7,1.2l1.2-0.7l0.4,0.6l-3,1.7l-0.4-0.6L9.8,42l-0.7-1.2l-1.3,0.8
			L7.5,41z M10.6,45.7l1.7-3.2l0.5,0.6l-1.3,2.3l2.5-1l0.5,0.5l-3.4,1.3L10.6,45.7z M12.2,47.4l2.4-2.5l0.5,0.5l-2.4,2.4L12.2,47.4z
			 M13.2,48.4l2.2-2.6l1.9,1.7l-0.4,0.4l-1.4-1.2L15,47.2l1.4,1.1L16,48.8l-1.3-1.1l-0.6,0.7l1.4,1.3L15.2,50L13.2,48.4z M16.8,46.4
			h-0.3l-0.3-0.3l0.6,0.1l0.3,0.3l0.2,0.6l-0.3-0.3L16.8,46.4z M13.3,49.7l0.4-0.5l0.5,0.4l-0.4,0.5L13.3,49.7z M15.6,50.4l1.9-2.9
			l0.6,0.4L18,50.5l1.2-1.9l0.5,0.3l-1.9,2.9l-0.6-0.4l0.1-2.6l-1.2,1.9L15.6,50.4z M21.1,49.7l1.1,0.5c0.2,0.1,0.4,0.2,0.6,0.3
			c0.2,0.1,0.3,0.3,0.3,0.5c0.1,0.2,0.1,0.4,0.1,0.6c0,0.3-0.1,0.5-0.2,0.8c-0.1,0.2-0.2,0.4-0.4,0.6c-0.2,0.2-0.4,0.3-0.6,0.4
			c-0.2,0.1-0.4,0.1-0.5,0c-0.2,0-0.4-0.1-0.6-0.2l-1.2-0.5L21.1,49.7z M21.5,50.5l-0.9,2.1l0.5,0.2c0.1,0.1,0.3,0.1,0.4,0.2
			c0.1,0,0.2,0,0.3,0c0.1,0,0.2-0.1,0.3-0.2c0.1-0.2,0.3-0.4,0.3-0.5c0.1-0.2,0.1-0.4,0.2-0.6c0-0.1,0-0.3,0-0.4
			c0-0.1-0.1-0.2-0.2-0.3c-0.2-0.1-0.3-0.2-0.5-0.3L21.5,50.5z M25.8,55l-0.7-0.2L25,54l-1.3-0.4l-0.5,0.7l-0.7-0.2l2.2-2.9l0.7,0.2
			L25.8,55z M25,53.4L24.9,52l-0.8,1.1L25,53.4z M27.5,55.4L28,52l0.7,0.1l-0.4,2.8l1.7,0.2l-0.1,0.6L27.5,55.4z M30.4,55.7l0.1-3.5
			h0.7l-0.1,3.4L30.4,55.7z M31.7,55.8l-0.1-3.4l2.5-0.1v0.6h-1.8v0.8h1.7v0.6l-1.7,0.1v0.9h1.9v0.6L31.7,55.8z M33,52l-0.3,0.2
			h-0.4l0.5-0.3h0.4l0.5,0.3h-0.5L33,52z M32.2,51.8c0-0.1,0-0.2,0.1-0.3c0.1-0.1,0.2-0.1,0.3-0.1c0.1,0,0.3,0,0.4,0.1h0.3
			c0.1,0,0.1,0,0.2-0.2h0.3c0,0.2-0.2,0.4-0.4,0.4c0,0-0.1,0-0.1,0c-0.1,0-0.3,0-0.4-0.1c-0.1,0-0.2-0.1-0.3-0.1
			c-0.1,0-0.2,0.1-0.2,0.2L32.2,51.8z M34.5,52.2l0.7-0.1l0.2,1.8c0,0.2,0,0.4,0.1,0.6c0,0.1,0.1,0.2,0.2,0.3
			c0.1,0.1,0.3,0.1,0.5,0.1c0.2,0,0.3-0.1,0.4-0.2c0.1-0.1,0.1-0.2,0.1-0.3c0-0.2,0-0.4,0-0.6l-0.2-1.9l0.7-0.1l0.2,1.8
			c0,0.3,0.1,0.6,0,0.9c0,0.2-0.1,0.3-0.2,0.5c-0.1,0.1-0.2,0.2-0.4,0.3c-0.2,0.1-0.4,0.2-0.6,0.2c-0.3,0-0.5,0-0.8,0
			c-0.2,0-0.3-0.1-0.4-0.2c-0.1-0.1-0.2-0.2-0.2-0.4c-0.1-0.3-0.2-0.6-0.2-0.8L34.5,52.2z M40.4,54.5l-0.9-2.7l-1,0.3l-0.2-0.5
			l2.6-0.9l0.2,0.5l-1,0.3l0.9,2.7L40.4,54.5z M42.4,53.8L41,50.6l1.3-0.6c0.2-0.1,0.5-0.2,0.8-0.2c0.2,0,0.4,0,0.5,0.1
			c0.2,0.1,0.3,0.3,0.3,0.4C44,50.6,44,50.8,44,51c-0.1,0.2-0.3,0.4-0.5,0.6c0.2,0,0.3,0.1,0.5,0.1c0.2,0.1,0.4,0.2,0.6,0.3l0.7,0.5
			l-0.8,0.3l-0.8-0.5c-0.2-0.1-0.4-0.2-0.5-0.3c-0.1,0-0.2,0-0.2,0c-0.1,0-0.2,0.1-0.3,0.1l-0.1,0.1l0.6,1.3L42.4,53.8z M42.2,51.7
			l0.5-0.2c0.2-0.1,0.4-0.2,0.5-0.3c0.1,0,0.1-0.1,0.1-0.2c0-0.1,0-0.2,0-0.3c0-0.1-0.1-0.2-0.2-0.2c-0.1,0-0.2,0-0.3,0l-0.5,0.2
			l-0.5,0.2L42.2,51.7z M43.7,49.5l0.6-0.4l1,1.6c0.1,0.2,0.2,0.3,0.3,0.5c0.1,0.1,0.2,0.2,0.3,0.2c0.2,0,0.3-0.1,0.4-0.1
			c0.1-0.1,0.2-0.2,0.3-0.3c0-0.1,0-0.2,0-0.3c-0.1-0.2-0.2-0.3-0.3-0.5l-1-1.6L46,48l1,1.5c0.2,0.2,0.3,0.5,0.4,0.7
			c0.1,0.1,0.1,0.3,0.1,0.5c0,0.2-0.1,0.3-0.2,0.5c-0.1,0.2-0.3,0.3-0.5,0.5c-0.2,0.2-0.4,0.3-0.7,0.3c-0.2,0-0.3,0-0.5,0
			c-0.1,0-0.3-0.1-0.4-0.2c-0.2-0.2-0.4-0.4-0.5-0.7L43.7,49.5z M48.4,50.5l-2.1-2.7l0.5-0.4l2.6,0.9L48,46.5l0.5-0.4l2.1,2.7
			l-0.5,0.4l-2.5-0.9L49,50L48.4,50.5z M51.3,46.2l-0.4-0.4l1-1.1l1,1c0,0.2-0.1,0.5-0.2,0.7c-0.1,0.3-0.3,0.5-0.5,0.7
			c-0.2,0.2-0.5,0.4-0.8,0.5c-0.3,0.1-0.6,0.1-0.9,0c-0.3-0.1-0.6-0.3-0.8-0.5c-0.2-0.2-0.4-0.5-0.5-0.8c-0.1-0.3-0.1-0.6,0-0.9
			c0.1-0.3,0.2-0.5,0.5-0.7c0.2-0.3,0.5-0.5,0.9-0.5c0.3,0,0.6,0,0.8,0.2L51,45c-0.1-0.1-0.3-0.1-0.5-0.1c-0.2,0-0.3,0.1-0.5,0.3
			c-0.2,0.2-0.3,0.5-0.3,0.7c0,0.3,0.2,0.6,0.4,0.8c0.2,0.3,0.5,0.4,0.8,0.4c0.3,0,0.5-0.1,0.7-0.3c0.1-0.1,0.2-0.2,0.2-0.4
			c0.1-0.1,0.1-0.3,0.1-0.4l-0.3-0.3L51.3,46.2z M53.2,40.2l0.4-0.5l0.4,0.3c0.1,0.1,0.3,0.2,0.4,0.3c0.1,0.1,0.1,0.2,0.1,0.3
			c0,0.2,0,0.5-0.1,0.7l0.3,0.2c0.3,0.2,0.5,0.3,0.7,0.5c0.1,0.1,0.2,0.3,0.2,0.4c0.1,0.4,0,0.8-0.3,1.1c-0.2,0.4-0.6,0.7-1,0.7
			c-0.1,0-0.3,0-0.4,0c-0.3-0.1-0.5-0.2-0.8-0.4l-1.5-1l0.4-0.6l1.5,1c0.2,0.1,0.3,0.2,0.5,0.3c0.3,0.1,0.6,0,0.8-0.3
			c0.2-0.3,0.2-0.5,0-0.7c-0.1-0.1-0.3-0.2-0.5-0.3l-1.6-1l0.4-0.6l1,0.7c0.1-0.2,0.1-0.4,0-0.5c-0.1-0.1-0.1-0.2-0.2-0.2l-0.2,0.3
			L53.2,40.2z M55.3,40c0.3,0.2,0.6,0.2,0.9,0.1c0.3-0.1,0.5-0.3,0.5-0.5c0.1-0.2,0.1-0.5,0-0.7c-0.3-0.5-1-0.8-1.6-0.7
			c-0.2,0.1-0.5,0.3-0.5,0.5c-0.1,0.2-0.1,0.5,0,0.8C54.8,39.6,55,39.8,55.3,40L55.3,40z M54.8,37l0.3-0.6l0.4,0.2
			c0.1,0,0.3,0.1,0.4,0.2c0.1,0.1,0.2,0.2,0.2,0.3c0,0.1,0,0.3,0,0.4l0.3,0.1c0.4,0.2,0.8,0.5,1,1c0.2,0.4,0.2,0.9,0,1.3
			c-0.2,0.4-0.5,0.8-0.9,0.9c-0.5,0.1-0.9,0.1-1.4-0.1c-0.4-0.2-0.8-0.6-1-1c-0.2-0.4-0.1-0.9,0.1-1.3c0.2-0.4,0.5-0.8,0.9-0.9
			c0.3-0.1,0.5-0.1,0.8-0.1c0-0.2-0.1-0.4-0.3-0.4l-0.2,0.3L54.8,37z M58.3,37.4L55,36.3l0.2-0.6l2.6-0.6l-2.2-0.7l0.2-0.6l3.2,1.1
			l-0.2,0.7l-2.5,0.6l2.1,0.7L58.3,37.4z M58.3,32.3l-0.6-0.1l0.3-1.5l1.3,0.3c0.1,0.2,0.2,0.4,0.2,0.7c0.1,0.3,0.1,0.6,0,0.9
			c-0.1,0.3-0.2,0.6-0.4,0.9c-0.2,0.2-0.5,0.4-0.7,0.5c-0.3,0.1-0.6,0.1-0.9,0c-0.3-0.1-0.6-0.2-0.9-0.4c-0.2-0.2-0.4-0.5-0.5-0.8
			c-0.1-0.3-0.1-0.6,0-0.8c0-0.4,0.2-0.7,0.5-0.9c0.2-0.2,0.5-0.3,0.8-0.3v0.7c-0.2,0-0.3,0.1-0.5,0.2c-0.1,0.1-0.2,0.3-0.2,0.5
			c-0.1,0.3,0,0.5,0.1,0.8c0.2,0.2,0.5,0.4,0.8,0.4c0.3,0.1,0.7,0,1-0.1c0.2-0.1,0.4-0.4,0.4-0.7c0-0.1,0-0.3,0-0.5
			c0-0.1-0.1-0.3-0.1-0.4l-0.4-0.1L58.3,32.3z"/>
		<path class="st3" d="M77.6,25.2c0-0.4-0.1-0.8-0.4-1.1c-0.4-0.3-0.9-0.6-1.3-0.7c-0.5-0.2-1.1-0.5-1.5-0.8
			c-0.3-0.2-0.6-0.5-0.8-0.9c-0.2-0.4-0.3-0.7-0.2-1.1c0-0.7,0.2-1.3,0.7-1.8c0.5-0.5,1.2-0.8,1.9-0.7c0.5,0,1,0.1,1.4,0.4
			c0.4,0.2,0.8,0.6,1,1c0.2,0.4,0.3,0.9,0.3,1.4h-1.2c0-0.5-0.1-1-0.4-1.3c-0.6-0.6-1.6-0.6-2.3-0.1c-0.3,0.3-0.4,0.7-0.4,1.1
			c0,0.4,0.1,0.7,0.4,1c0.4,0.3,0.8,0.5,1.3,0.7c0.8,0.2,1.4,0.6,2,1.1c0.4,0.5,0.6,1.1,0.6,1.7c0,0.7-0.2,1.3-0.7,1.8
			c-0.5,0.5-1.3,0.7-2,0.7c-0.5,0-1-0.1-1.5-0.4c-0.4-0.2-0.8-0.6-1.1-1c-0.3-0.4-0.4-1-0.4-1.5h1.2c0,0.5,0.1,1,0.5,1.3
			c0.4,0.3,0.8,0.5,1.3,0.5c0.4,0,0.8-0.1,1.1-0.4C77.5,26,77.6,25.6,77.6,25.2z"/>
		<path id="_1" class="st3" d="M86.5,20.1c0,0.6-0.1,1.1-0.4,1.6c-0.3,0.4-0.8,0.5-1.3,0.5v5.3h-1.1v-0.6c-0.4,0.5-1,0.8-1.6,0.7
			c-0.6,0-1.1-0.2-1.4-0.6c-0.4-0.6-0.5-1.2-0.5-1.9v-4.5h1.1V25c0,1.1,0.3,1.6,1,1.6c0.6,0,1.2-0.3,1.4-0.9v-5.1h1.1v0.8
			c0.2,0,0.4-0.1,0.5-0.2c0.2-0.2,0.2-0.4,0.2-0.6v-0.6L86.5,20.1z M83.2,17.9h1.4l-1.7,1.9h-1L83.2,17.9z"/>
		<path id="_2" class="st3" d="M89.8,26.7c0.3,0,0.7-0.1,0.9-0.4c0.2-0.3,0.4-0.6,0.4-1h1.1c0,0.6-0.3,1.2-0.7,1.7
			c-0.4,0.4-1,0.7-1.6,0.7c-0.8,0.1-1.5-0.2-2-0.8c-0.5-0.7-0.7-1.6-0.7-2.4v-0.8c-0.1-0.8,0.2-1.7,0.7-2.4c0.5-0.6,1.2-0.9,2-0.8
			c0.6,0,1.2,0.2,1.7,0.7c0.4,0.5,0.7,1.2,0.7,1.8H91c0-0.4-0.1-0.8-0.4-1.1c-0.2-0.3-0.6-0.4-0.9-0.4c-0.4,0-0.9,0.2-1.1,0.5
			c-0.3,0.5-0.4,1.1-0.4,1.6v0.9c-0.1,0.6,0.1,1.2,0.4,1.8C88.9,26.6,89.3,26.7,89.8,26.7z"/>
		<polygon id="_3" class="st3" points="98.1,24.4 97.5,25.1 97.5,27.5 96.4,27.5 96.4,17.7 97.5,17.7 97.5,23.6 99.7,20.6 101,20.6 
			98.8,23.5 101.3,27.5 100,27.5 		"/>
		<path id="_4" class="st3" d="M103.4,21.3c0.4-0.5,1-0.8,1.6-0.8c1.2,0,1.8,0.8,1.9,2.4v4.6h-1.1V23c0-0.4-0.1-0.8-0.3-1.1
			c-0.2-0.2-0.5-0.4-0.8-0.4c-0.3,0-0.5,0.1-0.8,0.3c-0.2,0.2-0.4,0.5-0.5,0.7v5h-1.1v-9.8h1.1V21.3z"/>
		<path id="_5" class="st3" d="M108.4,23.8c0-0.9,0.2-1.7,0.7-2.4c0.5-0.6,1.2-0.9,1.9-0.9c0.7,0,1.4,0.3,1.9,0.9
			c0.5,0.7,0.8,1.5,0.8,2.3v0.7c0,0.8-0.2,1.7-0.7,2.4c-0.5,0.6-1.2,0.9-1.9,0.9c-0.7,0-1.4-0.3-1.9-0.9c-0.5-0.7-0.8-1.5-0.8-2.3
			V23.8z M109.5,24.4c0,0.6,0.1,1.2,0.4,1.7c0.2,0.4,0.7,0.6,1.1,0.6c1,0,1.5-0.7,1.6-2.2v-0.8c0-0.6-0.1-1.2-0.4-1.7
			c-0.4-0.6-1.2-0.8-1.8-0.4c-0.2,0.1-0.3,0.2-0.4,0.4c-0.3,0.5-0.4,1.1-0.4,1.7V24.4z M110.6,19.5v-1c0.2,0,0.4-0.1,0.5-0.1
			c0.1-0.1,0.2-0.2,0.2-0.4c0-0.3-0.3-0.5-0.8-0.5v-0.7c0.4,0,0.9,0.1,1.2,0.3c0.3,0.2,0.4,0.5,0.4,0.9c0,0.2-0.1,0.5-0.2,0.7
			c-0.1,0.2-0.4,0.3-0.6,0.3v0.5L110.6,19.5z"/>
		<path id="_6" class="st3" d="M117.6,27.7c-0.7,0-1.5-0.2-2-0.8c-0.5-0.6-0.7-1.4-0.7-2.3v-0.8c0-0.9,0.2-1.7,0.7-2.4
			c0.4-0.6,1.1-0.9,1.9-0.9c0.7-0.1,1.4,0.2,1.8,0.8c0.5,0.7,0.7,1.6,0.6,2.4v0.7H116v0.2c-0.1,0.6,0.1,1.1,0.4,1.6
			c0.3,0.3,0.7,0.5,1.2,0.5c0.3,0,0.6-0.1,0.9-0.2c0.3-0.1,0.5-0.4,0.7-0.6l0.6,0.7C119.3,27.3,118.5,27.7,117.6,27.7z M117.5,21.5
			c-0.4,0-0.8,0.2-1,0.5c-0.3,0.5-0.4,1-0.4,1.5h2.7v-0.1c0-0.5-0.1-1-0.4-1.4C118.2,21.6,117.8,21.4,117.5,21.5z"/>
		<polygon id="_7" class="st3" points="126.2,25.8 127.5,20.6 128.6,20.6 126.6,27.5 125.8,27.5 123.7,20.6 124.8,20.6 		"/>
		<path id="_8" class="st3" d="M133.3,27.5c-0.1-0.2-0.1-0.5-0.1-0.8c-0.3,0.5-0.9,0.9-1.5,0.9c-0.5,0-1.1-0.2-1.5-0.5
			c-0.4-0.4-0.6-0.9-0.5-1.5c0-0.6,0.2-1.2,0.7-1.7c0.6-0.4,1.3-0.7,2-0.6h0.8v-0.7c0-0.3-0.1-0.6-0.3-0.9c-0.5-0.4-1.2-0.3-1.7,0
			c-0.2,0.2-0.3,0.5-0.3,0.8h-1.1c0-0.4,0.1-0.7,0.3-1c0.2-0.3,0.5-0.6,0.8-0.8c0.4-0.2,0.8-0.3,1.2-0.3c0.6,0,1.2,0.1,1.6,0.5
			c0.4,0.4,0.6,1,0.6,1.5V26c0,0.5,0.1,0.9,0.2,1.4v0.1H133.3z M131.8,26.7c0.3,0,0.6-0.1,0.8-0.2c0.2-0.1,0.4-0.3,0.6-0.6v-1.6
			h-0.6c-0.4,0-0.9,0.1-1.3,0.4c-0.3,0.2-0.5,0.6-0.5,1c0,0.3,0.1,0.6,0.2,0.9C131.2,26.6,131.5,26.7,131.8,26.7z M132.8,19.7h-1
			l-1.7-1.9h1.4L132.8,19.7z"/>
		<polygon id="_9" class="st3" points="140.9,25.8 142.2,20.6 143.4,20.6 141.3,27.5 140.5,27.5 138.4,20.6 139.6,20.6 		"/>
		<path id="_10" class="st3" d="M146.9,27.7c-0.7,0-1.5-0.2-2-0.8c-0.5-0.6-0.7-1.4-0.7-2.3v-0.8c0-0.9,0.2-1.7,0.7-2.4
			c0.5-0.6,1.2-0.9,1.9-0.9c0.7-0.1,1.4,0.2,1.8,0.8c0.5,0.7,0.7,1.6,0.6,2.4v0.7h-3.8v0.2c0,0.6,0.1,1.1,0.4,1.6
			c0.3,0.3,0.7,0.5,1.2,0.5c0.3,0,0.6-0.1,0.9-0.2c0.3-0.2,0.5-0.4,0.7-0.6l0.6,0.7C148.7,27.3,147.8,27.7,146.9,27.7z M146.8,21.5
			c-0.4,0-0.8,0.2-1,0.5c-0.3,0.5-0.4,1-0.4,1.5h2.7v-0.1c0-0.5-0.1-1-0.4-1.4C147.6,21.6,147.2,21.4,146.8,21.5z M146.4,19.5v-1
			c0.2,0,0.4-0.1,0.5-0.1c0.1-0.1,0.2-0.2,0.2-0.4c0-0.3-0.3-0.5-0.8-0.5v-0.7c0.4,0,0.9,0.1,1.2,0.3c0.3,0.2,0.4,0.5,0.4,0.9
			c0,0.2-0.1,0.5-0.2,0.7c-0.1,0.2-0.4,0.3-0.6,0.3v0.5L146.4,19.5z"/>
		<path id="_11" class="st3" d="M159.4,19.7h-1v7.9h-1l-0.1-0.7c-0.3,0.6-0.9,0.9-1.6,0.9c-0.7,0-1.3-0.3-1.7-0.8
			c-0.4-0.7-0.7-1.5-0.6-2.4v-0.7c-0.1-0.9,0.2-1.7,0.6-2.4c0.4-0.6,1-0.9,1.7-0.8c0.6,0,1.2,0.3,1.5,0.8v-1.6H156v-1h1.3v-1h1.1v1
			h1L159.4,19.7z M154.5,24.4c0,0.6,0.1,1.2,0.4,1.7c0.2,0.4,0.7,0.6,1.1,0.5c0.5,0,1-0.3,1.3-0.8v-3.5c-0.2-0.5-0.7-0.8-1.3-0.8
			c-0.4,0-0.9,0.2-1.1,0.5c-0.3,0.5-0.4,1.1-0.4,1.7V24.4z"/>
		<path id="_12" class="st3" d="M162.7,27.7c-0.8,0.1-1.5-0.2-2-0.8c-0.5-0.6-0.8-1.4-0.7-2.3v-0.8c0-0.9,0.2-1.7,0.7-2.4
			c0.5-0.6,1.2-0.9,1.9-0.9c0.7-0.1,1.4,0.2,1.8,0.7c0.5,0.7,0.7,1.6,0.6,2.4v0.7h-3.9v0.2c0,0.6,0.1,1.1,0.4,1.6
			c0.3,0.3,0.7,0.5,1.2,0.5c0.3,0,0.6-0.1,0.9-0.2c0.3-0.1,0.5-0.3,0.7-0.6l0.6,0.7C164.4,27.3,163.6,27.7,162.7,27.7z M162.6,21.5
			c-0.4,0-0.8,0.2-1,0.5c-0.3,0.5-0.4,1-0.4,1.5h2.7v-0.1c0-0.5-0.1-1-0.4-1.4C163.3,21.6,163,21.4,162.6,21.5z M161.8,29.1
			c0-0.2,0.1-0.4,0.2-0.5c0.3-0.2,0.7-0.2,1,0c0.1,0.1,0.2,0.3,0.2,0.5c0,0.2-0.1,0.3-0.2,0.5c-0.3,0.2-0.7,0.2-1,0
			C161.9,29.4,161.8,29.3,161.8,29.1z"/>
		<path id="_13" class="st3" d="M171.4,24.4c0.1,0.9-0.1,1.7-0.6,2.4c-0.4,0.5-1,0.8-1.7,0.8c-0.6,0-1.2-0.3-1.6-0.8v3.3h-1.2v-9.5
			h1l0.1,0.8c0.3-0.6,1-0.9,1.6-0.9c0.7,0,1.3,0.2,1.7,0.8c0.4,0.7,0.6,1.5,0.6,2.4L171.4,24.4z M170.3,23.8c0-0.6-0.1-1.2-0.4-1.7
			c-0.3-0.4-0.7-0.6-1.1-0.6c-0.5,0-1,0.3-1.2,0.8v3.6c0.2,0.5,0.7,0.8,1.2,0.8c0.4,0,0.9-0.2,1.1-0.6c0.3-0.5,0.4-1.1,0.4-1.7V23.8
			z"/>
		<polygon id="_14" class="st3" points="177,27.5 175.9,27.5 175.9,17.7 177,17.7 		"/>
		<path id="_15" class="st3" d="M182.3,27.5c-0.1-0.2-0.1-0.5-0.1-0.8c-0.3,0.5-0.9,0.9-1.5,0.9c-0.5,0-1.1-0.2-1.5-0.5
			c-0.4-0.4-0.6-0.9-0.5-1.5c0-0.6,0.2-1.3,0.7-1.7c0.6-0.4,1.2-0.7,2-0.6h0.8v-0.7c0-0.3-0.1-0.6-0.3-0.9c-0.2-0.2-0.5-0.3-0.8-0.3
			c-0.3,0-0.6,0.1-0.8,0.3c-0.2,0.2-0.3,0.5-0.3,0.8h-1.1c0-0.4,0.1-0.7,0.3-1c0.2-0.3,0.5-0.6,0.8-0.8c0.4-0.2,0.8-0.3,1.2-0.3
			c0.6,0,1.2,0.1,1.6,0.5c0.4,0.4,0.6,1,0.6,1.5V26c0,0.5,0.1,0.9,0.2,1.4v0.1H182.3z M180.8,26.7c0.3,0,0.5-0.1,0.8-0.2
			c0.2-0.1,0.4-0.3,0.5-0.6v-1.6h-0.6c-0.4,0-0.9,0.1-1.3,0.4c-0.3,0.2-0.5,0.6-0.5,1c0,0.3,0.1,0.6,0.2,0.9
			C180.3,26.6,180.6,26.7,180.8,26.7z M181.8,19.7h-1l-1.6-1.9h1.4L181.8,19.7z"/>
		<path id="_16" class="st3" d="M186.1,20.6v0.7c0.4-0.5,1-0.9,1.7-0.9c1.2,0,1.8,0.8,1.9,2.4v4.6h-1.1V23c0-0.4-0.1-0.8-0.3-1.1
			c-0.2-0.2-0.5-0.4-0.8-0.4c-0.3,0-0.6,0.1-0.8,0.3c-0.2,0.2-0.4,0.5-0.5,0.7v5H185v-6.9H186.1z"/>
		<path id="_17" class="st3" d="M194.1,23.8c-0.1-0.9,0.1-1.7,0.6-2.4c0.4-0.6,1-0.9,1.7-0.8c0.6,0,1.2,0.3,1.5,0.8v-3.6h1.1v9.8
			H198v-0.7c-0.3,0.6-0.9,0.9-1.6,0.9c-0.7,0-1.3-0.3-1.7-0.8c-0.4-0.7-0.7-1.5-0.6-2.4L194.1,23.8z M195.2,24.4
			c0,0.6,0.1,1.2,0.4,1.7c0.2,0.4,0.7,0.6,1.1,0.5c0.6,0,1.1-0.3,1.3-0.8v-3.5c-0.2-0.5-0.7-0.8-1.3-0.8c-0.4,0-0.9,0.2-1.1,0.5
			c-0.3,0.5-0.4,1.1-0.4,1.7V24.4z"/>
		<path id="_18" class="st3" d="M204.4,27.5c-0.1-0.2-0.1-0.5-0.1-0.8c-0.3,0.5-0.9,0.9-1.5,0.9c-0.5,0-1.1-0.2-1.5-0.5
			c-0.4-0.4-0.6-0.9-0.5-1.5c0-0.6,0.2-1.3,0.7-1.7c0.6-0.4,1.3-0.7,2-0.6h0.8v-0.7c0-0.3-0.1-0.6-0.3-0.9c-0.2-0.2-0.5-0.3-0.8-0.3
			c-0.3,0-0.6,0.1-0.8,0.3c-0.2,0.2-0.3,0.5-0.3,0.8h-1.1c0-0.4,0.1-0.7,0.3-1c0.2-0.3,0.5-0.6,0.8-0.8c0.4-0.2,0.8-0.3,1.2-0.3
			c0.6,0,1.2,0.1,1.6,0.5c0.4,0.4,0.6,1,0.6,1.5V26c0,0.5,0.1,0.9,0.2,1.4v0.1H204.4z M202.9,26.7c0.3,0,0.5-0.1,0.8-0.2
			c0.2-0.1,0.4-0.3,0.5-0.6v-1.6h-0.6c-0.4,0-0.9,0.1-1.3,0.4c-0.5,0.5-0.6,1.3-0.2,1.9C202.3,26.6,202.6,26.7,202.9,26.7
			L202.9,26.7z"/>
		<polygon id="_19" class="st4" points="75.1,43.2 73.3,43.2 73.3,33.4 75.1,33.4 		"/>
		<path id="_20" class="st4" d="M79.8,43.2c-0.1-0.2-0.1-0.3-0.2-0.5c-0.3,0.4-0.8,0.7-1.3,0.7c-0.5,0-1.1-0.2-1.4-0.6
			c-0.4-0.4-0.6-1-0.6-1.5c0-0.6,0.2-1.3,0.7-1.7c0.6-0.4,1.3-0.7,2-0.6h0.6v-0.5c0-0.2,0-0.5-0.2-0.6c-0.1-0.1-0.3-0.2-0.5-0.2
			c-0.4,0-0.7,0.3-0.7,0.8h-1.8c0-0.6,0.3-1.2,0.7-1.6c0.5-0.4,1.2-0.6,1.8-0.6c0.6,0,1.3,0.2,1.8,0.6c0.5,0.5,0.7,1.1,0.6,1.7v3.2
			c0,0.5,0.1,0.9,0.3,1.4v0.1H79.8z M78.7,42c0.2,0,0.4,0,0.5-0.1c0.1-0.1,0.2-0.2,0.3-0.3v-1.5h-0.4c-0.3,0-0.5,0.1-0.7,0.3
			c-0.2,0.2-0.3,0.5-0.3,0.8C78.1,41.7,78.3,41.9,78.7,42L78.7,42z M79.8,35.4h-1.5l-1.8-2h2L79.8,35.4z"/>
		<path id="_21" class="st4" d="M88.7,41.4c0-0.2-0.1-0.3-0.2-0.4c-0.3-0.2-0.6-0.4-1-0.5c-0.6-0.2-1.1-0.5-1.5-0.9
			c-0.3-0.3-0.4-0.8-0.4-1.2c0-0.6,0.2-1.1,0.6-1.5c0.5-0.4,1.1-0.6,1.7-0.6c0.7,0,1.3,0.2,1.8,0.6c0.4,0.4,0.7,1,0.7,1.6h-1.8
			c0-0.6-0.2-0.8-0.7-0.8c-0.2,0-0.3,0.1-0.5,0.2c-0.1,0.1-0.2,0.3-0.2,0.5c0,0.2,0.1,0.3,0.2,0.4c0.3,0.2,0.6,0.4,1,0.5
			c0.6,0.2,1.1,0.5,1.6,0.9c0.3,0.4,0.4,0.8,0.4,1.3c0,0.6-0.2,1.1-0.7,1.5c-0.5,0.4-1.2,0.6-1.8,0.6c-0.5,0-0.9-0.1-1.3-0.3
			c-0.8-0.4-1.3-1.1-1.2-2h1.7c0,0.3,0.1,0.5,0.2,0.7c0.2,0.2,0.4,0.3,0.7,0.2C88.5,42,88.7,41.8,88.7,41.4z"/>
		<path id="_22" class="st4" d="M98.4,35.7c0,0.6-0.1,1.2-0.4,1.7c-0.3,0.4-0.7,0.7-1.2,0.7v5.2H95v-0.7c-0.3,0.5-0.9,0.8-1.5,0.8
			c-0.6,0-1.1-0.2-1.4-0.7c-0.4-0.6-0.5-1.2-0.5-1.9v-4.5h1.8v4.5c0,0.7,0.2,1,0.7,1c0.4,0,0.7-0.2,0.9-0.5v-5h1.8v0.9
			c0.2-0.1,0.4-0.2,0.4-0.4c0.1-0.3,0.2-0.7,0.2-1.1H98.4z M94.5,33.5h2l-1.8,2h-1.5L94.5,33.5z"/>
		<path id="_23" class="st4" d="M103.4,36.3v0.6c0.4-0.5,1-0.8,1.6-0.8c0.6,0,1.2,0.3,1.5,0.9c0.4-0.6,1-1,1.7-0.9
			c1.2,0,1.8,0.8,1.8,2.5v4.6h-1.8v-4.5c0-0.3,0-0.6-0.2-0.9c-0.1-0.2-0.4-0.3-0.6-0.2c-0.3,0-0.6,0.2-0.8,0.6v5h-1.8v-4.4
			c0-0.3,0-0.6-0.2-0.9c-0.1-0.2-0.3-0.3-0.6-0.3c-0.3,0-0.6,0.2-0.7,0.5v5h-1.8v-6.9L103.4,36.3z"/>
		<path id="_24" class="st4" d="M114.1,43.3c-0.8,0-1.6-0.3-2.2-0.8c-0.6-0.7-0.8-1.5-0.8-2.4v-0.5c-0.1-0.9,0.2-1.8,0.7-2.5
			c0.5-0.6,1.2-0.9,2-0.9c0.8-0.1,1.5,0.2,2,0.8c0.5,0.7,0.7,1.6,0.7,2.5v0.9H113c0,0.4,0.1,0.8,0.3,1.1c0.2,0.3,0.6,0.4,0.9,0.3
			c0.6,0,1.1-0.2,1.5-0.6l0.7,1.1c-0.3,0.3-0.6,0.6-1,0.7C115.1,43.3,114.6,43.3,114.1,43.3z M113,39.1h1.8v-0.2
			c0-0.3-0.1-0.6-0.2-0.9c-0.1-0.2-0.4-0.3-0.7-0.3c-0.3,0-0.5,0.1-0.7,0.3C113.1,38.3,113,38.7,113,39.1z M115.9,35.2L115.9,35.2
			l-1.4,0l-0.8-0.9l-0.8,0.9h-1.4v-0.1l1.7-1.8h1L115.9,35.2z M113.9,43.8c0.3,0,0.5,0.1,0.8,0.3c0.2,0.2,0.3,0.4,0.3,0.6
			c0,0.2-0.1,0.5-0.3,0.6c-0.2,0.2-0.5,0.3-0.8,0.2c-0.3,0-0.5-0.1-0.7-0.2c-0.2-0.2-0.3-0.4-0.3-0.6c0-0.2,0.1-0.5,0.3-0.6
			C113.3,43.9,113.6,43.8,113.9,43.8z"/>
		<path id="_25" class="st4" d="M119.3,36.3V37c0.4-0.5,1-0.8,1.6-0.8c1.2,0,1.8,0.8,1.8,2.5v4.6h-1.8v-4.5c0-0.3,0-0.6-0.2-0.8
			c-0.1-0.2-0.4-0.3-0.6-0.3c-0.3,0-0.6,0.2-0.8,0.5v5h-1.8v-6.9L119.3,36.3z"/>
		<path id="_26" class="st4" d="M125.8,36.9c0.3-0.5,0.9-0.7,1.4-0.7c0.6,0,1.1,0.2,1.4,0.7c0.4,0.6,0.5,1.3,0.5,2v4.4h-1.8v-4.4
			c0-0.3,0-0.6-0.2-0.9c-0.1-0.2-0.4-0.3-0.6-0.3c-0.3,0-0.6,0.2-0.8,0.5v5.1H124v-9.8h1.8L125.8,36.9z"/>
		<path id="_27" class="st4" d="M136,41.8c0.5,0,0.8-0.3,0.8-1h1.7c0,0.7-0.2,1.3-0.7,1.8c-0.5,0.5-1.1,0.7-1.8,0.7
			c-0.8,0-1.5-0.3-2-0.8c-0.5-0.7-0.8-1.6-0.7-2.5v-0.5c-0.1-0.9,0.2-1.8,0.7-2.5c0.5-0.6,1.3-0.9,2.1-0.8c0.7,0,1.3,0.2,1.8,0.7
			c0.5,0.6,0.7,1.3,0.7,2h-1.7c0-0.3,0-0.6-0.2-0.9c-0.1-0.2-0.4-0.3-0.6-0.3c-0.3,0-0.5,0.1-0.7,0.3c-0.2,0.4-0.2,0.9-0.2,1.3V40
			c0,0.4,0,0.8,0.1,1.2c0,0.2,0.1,0.4,0.3,0.5C135.6,41.8,135.8,41.9,136,41.8z"/>
		<path id="_28" class="st4" d="M142.9,42.6c-0.3,0.5-0.9,0.8-1.5,0.8c-0.6,0-1.1-0.2-1.4-0.7c-0.4-0.6-0.5-1.2-0.5-1.9v-4.5h1.8
			v4.5c0,0.7,0.2,1,0.7,1c0.4,0,0.7-0.2,0.9-0.5v-5h1.8v6.9h-1.7L142.9,42.6z M141.4,35.1l-0.1-0.8c0.2,0,0.4,0,0.5-0.1
			c0.1-0.1,0.2-0.2,0.2-0.3c0-0.1-0.1-0.3-0.2-0.3c-0.2-0.1-0.3-0.1-0.5-0.1v-0.9c0.6,0,1.1,0.1,1.6,0.3c0.3,0.2,0.5,0.5,0.5,0.9
			c0,0.2-0.1,0.4-0.2,0.6c-0.1,0.2-0.3,0.3-0.6,0.3v0.4H141.4z"/>
		<path id="_29" class="st4" d="M149.2,43.2c-0.1-0.2-0.1-0.3-0.1-0.5c-0.3,0.4-0.8,0.7-1.3,0.7c-0.5,0-1.1-0.2-1.4-0.6
			c-0.4-0.4-0.6-0.9-0.6-1.5c0-0.6,0.2-1.3,0.7-1.7c0.6-0.4,1.3-0.7,2-0.6h0.6v-0.5c0-0.2,0-0.5-0.2-0.6c-0.1-0.1-0.3-0.2-0.5-0.2
			c-0.5,0-0.7,0.3-0.7,0.8h-1.8c0-0.6,0.3-1.2,0.7-1.6c0.5-0.4,1.1-0.6,1.8-0.6c0.6,0,1.3,0.2,1.8,0.6c0.4,0.5,0.7,1.1,0.6,1.7v3.2
			c0,0.5,0.1,0.9,0.3,1.4v0.1H149.2z M148.1,42c0.2,0,0.4,0,0.5-0.1c0.1-0.1,0.2-0.2,0.3-0.3v-1.5h-0.4c-0.3,0-0.5,0.1-0.7,0.3
			c-0.2,0.2-0.3,0.5-0.3,0.8C147.5,41.7,147.7,41.9,148.1,42L148.1,42z"/>
		<path id="_30" class="st4" d="M157.6,41.8c0.5,0,0.8-0.3,0.8-1h1.7c0,0.7-0.2,1.3-0.7,1.8c-0.5,0.5-1.1,0.7-1.8,0.7
			c-0.8,0-1.5-0.3-2-0.8c-0.5-0.7-0.8-1.6-0.7-2.5v-0.5c-0.1-0.9,0.2-1.8,0.7-2.5c0.5-0.6,1.2-0.9,2-0.8c0.7,0,1.3,0.2,1.8,0.7
			c0.5,0.6,0.7,1.3,0.7,2h-1.6c0-0.3,0-0.6-0.2-0.9c-0.1-0.2-0.4-0.3-0.6-0.3c-0.3,0-0.5,0.1-0.7,0.3c-0.2,0.4-0.2,0.9-0.2,1.3V40
			c0,0.4,0,0.8,0.1,1.2c0,0.2,0.1,0.4,0.3,0.5C157.2,41.8,157.4,41.8,157.6,41.8z"/>
		<path id="_31" class="st4" d="M162.8,36.9c0.3-0.5,0.9-0.7,1.5-0.7c0.6,0,1.1,0.2,1.4,0.7c0.4,0.6,0.5,1.3,0.5,2v4.4h-1.8v-4.4
			c0-0.3,0-0.6-0.2-0.9c-0.1-0.2-0.4-0.3-0.6-0.3c-0.3,0-0.6,0.2-0.8,0.5v5.1H161v-9.8h1.8V36.9z"/>
		<path id="_32" class="st4" d="M170.9,42.6c-0.3,0.5-0.9,0.8-1.5,0.8c-0.6,0-1.1-0.2-1.4-0.7c-0.4-0.6-0.5-1.2-0.5-1.9v-4.5h1.8
			v4.5c0,0.7,0.2,1,0.7,1c0.4,0,0.7-0.2,0.9-0.5v-5h1.8v6.9h-1.7L170.9,42.6z M170.4,33.4h2l-1.8,2h-1.5L170.4,33.4z"/>
		<path id="_33" class="st4" d="M175.6,36.3V37c0.4-0.5,1-0.8,1.6-0.8c1.2,0,1.8,0.8,1.8,2.5v4.6h-1.8v-4.5c0-0.3,0-0.6-0.2-0.8
			c-0.1-0.2-0.4-0.3-0.6-0.3c-0.3,0-0.6,0.2-0.8,0.5v5h-1.8v-6.9L175.6,36.3z"/>
		<path id="_34" class="st4" d="M180.1,39.5c-0.1-0.9,0.1-1.8,0.6-2.5c0.4-0.5,1-0.9,1.7-0.8c0.6,0,1.1,0.3,1.4,0.7l0.1-0.6h1.6v6.9
			c0,0.7-0.2,1.5-0.7,2c-0.6,0.5-1.4,0.7-2.1,0.7c-0.4,0-0.8-0.1-1.2-0.2c-0.4-0.1-0.7-0.3-0.9-0.6l0.6-1.3c0.2,0.2,0.4,0.3,0.7,0.4
			c0.2,0.1,0.5,0.2,0.8,0.2c0.3,0,0.6-0.1,0.9-0.3c0.2-0.3,0.3-0.6,0.3-0.9v-0.6c-0.3,0.4-0.8,0.7-1.4,0.7c-0.7,0-1.3-0.3-1.7-0.9
			c-0.4-0.7-0.7-1.6-0.6-2.4L180.1,39.5z M181.9,40c0,0.5,0.1,1,0.2,1.4c0.2,0.3,0.5,0.4,0.8,0.4c0.3,0,0.6-0.1,0.8-0.4v-3.3
			c-0.2-0.3-0.5-0.5-0.8-0.4c-0.3,0-0.6,0.2-0.8,0.4c-0.2,0.4-0.3,0.9-0.3,1.4V40z"/>
		<path id="_35" class="st4" d="M192,34.6v1.7h0.9v1.4H192v3.4c0,0.2,0,0.4,0.1,0.6c0.1,0.1,0.2,0.2,0.4,0.2c0.1,0,0.3,0,0.4,0v1.4
			c-0.3,0.1-0.7,0.2-1,0.2c-1.2,0-1.8-0.7-1.8-2v-3.7h-0.9v-1.4h0.8v-1.7H192z"/>
		<path id="_36" class="st4" d="M193.5,39.5c0-0.9,0.2-1.8,0.7-2.5c1.1-1.1,2.9-1.2,4-0.1c0,0,0.1,0.1,0.1,0.1
			c0.5,0.7,0.8,1.6,0.7,2.5V40c0.1,0.9-0.2,1.7-0.7,2.5c-0.5,0.6-1.3,0.9-2.1,0.9c-0.8,0-1.6-0.3-2.1-0.9c-0.5-0.7-0.8-1.6-0.7-2.5
			L193.5,39.5z M195.4,40c0,1.2,0.3,1.8,1,1.8s0.9-0.5,1-1.5v-0.8c0-0.5-0.1-1-0.3-1.4c-0.1-0.3-0.4-0.5-0.7-0.5
			c-0.3,0-0.6,0.2-0.7,0.5c-0.2,0.4-0.3,0.9-0.3,1.4L195.4,40z M198.5,35.2L198.5,35.2h-1.4l-0.8-0.9l-0.8,0.9h-1.4v-0.1l1.7-1.8h1
			L198.5,35.2z"/>
		<path id="_37" class="st4" d="M202.1,43.2h-1.8v-6.9h1.8L202.1,43.2z M200.3,34.5c-0.1-0.5,0.3-0.9,0.8-1c0.1,0,0.1,0,0.2,0
			c0.3,0,0.5,0.1,0.7,0.3c0.2,0.2,0.3,0.4,0.3,0.7c0,0.3-0.1,0.5-0.3,0.7c-0.2,0.2-0.4,0.3-0.7,0.3c-0.3,0-0.5-0.1-0.7-0.3
			C200.4,35,200.3,34.8,200.3,34.5L200.3,34.5z"/>
	</g>
</g>
</svg>
